<svg width="25" height="24" viewBox="0 0 25 24" fill="none" xmlns="http://www.w3.org/2000/svg">
<path fill-rule="evenodd" clip-rule="evenodd" d="M21.1665 9.9043H3.34253C2.92853 9.9043 2.59253 9.5683 2.59253 9.1543C2.59253 8.7403 2.92853 8.4043 3.34253 8.4043H21.1665C21.5805 8.4043 21.9165 8.7403 21.9165 9.1543C21.9165 9.5683 21.5805 9.9043 21.1665 9.9043Z" fill="black"/>
<path fill-rule="evenodd" clip-rule="evenodd" d="M16.7013 13.8096C16.2873 13.8096 15.9473 13.4736 15.9473 13.0596C15.9473 12.6456 16.2783 12.3096 16.6923 12.3096H16.7013C17.1153 12.3096 17.4513 12.6456 17.4513 13.0596C17.4513 13.4736 17.1153 13.8096 16.7013 13.8096Z" fill="black"/>
<path fill-rule="evenodd" clip-rule="evenodd" d="M12.2638 13.8096C11.8498 13.8096 11.5098 13.4736 11.5098 13.0596C11.5098 12.6456 11.8408 12.3096 12.2548 12.3096H12.2638C12.6778 12.3096 13.0138 12.6456 13.0138 13.0596C13.0138 13.4736 12.6778 13.8096 12.2638 13.8096Z" fill="black"/>
<path fill-rule="evenodd" clip-rule="evenodd" d="M7.81701 13.8096C7.40301 13.8096 7.06201 13.4736 7.06201 13.0596C7.06201 12.6456 7.39401 12.3096 7.80801 12.3096H7.81701C8.23101 12.3096 8.56701 12.6456 8.56701 13.0596C8.56701 13.4736 8.23101 13.8096 7.81701 13.8096Z" fill="black"/>
<path fill-rule="evenodd" clip-rule="evenodd" d="M16.7013 17.6963C16.2873 17.6963 15.9473 17.3603 15.9473 16.9463C15.9473 16.5323 16.2783 16.1963 16.6923 16.1963H16.7013C17.1153 16.1963 17.4513 16.5323 17.4513 16.9463C17.4513 17.3603 17.1153 17.6963 16.7013 17.6963Z" fill="black"/>
<path fill-rule="evenodd" clip-rule="evenodd" d="M12.2638 17.6963C11.8498 17.6963 11.5098 17.3603 11.5098 16.9463C11.5098 16.5323 11.8408 16.1963 12.2548 16.1963H12.2638C12.6778 16.1963 13.0138 16.5323 13.0138 16.9463C13.0138 17.3603 12.6778 17.6963 12.2638 17.6963Z" fill="black"/>
<path fill-rule="evenodd" clip-rule="evenodd" d="M7.81701 17.6963C7.40301 17.6963 7.06201 17.3603 7.06201 16.9463C7.06201 16.5323 7.39401 16.1963 7.80801 16.1963H7.81701C8.23101 16.1963 8.56701 16.5323 8.56701 16.9463C8.56701 17.3603 8.23101 17.6963 7.81701 17.6963Z" fill="black"/>
<path fill-rule="evenodd" clip-rule="evenodd" d="M16.2935 5.791C15.8795 5.791 15.5435 5.455 15.5435 5.041V1.75C15.5435 1.336 15.8795 1 16.2935 1C16.7075 1 17.0435 1.336 17.0435 1.75V5.041C17.0435 5.455 16.7075 5.791 16.2935 5.791Z" fill="black"/>
<path fill-rule="evenodd" clip-rule="evenodd" d="M8.21533 5.791C7.80133 5.791 7.46533 5.455 7.46533 5.041V1.75C7.46533 1.336 7.80133 1 8.21533 1C8.62933 1 8.96533 1.336 8.96533 1.75V5.041C8.96533 5.455 8.62933 5.791 8.21533 5.791Z" fill="black"/>
<mask id="mask0_10_844" style="mask-type:luminance" maskUnits="userSpaceOnUse" x="2" y="2" width="20" height="21">
<path fill-rule="evenodd" clip-rule="evenodd" d="M2.5 2.5791H22V22.5H2.5V2.5791Z" fill="white"/>
</mask>
<g mask="url(#mask0_10_844)">
<path fill-rule="evenodd" clip-rule="evenodd" d="M8.021 4.0791C5.428 4.0791 4 5.4621 4 7.9731V17.0221C4 19.5881 5.428 21.0001 8.021 21.0001H16.479C19.072 21.0001 20.5 19.6141 20.5 17.0981V7.9731C20.504 6.7381 20.172 5.7781 19.513 5.1181C18.835 4.4381 17.79 4.0791 16.488 4.0791H8.021ZM16.479 22.5001H8.021C4.616 22.5001 2.5 20.4011 2.5 17.0221V7.9731C2.5 4.6451 4.616 2.5791 8.021 2.5791H16.488C18.197 2.5791 19.61 3.0911 20.575 4.0581C21.512 4.9991 22.005 6.3521 22 7.9751V17.0981C22 20.4301 19.884 22.5001 16.479 22.5001Z" fill="black"/>
</g>
</svg>
