<?xml version="1.0" encoding="UTF-8"?>
<!DOCTYPE svg PUBLIC "-//W3C//DTD SVG 1.1//EN" "http://www.w3.org/Graphics/SVG/1.1/DTD/svg11.dtd">
<svg xmlns="http://www.w3.org/2000/svg" version="1.1" width="364px" height="364px" style="shape-rendering:geometricPrecision; text-rendering:geometricPrecision; image-rendering:optimizeQuality; fill-rule:evenodd; clip-rule:evenodd" xmlns:xlink="http://www.w3.org/1999/xlink">
<g><path style="opacity:1" fill="#e5e5e6" d="M -0.5,-0.5 C 120.833,-0.5 242.167,-0.5 363.5,-0.5C 363.5,120.833 363.5,242.167 363.5,363.5C 242.167,363.5 120.833,363.5 -0.5,363.5C -0.5,242.167 -0.5,120.833 -0.5,-0.5 Z"/></g>
<g><path style="opacity:1" fill="#dbe1fb" d="M 139.5,99.5 C 137.833,99.5 136.167,99.5 134.5,99.5C 133.167,99.5 131.833,99.5 130.5,99.5C 120.789,98.1353 111.123,98.4686 101.5,100.5C 100.167,100.5 98.8333,100.5 97.5,100.5C 98.2625,99.7321 99.2625,99.2321 100.5,99C 113.692,96.8998 126.692,97.0665 139.5,99.5 Z"/></g>
<g><path style="opacity:1" fill="#8f9ee8" d="M 130.5,99.5 C 124.075,99.1304 117.742,99.6304 111.5,101C 118.233,101.385 124.733,101.218 131,100.5C 131.995,101.066 132.828,101.733 133.5,102.5C 123.491,102.612 113.491,102.945 103.5,103.5C 105.698,102.835 108.031,102.168 110.5,101.5C 107.572,100.516 104.572,100.183 101.5,100.5C 111.123,98.4686 120.789,98.1353 130.5,99.5 Z"/></g>
<g><path style="opacity:1" fill="#7a8dee" d="M 130.5,99.5 C 131.833,99.5 133.167,99.5 134.5,99.5C 142.809,101.874 142.476,102.874 133.5,102.5C 132.828,101.733 131.995,101.066 131,100.5C 124.733,101.218 118.233,101.385 111.5,101C 117.742,99.6304 124.075,99.1304 130.5,99.5 Z"/></g>
<g><path style="opacity:1" fill="#dee2f5" d="M 140.5,99.5 C 145.481,100.089 150.481,100.589 155.5,101C 157.431,101.902 159.097,103.069 160.5,104.5C 153.645,103.12 146.979,101.453 140.5,99.5 Z"/></g>
<g><path style="opacity:1" fill="#dbe0fb" d="M 97.5,100.5 C 93.7749,102.347 89.7749,103.681 85.5,104.5C 88.9311,101.799 92.9311,100.466 97.5,100.5 Z"/></g>
<g><path style="opacity:1" fill="#d7dcf5" d="M 133.5,102.5 C 141.012,104.079 148.346,106.079 155.5,108.5C 148.112,107.359 140.778,106.192 133.5,105C 122.833,104.333 112.167,104.333 101.5,105C 95.2232,107.377 88.8899,109.544 82.5,111.5C 88.8304,107.519 95.8304,104.852 103.5,103.5C 113.491,102.945 123.491,102.612 133.5,102.5 Z"/></g>
<g><path style="opacity:1" fill="#e5e5e6" d="M 155.5,108.5 C 156.574,109.885 157.907,111.051 159.5,112C 165.148,112.674 170.481,114.174 175.5,116.5C 176.833,116.833 178.167,117.167 179.5,117.5C 179.944,119.113 180.944,120.28 182.5,121C 182.167,121.333 181.833,121.667 181.5,122C 185.581,123.204 189.581,124.704 193.5,126.5C 196.432,127.8 198.766,129.8 200.5,132.5C 200.525,135.179 201.858,136.512 204.5,136.5C 206.278,140.482 208.778,144.149 212,147.5C 212.494,149.134 212.66,150.801 212.5,152.5C 213.5,152.5 214.5,152.5 215.5,152.5C 218.888,157.966 221.222,163.966 222.5,170.5C 221.687,175.461 222.853,179.794 226,183.5C 225.515,188.166 227.349,191.499 231.5,193.5C 232.447,196.934 233.614,200.267 235,203.5C 237.477,205.82 240.311,207.487 243.5,208.5C 245.423,208.795 247.09,209.628 248.5,211C 244.606,213.446 240.606,215.612 236.5,217.5C 234.597,217.796 232.93,218.463 231.5,219.5C 228.167,219.833 224.833,220.167 221.5,220.5C 208.259,221.785 194.925,222.618 181.5,223C 180.584,223.278 179.918,223.778 179.5,224.5C 178.833,224.5 178.167,224.5 177.5,224.5C 166.644,224.975 155.977,224.308 145.5,222.5C 145.737,221.209 145.404,220.209 144.5,219.5C 142.787,218.365 142.12,216.698 142.5,214.5C 142.327,211.495 140.827,209.495 138,208.5C 133.342,209.302 129.508,211.302 126.5,214.5C 119.113,216.887 112.113,219.887 105.5,223.5C 93.5218,224.558 81.5218,224.725 69.5,224C 61.5759,222.282 53.5759,220.949 45.5,220C 43.3367,219.755 41.67,218.755 40.5,217C 38.8659,216.506 37.1992,216.34 35.5,216.5C 35.7148,214.821 35.0481,213.821 33.5,213.5C 30.4098,212.335 29.0764,210.002 29.5,206.5C 28.6022,198.876 28.2689,191.209 28.5,183.5C 29.1495,181.565 29.4828,179.565 29.5,177.5C 31.6418,174.2 32.9751,170.533 33.5,166.5C 34.7551,161.666 36.7551,157.333 39.5,153.5C 40.4959,153.586 41.3292,153.252 42,152.5C 43.8519,149.454 45.6852,146.454 47.5,143.5C 47.3284,142.508 47.6618,141.842 48.5,141.5C 51.973,139.363 54.3064,136.363 55.5,132.5C 60.8163,128.85 65.4829,124.516 69.5,119.5C 71.4817,119.005 73.4817,118.505 75.5,118C 76.3366,116.989 76.67,115.822 76.5,114.5C 79.3202,114.913 81.3202,113.913 82.5,111.5C 88.8899,109.544 95.2232,107.377 101.5,105C 112.167,104.333 122.833,104.333 133.5,105C 140.778,106.192 148.112,107.359 155.5,108.5 Z"/></g>
<g><path style="opacity:1" fill="#dde0f3" d="M 171.5,108.5 C 176.412,108.224 180.412,110.058 183.5,114C 186.277,114.061 188.277,115.228 189.5,117.5C 183.082,115.255 177.082,112.255 171.5,108.5 Z"/></g>
<g><path style="opacity:1" fill="#dfe3f3" d="M 155.5,108.5 C 159.5,109.5 163.5,110.5 167.5,111.5C 169.25,112.87 171.25,113.87 173.5,114.5C 174.167,115.167 174.833,115.833 175.5,116.5C 170.481,114.174 165.148,112.674 159.5,112C 157.907,111.051 156.574,109.885 155.5,108.5 Z"/></g>
<g><path style="opacity:1" fill="#a2afeb" d="M 167.5,111.5 C 169.199,111.34 170.866,111.506 172.5,112C 173.252,112.671 173.586,113.504 173.5,114.5C 171.25,113.87 169.25,112.87 167.5,111.5 Z"/></g>
<g><path style="opacity:1" fill="#d9ddf3" d="M 82.5,111.5 C 81.3202,113.913 79.3202,114.913 76.5,114.5C 76.67,115.822 76.3366,116.989 75.5,118C 73.4817,118.505 71.4817,119.005 69.5,119.5C 71.6575,117.907 73.6575,116.074 75.5,114C 77.6524,112.587 79.9857,111.754 82.5,111.5 Z"/></g>
<g><path style="opacity:1" fill="#d8dcf6" d="M 155.5,119.5 C 159.311,118.355 163.311,118.188 167.5,119C 170.471,121.588 173.471,124.088 176.5,126.5C 172.167,124.5 167.833,122.5 163.5,120.5C 161.052,119.527 158.385,119.194 155.5,119.5 Z"/></g>
<g><path style="opacity:1" fill="#94a0e7" d="M 153.5,119.5 C 154.167,119.5 154.833,119.5 155.5,119.5C 158.385,119.194 161.052,119.527 163.5,120.5C 161.076,120.192 158.743,120.526 156.5,121.5C 158.291,122.17 159.958,122.837 161.5,123.5C 159.143,123.663 156.81,123.497 154.5,123C 153.663,121.989 153.33,120.822 153.5,119.5 Z"/></g>
<g><path style="opacity:1" fill="#dbdff8" d="M 153.5,119.5 C 153.33,120.822 153.663,121.989 154.5,123C 156.81,123.497 159.143,123.663 161.5,123.5C 162.167,124.167 162.833,124.833 163.5,125.5C 160.187,124.955 156.854,124.455 153.5,124C 152.199,122.384 152.199,120.884 153.5,119.5 Z"/></g>
<g><path style="opacity:1" fill="#dbdff6" d="M 179.5,117.5 C 184.491,120.143 189.158,123.143 193.5,126.5C 189.581,124.704 185.581,123.204 181.5,122C 181.833,121.667 182.167,121.333 182.5,121C 180.944,120.28 179.944,119.113 179.5,117.5 Z"/></g>
<g><path style="opacity:1" fill="#d3d8f5" d="M 69.5,119.5 C 65.4829,124.516 60.8163,128.85 55.5,132.5C 59.5287,127.471 64.1954,123.138 69.5,119.5 Z"/></g>
<g><path style="opacity:1" fill="#d8ddf8" d="M 200.5,125.5 C 204.167,127.167 206.833,129.833 208.5,133.5C 205.5,131.167 202.833,128.5 200.5,125.5 Z"/></g>
<g><path style="opacity:1" fill="#e0e4f3" d="M 63.5,118.5 C 57.5,123.833 51.8333,129.5 46.5,135.5C 47.6452,133.288 48.6452,130.955 49.5,128.5C 52.8333,125.833 55.8333,122.833 58.5,119.5C 59.086,119.709 59.586,120.043 60,120.5C 60.8159,119.177 61.9826,118.511 63.5,118.5 Z"/></g>
<g><path style="opacity:1" fill="#8a9aed" d="M 163.5,120.5 C 167.833,122.5 172.167,124.5 176.5,126.5C 178.885,128.884 180.885,131.55 182.5,134.5C 182.5,135.833 182.5,137.167 182.5,138.5C 181.5,138.5 180.5,138.5 179.5,138.5C 176.417,131.367 171.083,127.034 163.5,125.5C 162.833,124.833 162.167,124.167 161.5,123.5C 159.958,122.837 158.291,122.17 156.5,121.5C 158.743,120.526 161.076,120.192 163.5,120.5 Z"/></g>
<g><path style="opacity:1" fill="#d6dbf7" d="M 55.5,132.5 C 54.3064,136.363 51.973,139.363 48.5,141.5C 48.5,141.167 48.5,140.833 48.5,140.5C 50.6343,137.614 52.9677,134.947 55.5,132.5 Z"/></g>
<g><path style="opacity:1" fill="#9eaae7" d="M 182.5,134.5 C 183.451,135.919 183.784,137.585 183.5,139.5C 181.901,139.768 180.568,139.434 179.5,138.5C 180.5,138.5 181.5,138.5 182.5,138.5C 182.5,137.167 182.5,135.833 182.5,134.5 Z"/></g>
<g><path style="opacity:1" fill="#9eabec" d="M 212.5,140.5 C 214.543,141.579 215.876,143.246 216.5,145.5C 214.469,144.461 213.136,142.795 212.5,140.5 Z"/></g>
<g><path style="opacity:1" fill="#9eaaeb" d="M 48.5,140.5 C 48.5,140.833 48.5,141.167 48.5,141.5C 47.6618,141.842 47.3284,142.508 47.5,143.5C 46.5,144.167 45.5,144.833 44.5,145.5C 45.1355,143.205 46.4689,141.539 48.5,140.5 Z"/></g>
<g><path style="opacity:1" fill="#8595eb" d="M 97.5,100.5 C 98.8333,100.5 100.167,100.5 101.5,100.5C 104.572,100.183 107.572,100.516 110.5,101.5C 108.031,102.168 105.698,102.835 103.5,103.5C 95.8304,104.852 88.8304,107.519 82.5,111.5C 79.9857,111.754 77.6524,112.587 75.5,114C 73.6575,116.074 71.6575,117.907 69.5,119.5C 64.1954,123.138 59.5287,127.471 55.5,132.5C 52.9677,134.947 50.6343,137.614 48.5,140.5C 46.4689,141.539 45.1355,143.205 44.5,145.5C 42.4648,147.943 40.7981,150.61 39.5,153.5C 36.7551,157.333 34.7551,161.666 33.5,166.5C 31.3582,169.8 30.0249,173.467 29.5,177.5C 29.4828,179.565 29.1495,181.565 28.5,183.5C 28.1667,183.5 27.8333,183.5 27.5,183.5C 27.6882,181.897 27.1882,180.563 26,179.5C 25.6667,181.167 25.3333,182.833 25,184.5C 24.7467,191.32 24.58,197.987 24.5,204.5C 23.3108,195.986 23.3108,187.319 24.5,178.5C 27.09,169.585 30.59,160.918 35,152.5C 38.8535,146.776 42.6868,141.109 46.5,135.5C 51.8333,129.5 57.5,123.833 63.5,118.5C 70.2258,112.808 77.5592,108.141 85.5,104.5C 89.7749,103.681 93.7749,102.347 97.5,100.5 Z"/></g>
<g><path style="opacity:1" fill="#cad1f8" d="M 216.5,145.5 C 219.836,147.454 221.502,150.454 221.5,154.5C 220.024,151.417 218.357,148.417 216.5,145.5 Z"/></g>
<g><path style="opacity:1" fill="#8091ee" d="M 257.5,146.5 C 259.403,146.796 261.07,147.463 262.5,148.5C 262.5,149.833 261.833,150.5 260.5,150.5C 257.236,149.676 253.902,149.342 250.5,149.5C 250.196,148.85 249.863,148.183 249.5,147.5C 252.086,146.52 254.753,146.187 257.5,146.5 Z"/></g>
<g><path style="opacity:1" fill="#c9d0f5" d="M 250.5,149.5 C 253.902,149.342 257.236,149.676 260.5,150.5C 260.833,151.167 261.167,151.833 261.5,152.5C 257.326,150.936 252.993,150.269 248.5,150.5C 247.437,154.591 246.77,158.758 246.5,163C 247.415,167.102 248.082,171.269 248.5,175.5C 247.833,174.167 247.167,172.833 246.5,171.5C 244.929,163.998 245.262,156.664 247.5,149.5C 248.5,149.5 249.5,149.5 250.5,149.5 Z"/></g>
<g><path style="opacity:1" fill="#dbdff5" d="M 200.5,132.5 C 206.942,138.036 211.942,144.703 215.5,152.5C 214.5,152.5 213.5,152.5 212.5,152.5C 212.66,150.801 212.494,149.134 212,147.5C 208.778,144.149 206.278,140.482 204.5,136.5C 201.858,136.512 200.525,135.179 200.5,132.5 Z"/></g>
<g><path style="opacity:1" fill="#cfd4f5" d="M 47.5,143.5 C 45.6852,146.454 43.8519,149.454 42,152.5C 41.3292,153.252 40.4959,153.586 39.5,153.5C 40.7981,150.61 42.4648,147.943 44.5,145.5C 45.5,144.833 46.5,144.167 47.5,143.5 Z"/></g>
<g><path style="opacity:1" fill="#dde1f4" d="M 186.5,147.5 C 188.223,146.193 190.057,146.193 192,147.5C 192.497,149.81 192.663,152.143 192.5,154.5C 190.076,154.808 187.743,154.474 185.5,153.5C 183.815,150.952 184.148,148.952 186.5,147.5 Z"/></g>
<g><path style="opacity:1" fill="#8192e8" d="M 186.5,147.5 C 192.175,147.86 192.842,149.86 188.5,153.5C 185.61,152.163 184.943,150.163 186.5,147.5 Z"/></g>
<g><path style="opacity:1" fill="#e5e5e7" d="M 261.5,152.5 C 265.071,154.472 268.405,156.805 271.5,159.5C 271.5,160.167 271.5,160.833 271.5,161.5C 271.685,163.196 272.519,164.529 274,165.5C 274.494,167.134 274.66,168.801 274.5,170.5C 276.514,170.392 278.18,171.058 279.5,172.5C 280.833,175.833 282.167,179.167 283.5,182.5C 283.5,183.5 283.5,184.5 283.5,185.5C 285.973,185.912 287.306,184.912 287.5,182.5C 287.833,182.5 288.167,182.5 288.5,182.5C 291.508,179.789 294.508,177.122 297.5,174.5C 299.515,173.076 301.848,172.41 304.5,172.5C 311.5,172.5 318.5,172.5 325.5,172.5C 325.281,173.675 325.614,174.675 326.5,175.5C 330.484,174.23 334.484,174.23 338.5,175.5C 340.104,177.179 340.771,179.179 340.5,181.5C 338.155,186.034 335.989,190.7 334,195.5C 332.549,197.464 330.716,198.797 328.5,199.5C 324.017,201.404 319.351,202.737 314.5,203.5C 313.007,204.141 312.007,205.141 311.5,206.5C 310.167,206.5 308.833,206.5 307.5,206.5C 302.083,206.304 296.749,205.804 291.5,205C 290.577,207.041 290.244,209.208 290.5,211.5C 289,215.173 287,218.506 284.5,221.5C 283.206,222.29 282.039,223.29 281,224.5C 280.011,226.97 278.845,229.303 277.5,231.5C 276.118,234.394 274.118,236.894 271.5,239C 266.046,244.061 259.712,247.561 252.5,249.5C 249.544,250.137 246.544,250.637 243.5,251C 240.364,254.189 236.697,255.022 232.5,253.5C 233.993,252.859 234.993,251.859 235.5,250.5C 235.5,250.167 235.5,249.833 235.5,249.5C 237.435,248.85 239.435,248.517 241.5,248.5C 247.464,247.879 252.464,245.379 256.5,241C 261.924,239.67 264.591,236.17 264.5,230.5C 261.612,229.99 259.279,230.656 257.5,232.5C 251.804,238.019 245.137,242.019 237.5,244.5C 231.259,246.017 224.926,247.517 218.5,249C 217.944,249.383 217.611,249.883 217.5,250.5C 193.977,253.724 170.311,255.057 146.5,254.5C 146.167,254.5 145.833,254.5 145.5,254.5C 144.22,253.069 142.553,252.402 140.5,252.5C 140.5,251.167 140.5,249.833 140.5,248.5C 147.167,248.5 153.833,248.5 160.5,248.5C 160.833,248.5 161.167,248.5 161.5,248.5C 161.5,248.833 161.5,249.167 161.5,249.5C 164.482,250.165 167.648,250.498 171,250.5C 186.949,249.681 202.782,248.181 218.5,246C 220.431,245.098 222.097,243.931 223.5,242.5C 234.167,241.333 243.334,237 251,229.5C 251.765,227.934 251.598,226.601 250.5,225.5C 246.277,226.611 242.277,228.278 238.5,230.5C 233.501,231.374 229.167,233.374 225.5,236.5C 224.432,237.434 223.099,237.768 221.5,237.5C 217.2,237.755 213.2,238.755 209.5,240.5C 204.381,239.897 199.715,240.564 195.5,242.5C 180.163,242.667 164.83,242.5 149.5,242C 146.81,238.759 145.81,234.925 146.5,230.5C 159.011,230.829 171.345,230.495 183.5,229.5C 195.835,229.121 208.169,228.621 220.5,228C 222.502,226.981 224.502,226.148 226.5,225.5C 231.553,223.652 236.553,221.652 241.5,219.5C 246.224,219.307 249.891,217.307 252.5,213.5C 254.142,211.919 256.142,211.253 258.5,211.5C 260.017,211.489 261.184,210.823 262,209.5C 262.561,206.71 263.894,204.377 266,202.5C 266.667,199.5 266.667,196.5 266,193.5C 264.266,192.751 262.433,192.251 260.5,192C 256.296,188.366 252.962,184.199 250.5,179.5C 249.326,178.486 248.66,177.153 248.5,175.5C 248.082,171.269 247.415,167.102 246.5,163C 246.77,158.758 247.437,154.591 248.5,150.5C 252.993,150.269 257.326,150.936 261.5,152.5 Z"/></g>
<g><path style="opacity:1" fill="#8f9eea" d="M 262.5,148.5 C 266.751,150.425 270.417,153.092 273.5,156.5C 271.983,156.489 270.816,155.823 270,154.5C 270.134,156.189 270.634,157.856 271.5,159.5C 268.405,156.805 265.071,154.472 261.5,152.5C 261.167,151.833 260.833,151.167 260.5,150.5C 261.833,150.5 262.5,149.833 262.5,148.5 Z"/></g>
<g><path style="opacity:1" fill="#8293ed" d="M 273.5,156.5 C 273.833,157.5 274.5,158.167 275.5,158.5C 276.11,159.391 276.443,160.391 276.5,161.5C 276.5,162.833 275.833,163.5 274.5,163.5C 273.5,162.833 272.5,162.167 271.5,161.5C 271.5,160.833 271.5,160.167 271.5,159.5C 270.634,157.856 270.134,156.189 270,154.5C 270.816,155.823 271.983,156.489 273.5,156.5 Z"/></g>
<g><path style="opacity:1" fill="#92a0ea" d="M 257.5,146.5 C 254.753,146.187 252.086,146.52 249.5,147.5C 249.863,148.183 250.196,148.85 250.5,149.5C 249.5,149.5 248.5,149.5 247.5,149.5C 245.262,156.664 244.929,163.998 246.5,171.5C 245.883,171.389 245.383,171.056 245,170.5C 244.774,167.905 244.274,165.405 243.5,163C 244.602,160.599 244.769,158.099 244,155.5C 243.617,156.056 243.117,156.389 242.5,156.5C 242.868,151.917 244.868,148.584 248.5,146.5C 251.5,145.167 254.5,145.167 257.5,146.5 Z"/></g>
<g><path style="opacity:1" fill="#dce1fa" d="M 248.5,146.5 C 244.868,148.584 242.868,151.917 242.5,156.5C 241.383,161.851 241.383,167.518 242.5,173.5C 241.883,173.389 241.383,173.056 241,172.5C 239.9,164.257 240.566,156.257 243,148.5C 244.444,146.845 246.278,146.178 248.5,146.5 Z"/></g>
<g><path style="opacity:1" fill="#d7ddf9" d="M 224.5,160.5 C 225.812,162.696 226.979,165.03 228,167.5C 228.494,169.134 228.66,170.801 228.5,172.5C 226.26,168.902 224.926,164.902 224.5,160.5 Z"/></g>
<g><path style="opacity:1" fill="#8695ed" d="M 246.5,171.5 C 247.167,172.833 247.833,174.167 248.5,175.5C 248.66,177.153 249.326,178.486 250.5,179.5C 251.871,185.542 255.204,190.209 260.5,193.5C 260.833,194.5 261.5,195.167 262.5,195.5C 262.843,197.483 262.176,198.817 260.5,199.5C 254.088,193.748 248.754,187.082 244.5,179.5C 244.405,177.214 243.738,175.214 242.5,173.5C 241.383,167.518 241.383,161.851 242.5,156.5C 243.117,156.389 243.617,156.056 244,155.5C 244.769,158.099 244.602,160.599 243.5,163C 244.274,165.405 244.774,167.905 245,170.5C 245.383,171.056 245.883,171.389 246.5,171.5 Z"/></g>
<g><path style="opacity:1" fill="#dadef4" d="M 271.5,161.5 C 272.5,162.167 273.5,162.833 274.5,163.5C 275.925,166.688 277.592,169.688 279.5,172.5C 278.18,171.058 276.514,170.392 274.5,170.5C 274.66,168.801 274.494,167.134 274,165.5C 272.519,164.529 271.685,163.196 271.5,161.5 Z"/></g>
<g><path style="opacity:1" fill="#dee2f4" d="M 275.5,158.5 C 277.213,159.305 278.879,160.305 280.5,161.5C 282.747,165.235 284.747,169.069 286.5,173C 287.5,173.667 288.5,173.667 289.5,173C 291.805,169.358 295.138,167.858 299.5,168.5C 294.935,171.048 290.602,174.048 286.5,177.5C 284.166,171.49 280.833,166.157 276.5,161.5C 276.443,160.391 276.11,159.391 275.5,158.5 Z"/></g>
<g><path style="opacity:1" fill="#dce0f3" d="M 340.5,191.5 C 340.892,189.821 341.392,188.154 342,186.5C 344.924,183.65 347.091,180.316 348.5,176.5C 349.801,175.116 349.801,173.616 348.5,172C 343.886,170.521 339.22,169.354 334.5,168.5C 322.873,165.842 311.206,165.842 299.5,168.5C 299.611,167.883 299.944,167.383 300.5,167C 316.92,165.19 333.253,165.856 349.5,169C 351.423,178.453 348.423,185.953 340.5,191.5 Z"/></g>
<g><path style="opacity:1" fill="#8a99ed" d="M 334.5,168.5 C 334.918,169.222 335.584,169.722 336.5,170C 327.373,169.643 318.373,170.143 309.5,171.5C 307.585,171.216 305.919,171.549 304.5,172.5C 301.848,172.41 299.515,173.076 297.5,174.5C 295.688,174.771 294.022,175.438 292.5,176.5C 291.965,178.261 290.965,179.594 289.5,180.5C 287.856,180.286 286.356,180.62 285,181.5C 284.7,179.934 285.2,178.601 286.5,177.5C 290.602,174.048 294.935,171.048 299.5,168.5C 311.206,165.842 322.873,165.842 334.5,168.5 Z"/></g>
<g><path style="opacity:1" fill="#97a5ee" d="M 334.5,168.5 C 339.22,169.354 343.886,170.521 348.5,172C 349.801,173.616 349.801,175.116 348.5,176.5C 348.737,175.209 348.404,174.209 347.5,173.5C 346.098,173.264 344.598,172.93 343,172.5C 341.317,173.176 341.15,174.176 342.5,175.5C 340.804,175.315 339.471,174.481 338.5,173C 328.879,171.714 319.212,171.214 309.5,171.5C 318.373,170.143 327.373,169.643 336.5,170C 335.584,169.722 334.918,169.222 334.5,168.5 Z"/></g>
<g><path style="opacity:1" fill="#c6ccf3" d="M 33.5,166.5 C 32.9751,170.533 31.6418,174.2 29.5,177.5C 30.0249,173.467 31.3582,169.8 33.5,166.5 Z"/></g>
<g><path style="opacity:1" fill="#94a2ec" d="M 276.5,161.5 C 280.833,166.157 284.166,171.49 286.5,177.5C 285.2,178.601 284.7,179.934 285,181.5C 286.356,180.62 287.856,180.286 289.5,180.5C 289.167,181.167 288.833,181.833 288.5,182.5C 288.167,182.5 287.833,182.5 287.5,182.5C 286.167,183.833 284.833,183.833 283.5,182.5C 282.167,179.167 280.833,175.833 279.5,172.5C 277.592,169.688 275.925,166.688 274.5,163.5C 275.833,163.5 276.5,162.833 276.5,161.5 Z"/></g>
<g><path style="opacity:1" fill="#768bf4" d="M 347.5,173.5 C 346.989,175.195 346.322,176.861 345.5,178.5C 344.859,177.007 343.859,176.007 342.5,175.5C 341.15,174.176 341.317,173.176 343,172.5C 344.598,172.93 346.098,173.264 347.5,173.5 Z"/></g>
<g><path style="opacity:1" fill="#8797ec" d="M 134.5,99.5 C 136.167,99.5 137.833,99.5 139.5,99.5C 139.833,99.5 140.167,99.5 140.5,99.5C 146.979,101.453 153.645,103.12 160.5,104.5C 163.939,106.204 167.605,107.538 171.5,108.5C 177.082,112.255 183.082,115.255 189.5,117.5C 192.981,120.409 196.648,123.075 200.5,125.5C 202.833,128.5 205.5,131.167 208.5,133.5C 210.098,135.698 211.431,138.031 212.5,140.5C 213.136,142.795 214.469,144.461 216.5,145.5C 218.357,148.417 220.024,151.417 221.5,154.5C 222.203,156.629 223.203,158.629 224.5,160.5C 224.926,164.902 226.26,168.902 228.5,172.5C 230.525,180.87 233.859,188.536 238.5,195.5C 239.348,199.017 241.348,201.684 244.5,203.5C 244.973,204.906 245.973,205.573 247.5,205.5C 249.993,206.774 252.659,207.44 255.5,207.5C 253.708,208.309 251.708,208.809 249.5,209C 250.833,210 250.833,211 249.5,212C 253.014,210.775 256.681,209.608 260.5,208.5C 259.833,209.5 259.167,210.5 258.5,211.5C 256.142,211.253 254.142,211.919 252.5,213.5C 248.849,215.82 245.183,217.82 241.5,219.5C 239.94,219.519 238.44,219.852 237,220.5C 235.317,219.824 235.15,218.824 236.5,217.5C 240.606,215.612 244.606,213.446 248.5,211C 247.09,209.628 245.423,208.795 243.5,208.5C 238.743,204.079 234.743,199.079 231.5,193.5C 228.292,185.87 225.292,178.204 222.5,170.5C 221.222,163.966 218.888,157.966 215.5,152.5C 211.942,144.703 206.942,138.036 200.5,132.5C 198.766,129.8 196.432,127.8 193.5,126.5C 189.158,123.143 184.491,120.143 179.5,117.5C 178.167,117.167 176.833,116.833 175.5,116.5C 174.833,115.833 174.167,115.167 173.5,114.5C 173.586,113.504 173.252,112.671 172.5,112C 170.866,111.506 169.199,111.34 167.5,111.5C 163.5,110.5 159.5,109.5 155.5,108.5C 148.346,106.079 141.012,104.079 133.5,102.5C 142.476,102.874 142.809,101.874 134.5,99.5 Z"/></g>
<g><path style="opacity:1" fill="#e0e3f2" d="M 304.5,172.5 C 305.919,171.549 307.585,171.216 309.5,171.5C 319.212,171.214 328.879,171.714 338.5,173C 339.471,174.481 340.804,175.315 342.5,175.5C 343.472,177.92 342.805,179.92 340.5,181.5C 340.771,179.179 340.104,177.179 338.5,175.5C 334.484,174.23 330.484,174.23 326.5,175.5C 325.614,174.675 325.281,173.675 325.5,172.5C 318.5,172.5 311.5,172.5 304.5,172.5 Z"/></g>
<g><path style="opacity:1" fill="#d8dcf6" d="M 297.5,174.5 C 294.508,177.122 291.508,179.789 288.5,182.5C 288.833,181.833 289.167,181.167 289.5,180.5C 290.965,179.594 291.965,178.261 292.5,176.5C 294.022,175.438 295.688,174.771 297.5,174.5 Z"/></g>
<g><path style="opacity:1" fill="#afb8e8" d="M 283.5,182.5 C 284.833,183.833 286.167,183.833 287.5,182.5C 287.306,184.912 285.973,185.912 283.5,185.5C 283.5,184.5 283.5,183.5 283.5,182.5 Z"/></g>
<g><path style="opacity:1" fill="#dee3fb" d="M 24.5,178.5 C 23.3108,187.319 23.3108,195.986 24.5,204.5C 24.5,205.5 24.5,206.5 24.5,207.5C 23.7784,207.082 23.2784,206.416 23,205.5C 22.3333,196.833 22.3333,188.167 23,179.5C 23.3826,178.944 23.8826,178.611 24.5,178.5 Z"/></g>
<g><path style="opacity:1" fill="#dee1f3" d="M 222.5,170.5 C 225.292,178.204 228.292,185.87 231.5,193.5C 227.349,191.499 225.515,188.166 226,183.5C 222.853,179.794 221.687,175.461 222.5,170.5 Z"/></g>
<g><path style="opacity:1" fill="#dddff2" d="M 244.5,179.5 C 248.754,187.082 254.088,193.748 260.5,199.5C 259.974,201.23 258.974,202.564 257.5,203.5C 258.535,201.795 258.535,200.128 257.5,198.5C 255.162,196.661 252.996,194.661 251,192.5C 250.127,192.735 249.293,193.069 248.5,193.5C 247.752,191.668 246.752,190.001 245.5,188.5C 246.855,187.325 246.688,186.325 245,185.5C 244.505,183.527 244.338,181.527 244.5,179.5 Z"/></g>
<g><path style="opacity:1" fill="#dee0f1" d="M 250.5,179.5 C 252.962,184.199 256.296,188.366 260.5,192C 262.433,192.251 264.266,192.751 266,193.5C 266.667,196.5 266.667,199.5 266,202.5C 263.894,204.377 262.561,206.71 262,209.5C 261.184,210.823 260.017,211.489 258.5,211.5C 259.167,210.5 259.833,209.5 260.5,208.5C 261.131,206.066 262.131,203.732 263.5,201.5C 264.473,199.052 264.806,196.385 264.5,193.5C 263.167,193.5 261.833,193.5 260.5,193.5C 255.204,190.209 251.871,185.542 250.5,179.5 Z"/></g>
<g><path style="opacity:1" fill="#dde1f3" d="M 41.5,193.5 C 43.5598,192.189 45.7265,192.189 48,193.5C 48.4994,199.157 48.6661,204.824 48.5,210.5C 45.8806,210.768 43.3806,210.435 41,209.5C 40.1826,203.984 40.3493,198.65 41.5,193.5 Z"/></g>
<g><path style="opacity:1" fill="#8292e7" d="M 41.5,193.5 C 43.1439,193.286 44.6439,193.62 46,194.5C 46.6667,198.833 46.6667,203.167 46,207.5C 44.6439,208.38 43.1439,208.714 41.5,208.5C 41.5,203.5 41.5,198.5 41.5,193.5 Z"/></g>
<g><path style="opacity:1" fill="#748afa" d="M 42.5,194.5 C 43.7943,196.048 44.4609,198.048 44.5,200.5C 44.1667,202.5 43.8333,204.5 43.5,206.5C 43.2939,202.433 42.9606,198.433 42.5,194.5 Z"/></g>
<g><path style="opacity:1" fill="#c0c7ea" d="M 260.5,193.5 C 261.833,193.5 263.167,193.5 264.5,193.5C 264.806,196.385 264.473,199.052 263.5,201.5C 263.795,199.265 263.461,197.265 262.5,195.5C 261.5,195.167 260.833,194.5 260.5,193.5 Z"/></g>
<g><path style="opacity:1" fill="#cfd5f6" d="M 27.5,183.5 C 27.8333,183.5 28.1667,183.5 28.5,183.5C 28.2689,191.209 28.6022,198.876 29.5,206.5C 29.1667,206.5 28.8333,206.5 28.5,206.5C 27.5343,198.92 27.201,191.253 27.5,183.5 Z"/></g>
<g><path style="opacity:1" fill="#8294ef" d="M 27.5,183.5 C 27.201,191.253 27.5343,198.92 28.5,206.5C 28.8795,209.567 27.8795,210.567 25.5,209.5C 25.6716,208.508 25.3382,207.842 24.5,207.5C 24.5,206.5 24.5,205.5 24.5,204.5C 24.58,197.987 24.7467,191.32 25,184.5C 25.3333,182.833 25.6667,181.167 26,179.5C 27.1882,180.563 27.6882,181.897 27.5,183.5 Z"/></g>
<g><path style="opacity:1" fill="#dee1f3" d="M 231.5,193.5 C 234.743,199.079 238.743,204.079 243.5,208.5C 240.311,207.487 237.477,205.82 235,203.5C 233.614,200.267 232.447,196.934 231.5,193.5 Z"/></g>
<g><path style="opacity:1" fill="#99a6ea" d="M 262.5,195.5 C 263.461,197.265 263.795,199.265 263.5,201.5C 262.131,203.732 261.131,206.066 260.5,208.5C 260.66,206.801 260.494,205.134 260,203.5C 259.184,204.823 258.017,205.489 256.5,205.5C 256.5,205.167 256.5,204.833 256.5,204.5C 257.167,204.5 257.5,204.167 257.5,203.5C 258.974,202.564 259.974,201.23 260.5,199.5C 262.176,198.817 262.843,197.483 262.5,195.5 Z"/></g>
<g><path style="opacity:1" fill="#dce0f4" d="M 238.5,195.5 C 239.583,195.539 240.583,195.873 241.5,196.5C 242.134,198.567 243.134,200.4 244.5,202C 248.305,203.785 252.305,204.618 256.5,204.5C 256.5,204.833 256.5,205.167 256.5,205.5C 255.662,205.842 255.328,206.508 255.5,207.5C 252.659,207.44 249.993,206.774 247.5,205.5C 247.027,204.094 246.027,203.427 244.5,203.5C 241.348,201.684 239.348,199.017 238.5,195.5 Z"/></g>
<g><path style="opacity:1" fill="#dee2f6" d="M 328.5,199.5 C 324.221,202.105 319.721,204.438 315,206.5C 314.014,205.829 312.847,205.829 311.5,206.5C 312.007,205.141 313.007,204.141 314.5,203.5C 319.351,202.737 324.017,201.404 328.5,199.5 Z"/></g>
<g><path style="opacity:1" fill="#8696eb" d="M 347.5,173.5 C 348.404,174.209 348.737,175.209 348.5,176.5C 347.091,180.316 344.924,183.65 342,186.5C 341.392,188.154 340.892,189.821 340.5,191.5C 338.572,194.787 336.572,198.121 334.5,201.5C 330.575,202.579 327.242,204.579 324.5,207.5C 321.273,207.676 318.273,208.343 315.5,209.5C 309.385,211.25 303.052,211.916 296.5,211.5C 298.042,210.837 299.709,210.17 301.5,209.5C 298.801,208.271 296.135,208.271 293.5,209.5C 297.913,207.862 302.579,206.862 307.5,206.5C 308.833,206.5 310.167,206.5 311.5,206.5C 312.847,205.829 314.014,205.829 315,206.5C 319.721,204.438 324.221,202.105 328.5,199.5C 330.716,198.797 332.549,197.464 334,195.5C 335.989,190.7 338.155,186.034 340.5,181.5C 342.805,179.92 343.472,177.92 342.5,175.5C 343.859,176.007 344.859,177.007 345.5,178.5C 346.322,176.861 346.989,175.195 347.5,173.5 Z"/></g>
<g><path style="opacity:1" fill="#dee1f0" d="M 58.5,194.5 C 61.0444,194.104 63.2111,194.771 65,196.5C 65.6667,201.5 65.6667,206.5 65,211.5C 62,212.167 59,212.833 56,213.5C 56.007,210.627 56.507,207.794 57.5,205C 56.1242,201.337 56.4575,197.837 58.5,194.5 Z"/></g>
<g><path style="opacity:1" fill="#7c8ee7" d="M 59.5,198.5 C 59.8333,198.5 60.1667,198.5 60.5,198.5C 61.1667,213.167 61.8333,213.167 62.5,198.5C 63.4834,202.298 63.8168,206.298 63.5,210.5C 62.4324,211.434 61.099,211.768 59.5,211.5C 59.5,207.167 59.5,202.833 59.5,198.5 Z"/></g>
<g><path style="opacity:1" fill="#738afd" d="M 60.5,198.5 C 61.1667,198.5 61.8333,198.5 62.5,198.5C 61.8333,213.167 61.1667,213.167 60.5,198.5 Z"/></g>
<g><path style="opacity:1" fill="#8c9ae0" d="M 63.5,210.5 C 63.8168,206.298 63.4834,202.298 62.5,198.5C 61.8333,198.5 61.1667,198.5 60.5,198.5C 60.1667,198.5 59.8333,198.5 59.5,198.5C 60.4551,196.29 61.9551,195.957 64,197.5C 64.8136,202.02 64.647,206.354 63.5,210.5 Z"/></g>
<g><path style="opacity:1" fill="#acb6ed" d="M 244.5,203.5 C 246.027,203.427 247.027,204.094 247.5,205.5C 245.973,205.573 244.973,204.906 244.5,203.5 Z"/></g>
<g><path style="opacity:1" fill="#dce0f2" d="M 307.5,206.5 C 302.579,206.862 297.913,207.862 293.5,209.5C 292.5,210.167 291.5,210.833 290.5,211.5C 290.244,209.208 290.577,207.041 291.5,205C 296.749,205.804 302.083,206.304 307.5,206.5 Z"/></g>
<g><path style="opacity:1" fill="#d3d9f7" d="M 334.5,201.5 C 331.97,204.793 328.637,206.793 324.5,207.5C 327.242,204.579 330.575,202.579 334.5,201.5 Z"/></g>
<g><path style="opacity:1" fill="#798df7" d="M 260.5,208.5 C 256.681,209.608 253.014,210.775 249.5,212C 250.833,211 250.833,210 249.5,209C 251.708,208.809 253.708,208.309 255.5,207.5C 255.328,206.508 255.662,205.842 256.5,205.5C 258.017,205.489 259.184,204.823 260,203.5C 260.494,205.134 260.66,206.801 260.5,208.5 Z"/></g>
<g><path style="opacity:1" fill="#dce0f7" d="M 142.5,214.5 C 138.861,209.565 134.861,209.231 130.5,213.5C 129.167,213.833 127.833,214.167 126.5,214.5C 129.508,211.302 133.342,209.302 138,208.5C 140.827,209.495 142.327,211.495 142.5,214.5 Z"/></g>
<g><path style="opacity:1" fill="#7b8ff4" d="M 296.5,211.5 C 295.833,212.167 295.167,212.833 294.5,213.5C 293.624,213.631 292.957,213.298 292.5,212.5C 293.127,211.583 293.461,210.583 293.5,209.5C 296.135,208.271 298.801,208.271 301.5,209.5C 299.709,210.17 298.042,210.837 296.5,211.5 Z"/></g>
<g><path style="opacity:1" fill="#91a0ec" d="M 28.5,206.5 C 28.8333,206.5 29.1667,206.5 29.5,206.5C 29.0764,210.002 30.4098,212.335 33.5,213.5C 33.5,214.5 33.5,215.5 33.5,216.5C 32.0413,216.433 30.7079,216.766 29.5,217.5C 29.6716,216.508 29.3382,215.842 28.5,215.5C 26.9925,213.819 25.9925,211.819 25.5,209.5C 27.8795,210.567 28.8795,209.567 28.5,206.5 Z"/></g>
<g><path style="opacity:1" fill="#8596ed" d="M 139.5,218.5 C 138.524,217.185 137.524,215.852 136.5,214.5C 132.981,215.422 129.981,217.088 127.5,219.5C 125.033,219.755 123.033,220.755 121.5,222.5C 120.07,223.537 118.403,224.204 116.5,224.5C 114.62,224.771 113.287,224.104 112.5,222.5C 117.702,220.766 122.368,218.1 126.5,214.5C 127.833,214.167 129.167,213.833 130.5,213.5C 135.126,211.353 138.793,212.353 141.5,216.5C 141.145,217.522 140.478,218.189 139.5,218.5 Z"/></g>
<g><path style="opacity:1" fill="#d0d6f6" d="M 315.5,209.5 C 314.192,210.232 312.858,211.066 311.5,212C 306.833,212.333 302.167,212.667 297.5,213C 294.444,218.271 290.777,223.105 286.5,227.5C 289.651,223.039 292.317,218.372 294.5,213.5C 295.167,212.833 295.833,212.167 296.5,211.5C 303.052,211.916 309.385,211.25 315.5,209.5 Z"/></g>
<g><path style="opacity:1" fill="#dfe3f5" d="M 126.5,214.5 C 122.368,218.1 117.702,220.766 112.5,222.5C 110.236,223.219 107.903,223.552 105.5,223.5C 112.113,219.887 119.113,216.887 126.5,214.5 Z"/></g>
<g><path style="opacity:1" fill="#c9d1f5" d="M 252.5,213.5 C 249.891,217.307 246.224,219.307 241.5,219.5C 245.183,217.82 248.849,215.82 252.5,213.5 Z"/></g>
<g><path style="opacity:1" fill="#e5e5e6" d="M 138.5,240.5 C 138.5,241.167 138.5,241.833 138.5,242.5C 137.974,244.23 136.974,245.564 135.5,246.5C 132.091,248.037 128.424,248.704 124.5,248.5C 118.549,247.603 112.549,246.603 106.5,245.5C 103.772,239.935 99.7723,235.435 94.5,232C 99.6891,230.879 105.022,230.045 110.5,229.5C 112.184,228.85 113.517,227.85 114.5,226.5C 115.167,225.833 115.833,225.167 116.5,224.5C 118.403,224.204 120.07,223.537 121.5,222.5C 123.967,222.245 125.967,221.245 127.5,219.5C 128.873,219.657 130.207,219.49 131.5,219C 133.516,215.985 135.683,215.818 138,218.5C 138.5,225.826 138.666,233.159 138.5,240.5 Z"/></g>
<g><path style="opacity:1" fill="#b2bbf1" d="M 28.5,215.5 C 29.3382,215.842 29.6716,216.508 29.5,217.5C 28.3995,218.605 27.7329,219.938 27.5,221.5C 26.9033,221.265 26.5699,220.765 26.5,220C 27.4138,218.594 28.0805,217.094 28.5,215.5 Z"/></g>
<g><path style="opacity:1" fill="#a3aeed" d="M 236.5,217.5 C 235.15,218.824 235.317,219.824 237,220.5C 238.44,219.852 239.94,219.519 241.5,219.5C 236.553,221.652 231.553,223.652 226.5,225.5C 224.167,225.5 221.833,225.5 219.5,225.5C 224.8,224.749 229.8,222.915 234.5,220C 233.552,219.517 232.552,219.351 231.5,219.5C 232.93,218.463 234.597,217.796 236.5,217.5 Z"/></g>
<g><path style="opacity:1" fill="#909ee7" d="M 142.5,214.5 C 142.12,216.698 142.787,218.365 144.5,219.5C 144.365,221.554 145.032,223.221 146.5,224.5C 145.5,224.5 144.5,224.5 143.5,224.5C 143.769,222.571 143.269,220.905 142,219.5C 141.223,222.429 141.39,225.263 142.5,228C 141.872,230.939 141.205,233.772 140.5,236.5C 140.64,230.464 140.307,224.464 139.5,218.5C 140.478,218.189 141.145,217.522 141.5,216.5C 138.793,212.353 135.126,211.353 130.5,213.5C 134.861,209.231 138.861,209.565 142.5,214.5 Z"/></g>
<g><path style="opacity:1" fill="#b6bfee" d="M 127.5,219.5 C 125.967,221.245 123.967,222.245 121.5,222.5C 123.033,220.755 125.033,219.755 127.5,219.5 Z"/></g>
<g><path style="opacity:1" fill="#dde2f9" d="M 221.5,220.5 C 213.188,221.979 204.854,223.312 196.5,224.5C 190.833,224.5 185.167,224.5 179.5,224.5C 179.918,223.778 180.584,223.278 181.5,223C 194.925,222.618 208.259,221.785 221.5,220.5 Z"/></g>
<g><path style="opacity:1" fill="#dce0f6" d="M 33.5,213.5 C 35.0481,213.821 35.7148,214.821 35.5,216.5C 37.1992,216.34 38.8659,216.506 40.5,217C 41.67,218.755 43.3367,219.755 45.5,220C 53.5759,220.949 61.5759,222.282 69.5,224C 81.5218,224.725 93.5218,224.558 105.5,223.5C 105.5,223.833 105.5,224.167 105.5,224.5C 97.3464,225.036 89.3464,225.703 81.5,226.5C 81.1667,226.5 80.8333,226.5 80.5,226.5C 66.0979,225.183 51.7646,222.683 37.5,219C 36.3066,217.905 34.9733,217.072 33.5,216.5C 33.5,215.5 33.5,214.5 33.5,213.5 Z"/></g>
<g><path style="opacity:1" fill="#dbe0f7" d="M 139.5,218.5 C 140.307,224.464 140.64,230.464 140.5,236.5C 140.5,236.833 140.5,237.167 140.5,237.5C 139.833,238.5 139.167,239.5 138.5,240.5C 138.666,233.159 138.5,225.826 138,218.5C 135.683,215.818 133.516,215.985 131.5,219C 130.207,219.49 128.873,219.657 127.5,219.5C 129.981,217.088 132.981,215.422 136.5,214.5C 137.524,215.852 138.524,217.185 139.5,218.5 Z"/></g>
<g><path style="opacity:1" fill="#8596ec" d="M 231.5,219.5 C 232.552,219.351 233.552,219.517 234.5,220C 229.8,222.915 224.8,224.749 219.5,225.5C 212.139,225.956 204.806,226.622 197.5,227.5C 192.725,227.33 192.392,226.33 196.5,224.5C 204.854,223.312 213.188,221.979 221.5,220.5C 224.833,220.167 228.167,219.833 231.5,219.5 Z"/></g>
<g><path style="opacity:1" fill="#e4e5e9" d="M 78.5,230.5 C 82.227,230.495 85.227,231.829 87.5,234.5C 92.0068,239.512 90.6735,241.512 83.5,240.5C 78.0019,240.048 72.6686,239.381 67.5,238.5C 60.6386,234.695 53.3052,232.862 45.5,233C 44.0652,235.267 44.3985,237.267 46.5,239C 48.74,239.977 51.0733,240.477 53.5,240.5C 57.6643,240.956 61.6643,241.622 65.5,242.5C 71.9802,243.888 78.6468,244.888 85.5,245.5C 87.6074,246.468 89.9407,246.802 92.5,246.5C 92.5,245.167 92.5,243.833 92.5,242.5C 94.5138,242.392 96.1805,243.058 97.5,244.5C 100.319,246.419 102.986,248.585 105.5,251C 108.445,252.131 111.445,252.964 114.5,253.5C 119.103,255.328 123.769,255.661 128.5,254.5C 129.167,254.5 129.833,254.5 130.5,254.5C 131.5,254.5 132.5,254.5 133.5,254.5C 134.5,254.5 135.5,254.5 136.5,254.5C 136.215,256.288 136.548,257.955 137.5,259.5C 141.303,260.008 144.97,260.842 148.5,262C 146.5,262.167 144.5,262.333 142.5,262.5C 124.778,259.577 106.778,257.577 88.5,256.5C 86.5,256.5 84.5,256.5 82.5,256.5C 72.0328,254.077 61.6994,251.41 51.5,248.5C 48.2009,246.85 44.8675,245.184 41.5,243.5C 39.1394,241.806 37.1394,239.806 35.5,237.5C 35.1667,236.167 34.8333,234.833 34.5,233.5C 34.5,230.5 34.5,227.5 34.5,224.5C 48.8501,228.295 63.5168,230.295 78.5,230.5 Z"/></g>
<g><path style="opacity:1" fill="#dbdff4" d="M 32.5,220.5 C 35.8004,222.642 39.467,223.975 43.5,224.5C 48.6338,225.709 53.6338,226.709 58.5,227.5C 64.2614,229.057 70.2614,229.724 76.5,229.5C 77.4916,229.328 78.1583,229.662 78.5,230.5C 63.5168,230.295 48.8501,228.295 34.5,224.5C 34.5,227.5 34.5,230.5 34.5,233.5C 34.1667,233.5 33.8333,233.5 33.5,233.5C 33.8294,230.772 33.1628,228.438 31.5,226.5C 31.2053,224.265 31.5386,222.265 32.5,220.5 Z"/></g>
<g><path style="opacity:1" fill="#dee3fa" d="M 144.5,219.5 C 145.404,220.209 145.737,221.209 145.5,222.5C 155.977,224.308 166.644,224.975 177.5,224.5C 177.5,224.833 177.5,225.167 177.5,225.5C 169.316,225.174 161.316,225.508 153.5,226.5C 151.299,225.434 148.965,224.767 146.5,224.5C 145.032,223.221 144.365,221.554 144.5,219.5 Z"/></g>
<g><path style="opacity:1" fill="#94a1e1" d="M 177.5,225.5 C 177.5,225.167 177.5,224.833 177.5,224.5C 178.167,224.5 178.833,224.5 179.5,224.5C 185.167,224.5 190.833,224.5 196.5,224.5C 192.392,226.33 192.725,227.33 197.5,227.5C 193.03,228.486 188.363,228.819 183.5,228.5C 186.5,227.907 189.5,227.074 192.5,226C 187.112,226.043 182.112,225.876 177.5,225.5 Z"/></g>
<g><path style="opacity:1" fill="#dbe1fb" d="M 284.5,221.5 C 283.155,223.697 281.989,226.03 281,228.5C 279.961,229.71 278.794,230.71 277.5,231.5C 278.845,229.303 280.011,226.97 281,224.5C 282.039,223.29 283.206,222.29 284.5,221.5 Z"/></g>
<g><path style="opacity:1" fill="#7d90f1" d="M 146.5,224.5 C 148.965,224.767 151.299,225.434 153.5,226.5C 161.528,226.169 169.528,226.502 177.5,227.5C 167.522,228.499 157.522,228.832 147.5,228.5C 145.847,228.66 144.514,229.326 143.5,230.5C 143.938,233.893 143.105,236.893 141,239.5C 140.536,238.906 140.369,238.239 140.5,237.5C 140.5,237.167 140.5,236.833 140.5,236.5C 141.205,233.772 141.872,230.939 142.5,228C 141.39,225.263 141.223,222.429 142,219.5C 143.269,220.905 143.769,222.571 143.5,224.5C 144.5,224.5 145.5,224.5 146.5,224.5 Z"/></g>
<g><path style="opacity:1" fill="#8a99eb" d="M 153.5,226.5 C 161.316,225.508 169.316,225.174 177.5,225.5C 182.112,225.876 187.112,226.043 192.5,226C 189.5,227.074 186.5,227.907 183.5,228.5C 183.5,228.833 183.5,229.167 183.5,229.5C 171.322,229.828 159.322,229.495 147.5,228.5C 157.522,228.832 167.522,228.499 177.5,227.5C 169.528,226.502 161.528,226.169 153.5,226.5 Z"/></g>
<g><path style="opacity:1" fill="#95a2e9" d="M 112.5,222.5 C 113.287,224.104 114.62,224.771 116.5,224.5C 115.833,225.167 115.167,225.833 114.5,226.5C 110.206,227.352 105.873,228.018 101.5,228.5C 104.614,227.044 107.948,225.878 111.5,225C 109.527,224.505 107.527,224.338 105.5,224.5C 105.5,224.167 105.5,223.833 105.5,223.5C 107.903,223.552 110.236,223.219 112.5,222.5 Z"/></g>
<g><path style="opacity:1" fill="#d8dcf2" d="M 219.5,225.5 C 221.833,225.5 224.167,225.5 226.5,225.5C 224.502,226.148 222.502,226.981 220.5,228C 208.169,228.621 195.835,229.121 183.5,229.5C 183.5,229.167 183.5,228.833 183.5,228.5C 188.363,228.819 193.03,228.486 197.5,227.5C 204.806,226.622 212.139,225.956 219.5,225.5 Z"/></g>
<g><path style="opacity:1" fill="#dce0f3" d="M 114.5,226.5 C 113.517,227.85 112.184,228.85 110.5,229.5C 105.022,230.045 99.6891,230.879 94.5,232C 99.7723,235.435 103.772,239.935 106.5,245.5C 104.596,245.262 103.262,244.262 102.5,242.5C 101.5,240.833 100.167,239.5 98.5,238.5C 96.2181,235.878 93.8848,233.212 91.5,230.5C 94.8663,229.76 98.1996,229.093 101.5,228.5C 105.873,228.018 110.206,227.352 114.5,226.5 Z"/></g>
<g><path style="opacity:1" fill="#dadffa" d="M 238.5,230.5 C 234.595,233.284 230.262,235.284 225.5,236.5C 229.167,233.374 233.501,231.374 238.5,230.5 Z"/></g>
<g><path style="opacity:1" fill="#8797eb" d="M 250.5,225.5 C 250.67,226.822 250.337,227.989 249.5,229C 245.747,231.203 242.08,233.369 238.5,235.5C 235.759,235.707 233.426,236.707 231.5,238.5C 229.698,239.458 227.698,240.125 225.5,240.5C 222.834,240.933 220.168,241.433 217.5,242C 216.944,242.383 216.611,242.883 216.5,243.5C 207.646,245.783 198.646,247.116 189.5,247.5C 186.71,247.249 183.71,247.249 180.5,247.5C 181.398,246.842 182.398,246.176 183.5,245.5C 183.376,244.893 183.043,244.56 182.5,244.5C 186.833,243.833 191.167,243.167 195.5,242.5C 200.453,242.877 205.119,242.211 209.5,240.5C 213.188,240.219 216.855,239.719 220.5,239C 221.056,238.617 221.389,238.117 221.5,237.5C 223.099,237.768 224.432,237.434 225.5,236.5C 230.262,235.284 234.595,233.284 238.5,230.5C 242.277,228.278 246.277,226.611 250.5,225.5 Z"/></g>
<g><path style="opacity:1" fill="#dfe2f1" d="M 67.5,238.5 C 60.4867,237.16 53.4867,235.827 46.5,234.5C 46.5,235.5 46.5,236.5 46.5,237.5C 49.0631,238.088 51.3964,239.088 53.5,240.5C 51.0733,240.477 48.74,239.977 46.5,239C 44.3985,237.267 44.0652,235.267 45.5,233C 53.3052,232.862 60.6386,234.695 67.5,238.5 Z"/></g>
<g><path style="opacity:1" fill="#a8b3ee" d="M 33.5,233.5 C 33.8333,233.5 34.1667,233.5 34.5,233.5C 34.8333,234.833 35.1667,236.167 35.5,237.5C 33.8958,236.713 33.2291,235.38 33.5,233.5 Z"/></g>
<g><path style="opacity:1" fill="#94a2e8" d="M 27.5,221.5 C 28.2891,221.783 28.9558,222.283 29.5,223C 29.1727,225.685 29.1727,228.518 29.5,231.5C 30.675,231.719 31.675,231.386 32.5,230.5C 31.7542,229.264 31.4208,227.93 31.5,226.5C 33.1628,228.438 33.8294,230.772 33.5,233.5C 32.2334,232.913 31.2334,232.913 30.5,233.5C 31.7472,235.323 32.4139,237.323 32.5,239.5C 29.1418,234.089 27.4751,228.089 27.5,221.5 Z"/></g>
<g><path style="opacity:1" fill="#acb5ea" d="M 238.5,235.5 C 236.574,237.293 234.241,238.293 231.5,238.5C 233.426,236.707 235.759,235.707 238.5,235.5 Z"/></g>
<g><path style="opacity:1" fill="#dee1f1" d="M 286.5,227.5 C 285.232,231.158 283.899,234.824 282.5,238.5C 280.297,238.604 278.297,239.27 276.5,240.5C 276.5,240.167 276.5,239.833 276.5,239.5C 280.18,235.817 283.514,231.817 286.5,227.5 Z"/></g>
<g><path style="opacity:1" fill="#8697ed" d="M 33.5,216.5 C 34.9733,217.072 36.3066,217.905 37.5,219C 51.7646,222.683 66.0979,225.183 80.5,226.5C 79.325,226.281 78.325,226.614 77.5,227.5C 81.2745,228.647 84.7745,230.314 88,232.5C 88.2492,231.376 88.7492,230.376 89.5,229.5C 92.161,228.668 94.8276,227.834 97.5,227C 92.1771,226.501 86.8437,226.334 81.5,226.5C 89.3464,225.703 97.3464,225.036 105.5,224.5C 107.527,224.338 109.527,224.505 111.5,225C 107.948,225.878 104.614,227.044 101.5,228.5C 98.1996,229.093 94.8663,229.76 91.5,230.5C 93.8848,233.212 96.2181,235.878 98.5,238.5C 98.4877,241.142 99.821,242.475 102.5,242.5C 103.262,244.262 104.596,245.262 106.5,245.5C 109.197,247.441 112.197,248.941 115.5,250C 120.833,250.667 126.167,250.667 131.5,250C 133.324,249.34 134.657,248.173 135.5,246.5C 136.974,245.564 137.974,244.23 138.5,242.5C 139.824,241.15 140.824,241.317 141.5,243C 139.822,244.875 138.822,247.042 138.5,249.5C 137.5,249.833 136.833,250.5 136.5,251.5C 134.03,251.654 132.03,252.654 130.5,254.5C 129.833,254.5 129.167,254.5 128.5,254.5C 123.833,254.167 119.167,253.833 114.5,253.5C 111.445,252.964 108.445,252.131 105.5,251C 102.986,248.585 100.319,246.419 97.5,244.5C 95.139,240.139 91.8057,236.806 87.5,234.5C 85.227,231.829 82.227,230.495 78.5,230.5C 78.1583,229.662 77.4916,229.328 76.5,229.5C 76.2172,228.711 75.7172,228.044 75,227.5C 69.5863,228.075 64.0863,228.075 58.5,227.5C 53.6338,226.709 48.6338,225.709 43.5,224.5C 40.5551,222.562 37.3884,220.895 34,219.5C 33.6174,220.056 33.1174,220.389 32.5,220.5C 31.5386,222.265 31.2053,224.265 31.5,226.5C 31.4208,227.93 31.7542,229.264 32.5,230.5C 31.675,231.386 30.675,231.719 29.5,231.5C 29.1727,228.518 29.1727,225.685 29.5,223C 28.9558,222.283 28.2891,221.783 27.5,221.5C 27.7329,219.938 28.3995,218.605 29.5,217.5C 30.7079,216.766 32.0413,216.433 33.5,216.5 Z"/></g>
<g><path style="opacity:1" fill="#a2afeb" d="M 58.5,227.5 C 64.0863,228.075 69.5863,228.075 75,227.5C 75.7172,228.044 76.2172,228.711 76.5,229.5C 70.2614,229.724 64.2614,229.057 58.5,227.5 Z"/></g>
<g><path style="opacity:1" fill="#798df2" d="M 80.5,226.5 C 80.8333,226.5 81.1667,226.5 81.5,226.5C 86.8437,226.334 92.1771,226.501 97.5,227C 94.8276,227.834 92.161,228.668 89.5,229.5C 88.7492,230.376 88.2492,231.376 88,232.5C 84.7745,230.314 81.2745,228.647 77.5,227.5C 78.325,226.614 79.325,226.281 80.5,226.5 Z"/></g>
<g><path style="opacity:1" fill="#8f9de9" d="M 43.5,224.5 C 39.467,223.975 35.8004,222.642 32.5,220.5C 33.1174,220.389 33.6174,220.056 34,219.5C 37.3884,220.895 40.5551,222.562 43.5,224.5 Z"/></g>
<g><path style="opacity:1" fill="#dde0f0" d="M 250.5,225.5 C 251.598,226.601 251.765,227.934 251,229.5C 243.334,237 234.167,241.333 223.5,242.5C 224.167,241.833 224.833,241.167 225.5,240.5C 227.698,240.125 229.698,239.458 231.5,238.5C 234.241,238.293 236.574,237.293 238.5,235.5C 242.08,233.369 245.747,231.203 249.5,229C 250.337,227.989 250.67,226.822 250.5,225.5 Z"/></g>
<g><path style="opacity:1" fill="#dfe1ef" d="M 241.5,248.5 C 244.851,246.227 248.518,244.393 252.5,243C 253.381,242.292 254.047,241.458 254.5,240.5C 256.791,239.049 258.957,237.382 261,235.5C 261.706,232.031 260.539,231.031 257.5,232.5C 259.279,230.656 261.612,229.99 264.5,230.5C 264.591,236.17 261.924,239.67 256.5,241C 252.464,245.379 247.464,247.879 241.5,248.5 Z"/></g>
<g><path style="opacity:1" fill="#dddfef" d="M 87.5,234.5 C 91.8057,236.806 95.139,240.139 97.5,244.5C 96.1805,243.058 94.5138,242.392 92.5,242.5C 92.5,243.833 92.5,245.167 92.5,246.5C 89.9407,246.802 87.6074,246.468 85.5,245.5C 86.9221,245.25 87.9221,244.417 88.5,243C 86.8251,242.015 85.1585,241.181 83.5,240.5C 90.6735,241.512 92.0068,239.512 87.5,234.5 Z"/></g>
<g><path style="opacity:1" fill="#d8dffa" d="M 221.5,237.5 C 221.389,238.117 221.056,238.617 220.5,239C 216.855,239.719 213.188,240.219 209.5,240.5C 213.2,238.755 217.2,237.755 221.5,237.5 Z"/></g>
<g><path style="opacity:1" fill="#acb8ef" d="M 98.5,238.5 C 100.167,239.5 101.5,240.833 102.5,242.5C 99.821,242.475 98.4877,241.142 98.5,238.5 Z"/></g>
<g><path style="opacity:1" fill="#97a4e9" d="M 67.5,238.5 C 72.6686,239.381 78.0019,240.048 83.5,240.5C 85.1585,241.181 86.8251,242.015 88.5,243C 87.9221,244.417 86.9221,245.25 85.5,245.5C 85.3893,244.883 85.056,244.383 84.5,244C 78.1941,243.103 71.8608,242.603 65.5,242.5C 61.6643,241.622 57.6643,240.956 53.5,240.5C 51.3964,239.088 49.0631,238.088 46.5,237.5C 46.5,236.5 46.5,235.5 46.5,234.5C 53.4867,235.827 60.4867,237.16 67.5,238.5 Z"/></g>
<g><path style="opacity:1" fill="#dde2fb" d="M 209.5,240.5 C 205.119,242.211 200.453,242.877 195.5,242.5C 199.715,240.564 204.381,239.897 209.5,240.5 Z"/></g>
<g><path style="opacity:1" fill="#a2aeeb" d="M 225.5,240.5 C 224.833,241.167 224.167,241.833 223.5,242.5C 221.194,242.993 218.861,243.326 216.5,243.5C 216.611,242.883 216.944,242.383 217.5,242C 220.168,241.433 222.834,240.933 225.5,240.5 Z"/></g>
<g><path style="opacity:1" fill="#8192ec" d="M 33.5,233.5 C 33.2291,235.38 33.8958,236.713 35.5,237.5C 37.1394,239.806 39.1394,241.806 41.5,243.5C 41.4142,244.496 41.7476,245.329 42.5,246C 42,246.167 41.5,246.333 41,246.5C 39.5936,245.586 38.0936,244.92 36.5,244.5C 34.457,243.421 33.1237,241.754 32.5,239.5C 32.4139,237.323 31.7472,235.323 30.5,233.5C 31.2334,232.913 32.2334,232.913 33.5,233.5 Z"/></g>
<g><path style="opacity:1" fill="#dde1f6" d="M 147.5,228.5 C 159.322,229.495 171.322,229.828 183.5,229.5C 171.345,230.495 159.011,230.829 146.5,230.5C 145.81,234.925 146.81,238.759 149.5,242C 164.83,242.5 180.163,242.667 195.5,242.5C 191.167,243.167 186.833,243.833 182.5,244.5C 169.495,244.318 156.495,243.985 143.5,243.5C 144.311,238.994 144.311,234.66 143.5,230.5C 144.514,229.326 145.847,228.66 147.5,228.5 Z"/></g>
<g><path style="opacity:1" fill="#aab5ef" d="M 276.5,239.5 C 276.5,239.833 276.5,240.167 276.5,240.5C 275.078,241.925 273.411,242.925 271.5,243.5C 272.585,241.413 274.251,240.08 276.5,239.5 Z"/></g>
<g><path style="opacity:1" fill="#b4bdee" d="M 65.5,242.5 C 71.8608,242.603 78.1941,243.103 84.5,244C 85.056,244.383 85.3893,244.883 85.5,245.5C 78.6468,244.888 71.9802,243.888 65.5,242.5 Z"/></g>
<g><path style="opacity:1" fill="#8897eb" d="M 254.5,240.5 C 250.613,242.296 246.613,243.796 242.5,245C 240.007,246.419 237.674,247.919 235.5,249.5C 235.5,249.833 235.5,250.167 235.5,250.5C 231.114,250.966 227.114,252.299 223.5,254.5C 217.109,255.176 210.775,256.176 204.5,257.5C 203.914,257.291 203.414,256.957 203,256.5C 201.052,257.109 199.218,257.776 197.5,258.5C 190.641,259.02 183.974,259.354 177.5,259.5C 172.041,259.897 166.708,259.397 161.5,258C 165.838,256.894 170.171,256.061 174.5,255.5C 180.093,255.193 185.593,255.527 191,256.5C 191.5,256 192,255.5 192.5,255C 201.104,254.245 209.437,252.745 217.5,250.5C 224.943,250.61 231.609,248.61 237.5,244.5C 245.137,242.019 251.804,238.019 257.5,232.5C 260.539,231.031 261.706,232.031 261,235.5C 258.957,237.382 256.791,239.049 254.5,240.5 Z"/></g>
<g><path style="opacity:1" fill="#99a6ec" d="M 41.5,243.5 C 44.8675,245.184 48.2009,246.85 51.5,248.5C 50.2438,248.461 49.2438,248.961 48.5,250C 50.3197,250.2 51.653,251.034 52.5,252.5C 46.2684,251.384 40.9351,248.718 36.5,244.5C 38.0936,244.92 39.5936,245.586 41,246.5C 41.5,246.333 42,246.167 42.5,246C 41.7476,245.329 41.4142,244.496 41.5,243.5 Z"/></g>
<g><path style="opacity:1" fill="#96a4ef" d="M 143.5,230.5 C 144.311,234.66 144.311,238.994 143.5,243.5C 142.308,244.566 142.641,245.399 144.5,246C 148.688,246.176 152.688,246.676 156.5,247.5C 151.615,247.752 146.781,247.419 142,246.5C 140.97,246.836 140.47,247.503 140.5,248.5C 139.833,248.833 139.167,249.167 138.5,249.5C 138.822,247.042 139.822,244.875 141.5,243C 140.824,241.317 139.824,241.15 138.5,242.5C 138.5,241.833 138.5,241.167 138.5,240.5C 139.167,239.5 139.833,238.5 140.5,237.5C 140.369,238.239 140.536,238.906 141,239.5C 143.105,236.893 143.938,233.893 143.5,230.5 Z"/></g>
<g><path style="opacity:1" fill="#dfe2f2" d="M 223.5,242.5 C 222.097,243.931 220.431,245.098 218.5,246C 202.782,248.181 186.949,249.681 171,250.5C 167.648,250.498 164.482,250.165 161.5,249.5C 171.046,249.725 180.379,249.058 189.5,247.5C 198.646,247.116 207.646,245.783 216.5,243.5C 218.861,243.326 221.194,242.993 223.5,242.5 Z"/></g>
<g><path style="opacity:1" fill="#8696eb" d="M 143.5,243.5 C 156.495,243.985 169.495,244.318 182.5,244.5C 183.043,244.56 183.376,244.893 183.5,245.5C 182.398,246.176 181.398,246.842 180.5,247.5C 174.211,248.372 167.878,248.705 161.5,248.5C 161.167,248.5 160.833,248.5 160.5,248.5C 159.432,247.566 158.099,247.232 156.5,247.5C 152.688,246.676 148.688,246.176 144.5,246C 142.641,245.399 142.308,244.566 143.5,243.5 Z"/></g>
<g><path style="opacity:1" fill="#dfe3f5" d="M 106.5,245.5 C 112.549,246.603 118.549,247.603 124.5,248.5C 128.424,248.704 132.091,248.037 135.5,246.5C 134.657,248.173 133.324,249.34 131.5,250C 126.167,250.667 120.833,250.667 115.5,250C 112.197,248.941 109.197,247.441 106.5,245.5 Z"/></g>
<g><path style="opacity:1" fill="#a3aeec" d="M 254.5,240.5 C 254.047,241.458 253.381,242.292 252.5,243C 248.518,244.393 244.851,246.227 241.5,248.5C 239.435,248.517 237.435,248.85 235.5,249.5C 237.674,247.919 240.007,246.419 242.5,245C 246.613,243.796 250.613,242.296 254.5,240.5 Z"/></g>
<g><path style="opacity:1" fill="#d4d9f5" d="M 156.5,247.5 C 158.099,247.232 159.432,247.566 160.5,248.5C 153.833,248.5 147.167,248.5 140.5,248.5C 140.47,247.503 140.97,246.836 142,246.5C 146.781,247.419 151.615,247.752 156.5,247.5 Z"/></g>
<g><path style="opacity:1" fill="#c5cdf6" d="M 189.5,247.5 C 180.379,249.058 171.046,249.725 161.5,249.5C 161.5,249.167 161.5,248.833 161.5,248.5C 167.878,248.705 174.211,248.372 180.5,247.5C 183.71,247.249 186.71,247.249 189.5,247.5 Z"/></g>
<g><path style="opacity:1" fill="#dadff7" d="M 237.5,244.5 C 231.609,248.61 224.943,250.61 217.5,250.5C 217.611,249.883 217.944,249.383 218.5,249C 224.926,247.517 231.259,246.017 237.5,244.5 Z"/></g>
<g><path style="opacity:1" fill="#b1baf0" d="M 266.5,247.5 C 265.71,248.401 264.71,249.068 263.5,249.5C 263.821,247.952 264.821,247.285 266.5,247.5 Z"/></g>
<g><path style="opacity:1" fill="#8092ed" d="M 51.5,248.5 C 61.6994,251.41 72.0328,254.077 82.5,256.5C 83.6085,257.29 84.9419,257.79 86.5,258C 87.7383,258.69 87.7383,259.19 86.5,259.5C 81.5,258.833 76.5,258.167 71.5,257.5C 70.1667,257.5 68.8333,257.5 67.5,257.5C 67.3893,256.883 67.056,256.383 66.5,256C 61.7968,254.824 57.1301,253.658 52.5,252.5C 51.653,251.034 50.3197,250.2 48.5,250C 49.2438,248.961 50.2438,248.461 51.5,248.5 Z"/></g>
<g><path style="opacity:1" fill="#a4afe8" d="M 136.5,251.5 C 135.306,252.272 134.306,253.272 133.5,254.5C 132.5,254.5 131.5,254.5 130.5,254.5C 132.03,252.654 134.03,251.654 136.5,251.5 Z"/></g>
<g><path style="opacity:1" fill="#dde2f7" d="M 252.5,249.5 C 243.815,254.015 234.481,257.015 224.5,258.5C 226.667,257.359 229,256.359 231.5,255.5C 228.914,254.52 226.247,254.187 223.5,254.5C 227.114,252.299 231.114,250.966 235.5,250.5C 234.993,251.859 233.993,252.859 232.5,253.5C 236.697,255.022 240.364,254.189 243.5,251C 246.544,250.637 249.544,250.137 252.5,249.5 Z"/></g>
<g><path style="opacity:1" fill="#a6b1ed" d="M 114.5,253.5 C 119.167,253.833 123.833,254.167 128.5,254.5C 123.769,255.661 119.103,255.328 114.5,253.5 Z"/></g>
<g><path style="opacity:1" fill="#dde2f9" d="M 217.5,250.5 C 209.437,252.745 201.104,254.245 192.5,255C 192,255.5 191.5,256 191,256.5C 185.593,255.527 180.093,255.193 174.5,255.5C 169.833,255.5 165.167,255.5 160.5,255.5C 155.833,255.5 151.167,255.5 146.5,255.5C 146.5,255.167 146.5,254.833 146.5,254.5C 170.311,255.057 193.977,253.724 217.5,250.5 Z"/></g>
<g><path style="opacity:1" fill="#e5e5e8" d="M 223.5,254.5 C 226.247,254.187 228.914,254.52 231.5,255.5C 229,256.359 226.667,257.359 224.5,258.5C 222.396,258.799 220.396,258.466 218.5,257.5C 220.544,256.935 222.21,255.935 223.5,254.5 Z"/></g>
<g><path style="opacity:1" fill="#aeb8f0" d="M 52.5,252.5 C 57.1301,253.658 61.7968,254.824 66.5,256C 67.056,256.383 67.3893,256.883 67.5,257.5C 61.9547,257.2 56.9547,255.533 52.5,252.5 Z"/></g>
<g><path style="opacity:1" fill="#dee1f4" d="M 223.5,254.5 C 222.21,255.935 220.544,256.935 218.5,257.5C 220.396,258.466 222.396,258.799 224.5,258.5C 218.373,260.277 212.04,261.611 205.5,262.5C 202.833,262.5 200.167,262.5 197.5,262.5C 202.1,260.869 207.1,259.869 212.5,259.5C 207.544,258.506 202.544,258.173 197.5,258.5C 199.218,257.776 201.052,257.109 203,256.5C 203.414,256.957 203.914,257.291 204.5,257.5C 210.775,256.176 217.109,255.176 223.5,254.5 Z"/></g>
<g><path style="opacity:1" fill="#dde0f0" d="M 253.5,254.5 C 253.063,256.074 252.063,257.241 250.5,258C 239.544,262.092 228.211,264.592 216.5,265.5C 223.628,264.214 230.628,262.214 237.5,259.5C 241.651,259.901 244.985,258.567 247.5,255.5C 249.565,255.483 251.565,255.15 253.5,254.5 Z"/></g>
<g><path style="opacity:1" fill="#8f9de7" d="M 82.5,256.5 C 84.5,256.5 86.5,256.5 88.5,256.5C 91.9311,257.135 95.2644,258.135 98.5,259.5C 95.9339,259.656 93.4339,259.322 91,258.5C 89.3164,258.683 89.1498,259.35 90.5,260.5C 88.901,260.768 87.5676,260.434 86.5,259.5C 87.7383,259.19 87.7383,258.69 86.5,258C 84.9419,257.79 83.6085,257.29 82.5,256.5 Z"/></g>
<g><path style="opacity:1" fill="#a8b2ea" d="M 145.5,254.5 C 145.833,254.5 146.167,254.5 146.5,254.5C 146.5,254.833 146.5,255.167 146.5,255.5C 144.076,255.192 141.743,255.526 139.5,256.5C 141.484,257.706 143.484,257.706 145.5,256.5C 146.463,256.97 146.463,257.637 145.5,258.5C 143.143,258.663 140.81,258.497 138.5,258C 137.167,257 137.167,256 138.5,255C 140.81,254.503 143.143,254.337 145.5,254.5 Z"/></g>
<g><path style="opacity:1" fill="#8898ed" d="M 146.5,255.5 C 151.167,255.5 155.833,255.5 160.5,255.5C 160.5,256.5 160.5,257.5 160.5,258.5C 155.5,258.5 150.5,258.5 145.5,258.5C 146.463,257.637 146.463,256.97 145.5,256.5C 143.484,257.706 141.484,257.706 139.5,256.5C 141.743,255.526 144.076,255.192 146.5,255.5 Z"/></g>
<g><path style="opacity:1" fill="#acb7f1" d="M 160.5,255.5 C 165.167,255.5 169.833,255.5 174.5,255.5C 170.171,256.061 165.838,256.894 161.5,258C 166.708,259.397 172.041,259.897 177.5,259.5C 175.022,260.164 172.355,260.497 169.5,260.5C 161.32,260.159 153.32,259.492 145.5,258.5C 150.5,258.5 155.5,258.5 160.5,258.5C 160.5,257.5 160.5,256.5 160.5,255.5 Z"/></g>
<g><path style="opacity:1" fill="#bfc8f5" d="M 247.5,255.5 C 244.985,258.567 241.651,259.901 237.5,259.5C 240.86,258.377 244.193,257.043 247.5,255.5 Z"/></g>
<g><path style="opacity:1" fill="#a7b2eb" d="M 71.5,257.5 C 76.5,258.167 81.5,258.833 86.5,259.5C 87.5676,260.434 88.901,260.768 90.5,260.5C 93.6553,260.99 96.6553,261.656 99.5,262.5C 92.81,262.052 86.1433,261.385 79.5,260.5C 76.6027,259.871 73.936,258.871 71.5,257.5 Z"/></g>
<g><path style="opacity:1" fill="#8494ec" d="M 293.5,209.5 C 293.461,210.583 293.127,211.583 292.5,212.5C 292.957,213.298 293.624,213.631 294.5,213.5C 292.317,218.372 289.651,223.039 286.5,227.5C 283.514,231.817 280.18,235.817 276.5,239.5C 274.251,240.08 272.585,241.413 271.5,243.5C 269.833,244.833 268.167,246.167 266.5,247.5C 264.821,247.285 263.821,247.952 263.5,249.5C 260.122,251.246 256.788,252.912 253.5,254.5C 251.565,255.15 249.565,255.483 247.5,255.5C 244.193,257.043 240.86,258.377 237.5,259.5C 230.628,262.214 223.628,264.214 216.5,265.5C 216.167,265.5 215.833,265.5 215.5,265.5C 214.167,265.5 212.833,265.5 211.5,265.5C 208.72,264.445 206.053,264.778 203.5,266.5C 199.5,266.833 195.5,267.167 191.5,267.5C 182.317,267.218 172.984,267.218 163.5,267.5C 163.167,267.5 162.833,267.5 162.5,267.5C 156.648,267.949 150.981,267.449 145.5,266C 154.676,265.83 163.676,265.33 172.5,264.5C 173.5,264.5 174.5,264.5 175.5,264.5C 177.792,264.244 179.959,264.577 182,265.5C 189.968,264.83 197.801,263.83 205.5,262.5C 212.04,261.611 218.373,260.277 224.5,258.5C 234.481,257.015 243.815,254.015 252.5,249.5C 259.712,247.561 266.046,244.061 271.5,239C 274.118,236.894 276.118,234.394 277.5,231.5C 278.794,230.71 279.961,229.71 281,228.5C 281.989,226.03 283.155,223.697 284.5,221.5C 287,218.506 289,215.173 290.5,211.5C 291.5,210.833 292.5,210.167 293.5,209.5 Z"/></g>
<g><path style="opacity:1" fill="#e0e3f1" d="M 140.5,248.5 C 140.5,249.833 140.5,251.167 140.5,252.5C 142.553,252.402 144.22,253.069 145.5,254.5C 143.143,254.337 140.81,254.503 138.5,255C 137.167,256 137.167,257 138.5,258C 140.81,258.497 143.143,258.663 145.5,258.5C 153.32,259.492 161.32,260.159 169.5,260.5C 172.355,260.497 175.022,260.164 177.5,259.5C 183.974,259.354 190.641,259.02 197.5,258.5C 202.544,258.173 207.544,258.506 212.5,259.5C 207.1,259.869 202.1,260.869 197.5,262.5C 190.067,263.136 182.734,263.802 175.5,264.5C 174.5,264.5 173.5,264.5 172.5,264.5C 162.833,264.5 153.167,264.5 143.5,264.5C 139.881,263.756 136.215,263.423 132.5,263.5C 128.036,262.356 123.37,261.69 118.5,261.5C 111.921,260.053 105.254,259.387 98.5,259.5C 95.2644,258.135 91.9311,257.135 88.5,256.5C 106.778,257.577 124.778,259.577 142.5,262.5C 144.5,262.333 146.5,262.167 148.5,262C 144.97,260.842 141.303,260.008 137.5,259.5C 136.548,257.955 136.215,256.288 136.5,254.5C 135.5,254.5 134.5,254.5 133.5,254.5C 134.306,253.272 135.306,252.272 136.5,251.5C 136.833,250.5 137.5,249.833 138.5,249.5C 139.167,249.167 139.833,248.833 140.5,248.5 Z"/></g>
<g><path style="opacity:1" fill="#dfe2f3" d="M 79.5,260.5 C 86.1433,261.385 92.81,262.052 99.5,262.5C 102.167,263.167 104.833,263.833 107.5,264.5C 102.435,264.219 97.4351,264.552 92.5,265.5C 91.354,264.855 90.354,264.022 89.5,263C 85.8675,262.851 82.5341,262.018 79.5,260.5 Z"/></g>
<g><path style="opacity:1" fill="#8092ef" d="M 98.5,259.5 C 105.254,259.387 111.921,260.053 118.5,261.5C 119.609,262.29 120.942,262.79 122.5,263C 121.975,263.692 121.308,264.192 120.5,264.5C 113.811,263.133 106.811,262.466 99.5,262.5C 96.6553,261.656 93.6553,260.99 90.5,260.5C 89.1498,259.35 89.3164,258.683 91,258.5C 93.4339,259.322 95.9339,259.656 98.5,259.5 Z"/></g>
<g><path style="opacity:1" fill="#909fe8" d="M 118.5,261.5 C 123.37,261.69 128.036,262.356 132.5,263.5C 129.287,263.19 126.287,263.523 123.5,264.5C 121.621,265.341 119.621,265.675 117.5,265.5C 114.14,265.384 110.807,265.051 107.5,264.5C 104.833,263.833 102.167,263.167 99.5,262.5C 106.811,262.466 113.811,263.133 120.5,264.5C 121.308,264.192 121.975,263.692 122.5,263C 120.942,262.79 119.609,262.29 118.5,261.5 Z"/></g>
<g><path style="opacity:1" fill="#8d9be4" d="M 197.5,262.5 C 200.167,262.5 202.833,262.5 205.5,262.5C 197.801,263.83 189.968,264.83 182,265.5C 179.959,264.577 177.792,264.244 175.5,264.5C 182.734,263.802 190.067,263.136 197.5,262.5 Z"/></g>
<g><path style="opacity:1" fill="#acb5e7" d="M 123.5,264.5 C 124.167,265.167 124.833,265.833 125.5,266.5C 122.615,266.806 119.948,266.473 117.5,265.5C 119.621,265.675 121.621,265.341 123.5,264.5 Z"/></g>
<g><path style="opacity:1" fill="#8495ed" d="M 132.5,263.5 C 136.215,263.423 139.881,263.756 143.5,264.5C 143.611,265.117 143.944,265.617 144.5,266C 139.845,266.499 135.179,266.666 130.5,266.5C 128.833,266.5 127.167,266.5 125.5,266.5C 124.833,265.833 124.167,265.167 123.5,264.5C 126.287,263.523 129.287,263.19 132.5,263.5 Z"/></g>
<g><path style="opacity:1" fill="#a5b1e7" d="M 211.5,265.5 C 209.052,266.473 206.385,266.806 203.5,266.5C 206.053,264.778 208.72,264.445 211.5,265.5 Z"/></g>
<g><path style="opacity:1" fill="#94a1e7" d="M 143.5,264.5 C 153.167,264.5 162.833,264.5 172.5,264.5C 163.676,265.33 154.676,265.83 145.5,266C 150.981,267.449 156.648,267.949 162.5,267.5C 154.016,268.493 145.349,268.826 136.5,268.5C 135.5,268.5 134.5,268.5 133.5,268.5C 132.5,267.833 131.5,267.167 130.5,266.5C 135.179,266.666 139.845,266.499 144.5,266C 143.944,265.617 143.611,265.117 143.5,264.5 Z"/></g>
<g><path style="opacity:1" fill="#d8defb" d="M 211.5,265.5 C 212.833,265.5 214.167,265.5 215.5,265.5C 214.737,266.268 213.737,266.768 212.5,267C 205.494,267.5 198.494,268 191.5,268.5C 191.5,268.167 191.5,267.833 191.5,267.5C 195.5,267.167 199.5,266.833 203.5,266.5C 206.385,266.806 209.052,266.473 211.5,265.5 Z"/></g>
<g><path style="opacity:1" fill="#e0e3f3" d="M 107.5,264.5 C 110.807,265.051 114.14,265.384 117.5,265.5C 119.948,266.473 122.615,266.806 125.5,266.5C 127.167,266.5 128.833,266.5 130.5,266.5C 131.5,267.167 132.5,267.833 133.5,268.5C 127.824,268.666 122.157,268.499 116.5,268C 113.182,267.246 110.182,266.08 107.5,264.5 Z"/></g>
<g><path style="opacity:1" fill="#b3bceb" d="M 191.5,267.5 C 191.5,267.833 191.5,268.167 191.5,268.5C 191.167,268.5 190.833,268.5 190.5,268.5C 181.318,268.827 172.318,268.493 163.5,267.5C 172.984,267.218 182.317,267.218 191.5,267.5 Z"/></g>
<g><path style="opacity:1" fill="#e0e3f3" d="M 162.5,267.5 C 162.833,267.5 163.167,267.5 163.5,267.5C 172.318,268.493 181.318,268.827 190.5,268.5C 179.367,269.934 168.033,270.6 156.5,270.5C 149.465,270.497 142.798,269.83 136.5,268.5C 145.349,268.826 154.016,268.493 162.5,267.5 Z"/></g>
</svg>
