<?xml version="1.0" encoding="UTF-8"?>
<!DOCTYPE svg PUBLIC "-//W3C//DTD SVG 1.1//EN" "http://www.w3.org/Graphics/SVG/1.1/DTD/svg11.dtd">
<svg xmlns="http://www.w3.org/2000/svg" version="1.1" width="309px" height="309px" style="shape-rendering:geometricPrecision; text-rendering:geometricPrecision; image-rendering:optimizeQuality; fill-rule:evenodd; clip-rule:evenodd" xmlns:xlink="http://www.w3.org/1999/xlink">
<g><path style="opacity:1" fill="#e6e5e5" d="M -0.5,-0.5 C 102.5,-0.5 205.5,-0.5 308.5,-0.5C 308.5,102.5 308.5,205.5 308.5,308.5C 205.5,308.5 102.5,308.5 -0.5,308.5C -0.5,205.5 -0.5,102.5 -0.5,-0.5 Z"/></g>
<g><path style="opacity:1" fill="#fbb0cf" d="M 111.5,29.5 C 111.666,33.5138 111.499,37.5138 111,41.5C 109.295,43.5766 108.128,45.91 107.5,48.5C 106.167,48.5 104.833,48.5 103.5,48.5C 103.5,49.5 103.5,50.5 103.5,51.5C 101.8,51.3739 100.3,50.7073 99,49.5C 95.8163,50.7242 95.983,51.8909 99.5,53C 96.5002,55.003 93.1669,55.8364 89.5,55.5C 83.2267,53.8935 79.2267,49.8935 77.5,43.5C 76.1719,37.1031 76.5053,30.7697 78.5,24.5C 89.5855,12.4673 100.419,12.8007 111,25.5C 111.49,26.7932 111.657,28.1266 111.5,29.5 Z"/></g>
<g><path style="opacity:1" fill="#efdde4" d="M 178.5,26.5 C 174.519,25.1713 170.519,25.1713 166.5,26.5C 163.401,28.5926 161.067,31.2593 159.5,34.5C 161.893,24.7875 167.893,21.4541 177.5,24.5C 177.863,25.1835 178.196,25.8501 178.5,26.5 Z"/></g>
<g><path style="opacity:1" fill="#fbb1cf" d="M 126.5,42.5 C 123.66,37.3646 123.994,32.3646 127.5,27.5C 130.421,27.8541 132.754,26.8541 134.5,24.5C 136.462,25.6345 138.462,25.6345 140.5,24.5C 142.727,26.1988 145.227,27.5321 148,28.5C 147.517,32.4122 146.85,36.4122 146,40.5C 145.667,39.8333 145.333,39.1667 145,38.5C 143.649,39.9606 142.149,41.294 140.5,42.5C 139.614,43.325 139.281,44.325 139.5,45.5C 134.91,45.5236 130.577,44.5236 126.5,42.5 Z"/></g>
<g><path style="opacity:1" fill="#fab1cf" d="M 178.5,26.5 C 183.221,34.2815 182.221,41.2815 175.5,47.5C 163.573,51.2375 158.239,46.9042 159.5,34.5C 161.067,31.2593 163.401,28.5926 166.5,26.5C 170.519,25.1713 174.519,25.1713 178.5,26.5 Z"/></g>
<g><path style="opacity:1" fill="#eedce3" d="M 209.5,48.5 C 209.396,45.9105 210.063,43.5771 211.5,41.5C 210.829,38.8151 210.162,36.1484 209.5,33.5C 209.047,32.5416 208.381,31.7083 207.5,31C 203.514,30.5012 199.514,30.3345 195.5,30.5C 208.689,25.2681 214.189,29.9348 212,44.5C 211.066,45.8584 210.232,47.1917 209.5,48.5 Z"/></g>
<g><path style="opacity:1" fill="#f2d2df" d="M 78.5,24.5 C 76.5053,30.7697 76.1719,37.1031 77.5,43.5C 76.8826,43.3893 76.3826,43.056 76,42.5C 75.3333,38.1667 75.3333,33.8333 76,29.5C 76.3736,27.5087 77.207,25.842 78.5,24.5 Z"/></g>
<g><path style="opacity:1" fill="#fbb0cf" d="M 209.5,33.5 C 210.162,36.1484 210.829,38.8151 211.5,41.5C 210.063,43.5771 209.396,45.9105 209.5,48.5C 206.099,51.529 202.099,52.8624 197.5,52.5C 196.492,50.6614 194.992,49.3281 193,48.5C 191.998,42.6773 193.165,37.344 196.5,32.5C 201.052,31.0568 205.385,31.3901 209.5,33.5 Z"/></g>
<g><path style="opacity:1" fill="#fcafcf" d="M 230.5,39.5 C 230.833,39.5 231.167,39.5 231.5,39.5C 231.577,40.7498 232.244,41.5831 233.5,42C 233.167,42.3333 232.833,42.6667 232.5,43C 233.563,44.1882 234.897,44.6882 236.5,44.5C 237.633,55.6986 232.633,61.0319 221.5,60.5C 219.554,59.9653 218.554,58.632 218.5,56.5C 218.334,52.1539 218.501,47.8206 219,43.5C 219.414,43.9574 219.914,44.2907 220.5,44.5C 222.954,41.0401 226.287,39.3734 230.5,39.5 Z"/></g>
<g><path style="opacity:1" fill="#f6b9d2" d="M 126.5,42.5 C 130.577,44.5236 134.91,45.5236 139.5,45.5C 139.281,44.325 139.614,43.325 140.5,42.5C 142.149,41.294 143.649,39.9606 145,38.5C 145.333,39.1667 145.667,39.8333 146,40.5C 146.85,36.4122 147.517,32.4122 148,28.5C 145.227,27.5321 142.727,26.1988 140.5,24.5C 138.462,25.6345 136.462,25.6345 134.5,24.5C 132.754,26.8541 130.421,27.8541 127.5,27.5C 133.071,22.9541 139.404,21.7874 146.5,24C 148.961,26.827 149.961,30.1604 149.5,34C 150.186,38.9806 148.519,42.9806 144.5,46C 139.5,46.6667 134.5,46.6667 129.5,46C 127.574,45.5776 126.574,44.4109 126.5,42.5 Z"/></g>
<g><path style="opacity:1" fill="#f2bdd2" d="M 195.5,30.5 C 199.514,30.3345 203.514,30.5012 207.5,31C 208.381,31.7083 209.047,32.5416 209.5,33.5C 205.385,31.3901 201.052,31.0568 196.5,32.5C 193.165,37.344 191.998,42.6773 193,48.5C 194.992,49.3281 196.492,50.6614 197.5,52.5C 195.574,51.7577 193.741,50.7577 192,49.5C 190.594,42.5449 191.76,36.2115 195.5,30.5 Z"/></g>
<g><path style="opacity:1" fill="#eedbe3" d="M 111.5,29.5 C 113.653,37.3323 112.487,44.6656 108,51.5C 107.329,52.2524 106.496,52.5858 105.5,52.5C 106.6,51.3951 107.267,50.0618 107.5,48.5C 108.128,45.91 109.295,43.5766 111,41.5C 111.499,37.5138 111.666,33.5138 111.5,29.5 Z"/></g>
<g><path style="opacity:1" fill="#f2bdd3" d="M 231.5,39.5 C 238.307,42.4015 240.141,47.4015 237,54.5C 233.288,61.1488 228.121,63.1488 221.5,60.5C 232.633,61.0319 237.633,55.6986 236.5,44.5C 234.897,44.6882 233.563,44.1882 232.5,43C 232.833,42.6667 233.167,42.3333 233.5,42C 232.244,41.5831 231.577,40.7498 231.5,39.5 Z"/></g>
<g><path style="opacity:1" fill="#f0bbd0" d="M 230.5,39.5 C 226.287,39.3734 222.954,41.0401 220.5,44.5C 219.914,44.2907 219.414,43.9574 219,43.5C 218.501,47.8206 218.334,52.1539 218.5,56.5C 213.534,44.0389 217.534,38.3722 230.5,39.5 Z"/></g>
<g><path style="opacity:1" fill="#f5bbd2" d="M 107.5,48.5 C 107.267,50.0618 106.6,51.3951 105.5,52.5C 102.131,54.5108 98.4639,55.8441 94.5,56.5C 92.6307,56.4932 90.964,56.1599 89.5,55.5C 93.1669,55.8364 96.5002,55.003 99.5,53C 95.983,51.8909 95.8163,50.7242 99,49.5C 100.3,50.7073 101.8,51.3739 103.5,51.5C 103.5,50.5 103.5,49.5 103.5,48.5C 104.833,48.5 106.167,48.5 107.5,48.5 Z"/></g>
<g><path style="opacity:1" fill="#efe0e6" d="M 215.5,66.5 C 202.126,61.1563 188.126,57.6563 173.5,56C 153.501,53.0727 133.501,52.906 113.5,55.5C 117.826,53.8815 122.493,52.7148 127.5,52C 156.932,50.6656 185.598,54.4989 213.5,63.5C 214.425,64.3569 215.092,65.3569 215.5,66.5 Z"/></g>
<g><path style="opacity:1" fill="#f3bad1" d="M 215.5,66.5 C 219.839,69.9987 224.339,73.3321 229,76.5C 231.333,80.1667 233.667,83.8333 236,87.5C 238.164,99.5604 237.831,111.56 235,123.5C 231.519,131.619 227.853,139.619 224,147.5C 220.632,149.535 217.965,152.201 216,155.5C 210.164,166.121 203.997,176.455 197.5,186.5C 194.935,191.518 192.935,196.852 191.5,202.5C 187.511,224.435 184.178,246.435 181.5,268.5C 180.503,268.47 179.836,268.97 179.5,270C 177.631,276.282 174.631,281.949 170.5,287C 167.554,287.806 164.888,289.139 162.5,291C 159.207,291.826 155.874,292.326 152.5,292.5C 143.128,292.328 133.795,291.662 124.5,290.5C 110.557,288.443 98.2238,282.943 87.5,274C 83.3923,269.742 79.7256,265.242 76.5,260.5C 73.3819,250.959 71.7152,241.125 71.5,231C 73.3996,201.507 75.0663,172.007 76.5,142.5C 77.3981,120.942 77.7314,99.2751 77.5,77.5C 86.8004,65.5266 98.8004,58.1933 113.5,55.5C 133.501,52.906 153.501,53.0727 173.5,56C 188.126,57.6563 202.126,61.1563 215.5,66.5 Z"/></g>
<g><path style="opacity:1" fill="#eedee4" d="M 199.5,64.5 C 185.798,63.3217 172.132,61.8217 158.5,60C 143.482,59.2698 128.482,59.4365 113.5,60.5C 116.628,59.3681 119.962,58.5348 123.5,58C 133.5,57.3333 143.5,57.3333 153.5,58C 163.43,59.6521 173.43,60.6521 183.5,61C 189.081,61.6849 194.414,62.8515 199.5,64.5 Z"/></g>
<g><path style="opacity:1" fill="#e6e5e5" d="M 199.5,64.5 C 201.414,65.1847 203.414,65.6847 205.5,66C 211.67,69.9192 218.003,73.5859 224.5,77C 227.881,81.1545 230.714,85.6545 233,90.5C 233.667,98.5 233.667,106.5 233,114.5C 226.901,134.364 216.901,152.031 203,167.5C 200.646,172.887 197.812,177.887 194.5,182.5C 192.153,184.527 190.819,187.194 190.5,190.5C 186.672,191.498 183.006,191.498 179.5,190.5C 180.75,190.423 181.583,189.756 182,188.5C 182.667,185.167 182.667,181.833 182,178.5C 181.617,177.944 181.117,177.611 180.5,177.5C 180.5,176.833 180.167,176.5 179.5,176.5C 179.389,175.883 179.056,175.383 178.5,175C 180.26,169.308 180.76,163.475 180,157.5C 179.682,155.939 178.849,154.772 177.5,154C 178.5,151.909 177.833,150.243 175.5,149C 175.957,148.586 176.291,148.086 176.5,147.5C 174.249,143.205 170.916,140.039 166.5,138C 160.631,136.193 154.631,135.359 148.5,135.5C 148.088,133.113 147.088,131.113 145.5,129.5C 139.36,126.47 132.693,125.137 125.5,125.5C 124.508,125.328 123.842,125.662 123.5,126.5C 121.744,127.552 121.077,129.219 121.5,131.5C 125.703,131.076 129.703,131.576 133.5,133C 129.171,133.977 124.838,134.81 120.5,135.5C 120.5,136.5 120.5,137.5 120.5,138.5C 120.167,141.5 121.5,142.833 124.5,142.5C 130.29,140.848 136.29,140.181 142.5,140.5C 142.762,141.978 142.429,143.311 141.5,144.5C 138.762,144.887 136.428,145.887 134.5,147.5C 133.5,147.833 132.833,148.5 132.5,149.5C 129.909,150.254 128.076,151.921 127,154.5C 126.696,158.548 126.196,162.548 125.5,166.5C 125.672,167.492 125.338,168.158 124.5,168.5C 122.783,171.845 122.116,175.511 122.5,179.5C 116.189,180.427 109.856,180.594 103.5,180C 97.8351,178.429 92.5018,176.262 87.5,173.5C 86.1667,171.833 84.8333,170.167 83.5,168.5C 82.5617,166.674 81.5617,164.841 80.5,163C 80.9212,160.815 81.4212,158.649 82,156.5C 82.3333,130.833 82.6667,105.167 83,79.5C 85.9847,76.8384 88.4847,73.8384 90.5,70.5C 91.2899,69.2058 92.2899,68.0391 93.5,67C 99.7369,63.6054 106.404,61.4387 113.5,60.5C 128.482,59.4365 143.482,59.2698 158.5,60C 172.132,61.8217 185.798,63.3217 199.5,64.5 Z"/></g>
<g><path style="opacity:1" fill="#f1dfe5" d="M 77.5,77.5 C 77.7314,99.2751 77.3981,120.942 76.5,142.5C 77.041,122.775 76.3743,103.108 74.5,83.5C 74.8333,81.8333 75.1667,80.1667 75.5,78.5C 76.1835,78.1373 76.8501,77.8039 77.5,77.5 Z"/></g>
<g><path style="opacity:1" fill="#ef9390" d="M 125.5,125.5 C 132.693,125.137 139.36,126.47 145.5,129.5C 145.5,129.833 145.5,130.167 145.5,130.5C 143.716,129.28 142.05,129.28 140.5,130.5C 135.228,129.6 129.895,129.267 124.5,129.5C 124.433,128.041 124.766,126.708 125.5,125.5 Z"/></g>
<g><path style="opacity:1" fill="#f1aba9" d="M 125.5,125.5 C 124.766,126.708 124.433,128.041 124.5,129.5C 129.895,129.267 135.228,129.6 140.5,130.5C 141.496,130.414 142.329,130.748 143,131.5C 143.765,133.066 143.598,134.399 142.5,135.5C 142.5,135.167 142.5,134.833 142.5,134.5C 141.264,132.172 139.264,131.006 136.5,131C 132.179,130.501 127.846,130.334 123.5,130.5C 123.5,129.167 123.5,127.833 123.5,126.5C 123.842,125.662 124.508,125.328 125.5,125.5 Z"/></g>
<g><path style="opacity:1" fill="#f2d7d6" d="M 123.5,126.5 C 123.5,127.833 123.5,129.167 123.5,130.5C 127.846,130.334 132.179,130.501 136.5,131C 139.264,131.006 141.264,132.172 142.5,134.5C 134.649,133.656 127.315,134.989 120.5,138.5C 120.5,137.5 120.5,136.5 120.5,135.5C 124.838,134.81 129.171,133.977 133.5,133C 129.703,131.576 125.703,131.076 121.5,131.5C 121.077,129.219 121.744,127.552 123.5,126.5 Z"/></g>
<g><path style="opacity:1" fill="#f28f8c" d="M 142.5,134.5 C 142.5,134.833 142.5,135.167 142.5,135.5C 139.15,135.335 135.817,135.502 132.5,136C 135.5,137.074 138.5,137.907 141.5,138.5C 137.958,138.187 134.625,138.521 131.5,139.5C 128.519,139.182 126.185,140.182 124.5,142.5C 121.5,142.833 120.167,141.5 120.5,138.5C 127.315,134.989 134.649,133.656 142.5,134.5 Z"/></g>
<g><path style="opacity:1" fill="#f78985" d="M 140.5,130.5 C 142.05,129.28 143.716,129.28 145.5,130.5C 146.161,133.488 146.828,136.488 147.5,139.5C 147.333,140.5 147.167,141.5 147,142.5C 145.984,141.366 145.317,141.699 145,143.5C 144.506,141.866 144.34,140.199 144.5,138.5C 143.5,138.5 142.5,138.5 141.5,138.5C 138.5,137.907 135.5,137.074 132.5,136C 135.817,135.502 139.15,135.335 142.5,135.5C 143.598,134.399 143.765,133.066 143,131.5C 142.329,130.748 141.496,130.414 140.5,130.5 Z"/></g>
<g><path style="opacity:1" fill="#eddee4" d="M 90.5,70.5 C 88.4847,73.8384 85.9847,76.8384 83,79.5C 82.6667,105.167 82.3333,130.833 82,156.5C 81.4212,158.649 80.9212,160.815 80.5,163C 81.5617,164.841 82.5617,166.674 83.5,168.5C 81.9826,168.489 80.8159,167.823 80,166.5C 79.5012,162.514 79.3345,158.514 79.5,154.5C 81.6787,130.536 82.0121,106.536 80.5,82.5C 80.8333,81.1667 81.1667,79.8333 81.5,78.5C 84.0867,75.2768 87.0867,72.6102 90.5,70.5 Z"/></g>
<g><path style="opacity:1" fill="#f7cdcb" d="M 131.5,139.5 C 135.5,139.5 139.5,139.5 143.5,139.5C 143.5,141.167 143.5,142.833 143.5,144.5C 140.811,146.117 137.811,147.117 134.5,147.5C 136.428,145.887 138.762,144.887 141.5,144.5C 142.429,143.311 142.762,141.978 142.5,140.5C 136.29,140.181 130.29,140.848 124.5,142.5C 126.185,140.182 128.519,139.182 131.5,139.5 Z"/></g>
<g><path style="opacity:1" fill="#e8dfde" d="M 148.5,140.5 C 158.045,139.788 166.045,142.788 172.5,149.5C 173.361,153.606 174.695,157.439 176.5,161C 174.709,165.967 174.042,171.134 174.5,176.5C 174.5,177.167 174.5,177.833 174.5,178.5C 173.566,179.568 173.232,180.901 173.5,182.5C 171.692,183.918 171.025,185.918 171.5,188.5C 170.833,188.5 170.167,188.5 169.5,188.5C 168.194,187.533 167.527,186.199 167.5,184.5C 168.167,184.5 168.5,184.167 168.5,183.5C 169.268,182.737 169.768,181.737 170,180.5C 170.667,172.167 170.667,163.833 170,155.5C 169.963,153.026 169.13,151.026 167.5,149.5C 166.713,147.896 165.38,147.229 163.5,147.5C 158.848,145.369 153.848,144.369 148.5,144.5C 148.5,143.167 148.5,141.833 148.5,140.5 Z"/></g>
<g><path style="opacity:1" fill="#eea09d" d="M 145.5,129.5 C 147.088,131.113 148.088,133.113 148.5,135.5C 148.5,137.167 148.5,138.833 148.5,140.5C 148.5,141.833 148.5,143.167 148.5,144.5C 153.848,144.369 158.848,145.369 163.5,147.5C 161.897,148.677 160.564,148.511 159.5,147C 154.18,146.002 148.847,145.169 143.5,144.5C 143.5,142.833 143.5,141.167 143.5,139.5C 139.5,139.5 135.5,139.5 131.5,139.5C 134.625,138.521 137.958,138.187 141.5,138.5C 142.5,138.5 143.5,138.5 144.5,138.5C 144.34,140.199 144.506,141.866 145,143.5C 145.317,141.699 145.984,141.366 147,142.5C 147.167,141.5 147.333,140.5 147.5,139.5C 146.828,136.488 146.161,133.488 145.5,130.5C 145.5,130.167 145.5,129.833 145.5,129.5 Z"/></g>
<g><path style="opacity:1" fill="#e6e5e5" d="M 159.5,172.5 C 160.167,176.167 160.833,179.833 161.5,183.5C 157.44,182.848 155.44,184.515 155.5,188.5C 156.978,188.238 158.311,188.571 159.5,189.5C 157.313,191.85 154.813,193.85 152,195.5C 151.517,196.448 151.351,197.448 151.5,198.5C 153.95,198.702 156.283,198.369 158.5,197.5C 160.735,196.772 162.568,195.439 164,193.5C 164.667,199.5 164.667,205.5 164,211.5C 161.061,212.128 158.228,212.795 155.5,213.5C 145.76,213.651 136.094,212.985 126.5,211.5C 126.5,206.833 126.5,202.167 126.5,197.5C 126.157,195.517 126.824,194.183 128.5,193.5C 129.122,196.776 131.122,198.109 134.5,197.5C 134.784,193.908 133.784,190.741 131.5,188C 131.57,187.235 131.903,186.735 132.5,186.5C 136.215,186.804 139.715,186.137 143,184.5C 143.706,182.029 143.373,179.695 142,177.5C 140.927,178.28 139.76,178.113 138.5,177C 139.423,174.959 139.756,172.792 139.5,170.5C 137.167,170.5 134.833,170.5 132.5,170.5C 132.503,165.473 132.836,160.473 133.5,155.5C 134.401,153.273 136.067,152.273 138.5,152.5C 146.5,151.167 154.5,151.167 162.5,152.5C 162.5,158.833 162.5,165.167 162.5,171.5C 161.209,171.263 160.209,171.596 159.5,172.5 Z"/></g>
<g><path style="opacity:1" fill="#797978" d="M 148.5,135.5 C 154.631,135.359 160.631,136.193 166.5,138C 170.916,140.039 174.249,143.205 176.5,147.5C 176.291,148.086 175.957,148.586 175.5,149C 177.833,150.243 178.5,151.909 177.5,154C 178.849,154.772 179.682,155.939 180,157.5C 180.76,163.475 180.26,169.308 178.5,175C 179.056,175.383 179.389,175.883 179.5,176.5C 177.833,176.5 176.167,176.5 174.5,176.5C 174.042,171.134 174.709,165.967 176.5,161C 174.695,157.439 173.361,153.606 172.5,149.5C 166.045,142.788 158.045,139.788 148.5,140.5C 148.5,138.833 148.5,137.167 148.5,135.5 Z"/></g>
<g><path style="opacity:1" fill="#f48d8a" d="M 143.5,144.5 C 148.847,145.169 154.18,146.002 159.5,147C 160.564,148.511 161.897,148.677 163.5,147.5C 165.38,147.229 166.713,147.896 167.5,149.5C 167.92,153.323 168.254,157.156 168.5,161C 168.252,162.749 167.252,163.582 165.5,163.5C 165.815,159.629 165.482,155.962 164.5,152.5C 163.395,151.4 162.062,150.733 160.5,150.5C 157.474,148.981 154.141,148.315 150.5,148.5C 146.122,148.622 141.789,149.122 137.5,150C 132.429,151.236 130.429,154.402 131.5,159.5C 130.732,160.263 130.232,161.263 130,162.5C 129.333,161.167 128.667,161.167 128,162.5C 127.022,157.266 128.522,152.933 132.5,149.5C 132.833,148.5 133.5,147.833 134.5,147.5C 137.811,147.117 140.811,146.117 143.5,144.5 Z"/></g>
<g><path style="opacity:1" fill="#f0a3a0" d="M 160.5,150.5 C 154.158,150.334 147.825,150.5 141.5,151C 140.263,151.232 139.263,151.732 138.5,152.5C 136.067,152.273 134.401,153.273 133.5,155.5C 132.833,156.833 132.167,158.167 131.5,159.5C 130.429,154.402 132.429,151.236 137.5,150C 141.789,149.122 146.122,148.622 150.5,148.5C 154.141,148.315 157.474,148.981 160.5,150.5 Z"/></g>
<g><path style="opacity:1" fill="#f2dedd" d="M 160.5,150.5 C 162.062,150.733 163.395,151.4 164.5,152.5C 164.825,159.687 164.491,166.687 163.5,173.5C 162.432,172.566 161.099,172.232 159.5,172.5C 160.209,171.596 161.209,171.263 162.5,171.5C 162.5,165.167 162.5,158.833 162.5,152.5C 154.5,151.167 146.5,151.167 138.5,152.5C 139.263,151.732 140.263,151.232 141.5,151C 147.825,150.5 154.158,150.334 160.5,150.5 Z"/></g>
<g><path style="opacity:1" fill="#efa4a1" d="M 167.5,149.5 C 169.13,151.026 169.963,153.026 170,155.5C 170.667,163.833 170.667,172.167 170,180.5C 169.768,181.737 169.268,182.737 168.5,183.5C 168.351,177.379 168.351,171.379 168.5,165.5C 168.167,165.167 167.833,164.833 167.5,164.5C 166.513,167.768 166.18,171.102 166.5,174.5C 166.167,174.5 165.833,174.5 165.5,174.5C 165.5,170.833 165.5,167.167 165.5,163.5C 167.252,163.582 168.252,162.749 168.5,161C 168.254,157.156 167.92,153.323 167.5,149.5 Z"/></g>
<g><path style="opacity:1" fill="#ee9e9c" d="M 132.5,149.5 C 128.522,152.933 127.022,157.266 128,162.5C 128.667,161.167 129.333,161.167 130,162.5C 130.232,161.263 130.732,160.263 131.5,159.5C 131.702,161.95 131.369,164.283 130.5,166.5C 129.523,169.287 129.19,172.287 129.5,175.5C 129.768,177.099 129.434,178.432 128.5,179.5C 128.827,174.786 128.493,170.12 127.5,165.5C 126.817,165.863 126.15,166.196 125.5,166.5C 126.196,162.548 126.696,158.548 127,154.5C 128.076,151.921 129.909,150.254 132.5,149.5 Z"/></g>
<g><path style="opacity:1" fill="#efdee5" d="M 76.5,142.5 C 75.0663,172.007 73.3996,201.507 71.5,231C 71.7152,241.125 73.3819,250.959 76.5,260.5C 74.9032,259.263 73.7365,257.596 73,255.5C 72.8603,252.957 72.1937,250.623 71,248.5C 70.8333,240.833 70.6667,233.167 70.5,225.5C 71.2111,197.536 73.2111,169.869 76.5,142.5 Z"/></g>
<g><path style="opacity:1" fill="#edb7b7" d="M 164.5,152.5 C 165.482,155.962 165.815,159.629 165.5,163.5C 165.5,167.167 165.5,170.833 165.5,174.5C 164.508,174.672 163.842,174.338 163.5,173.5C 164.491,166.687 164.825,159.687 164.5,152.5 Z"/></g>
<g><path style="opacity:1" fill="#f58f8f" d="M 128.5,179.5 C 128.616,182.91 126.95,184.244 123.5,183.5C 123.5,182.5 123.5,181.5 123.5,180.5C 124.021,176.519 124.354,172.519 124.5,168.5C 125.338,168.158 125.672,167.492 125.5,166.5C 126.15,166.196 126.817,165.863 127.5,165.5C 128.493,170.12 128.827,174.786 128.5,179.5 Z"/></g>
<g><path style="opacity:1" fill="#f2c3d4" d="M 130.5,166.5 C 130.336,169.187 130.503,171.854 131,174.5C 132.444,172.845 134.278,172.178 136.5,172.5C 136.753,174.827 136.086,176.827 134.5,178.5C 136.743,179.474 139.076,179.808 141.5,179.5C 141.227,184.332 138.56,186.332 133.5,185.5C 141.817,181.665 141.15,179.999 131.5,180.5C 131.88,178.302 131.213,176.635 129.5,175.5C 129.19,172.287 129.523,169.287 130.5,166.5 Z"/></g>
<g><path style="opacity:1" fill="#e6e5e5" d="M 120.5,187.5 C 118.69,197.075 118.19,206.742 119,216.5C 121.632,218.801 124.798,220.134 128.5,220.5C 140.82,221.666 153.153,221.833 165.5,221C 167.35,218.982 169.35,217.149 171.5,215.5C 172.496,209.537 172.829,203.537 172.5,197.5C 177.067,198.736 181.734,199.402 186.5,199.5C 186.5,201.833 186.5,204.167 186.5,206.5C 183.508,225.765 181.008,245.099 179,264.5C 176.435,268.51 174.435,272.843 173,277.5C 168.895,282.611 163.728,286.111 157.5,288C 136.744,290.554 117.077,287.221 98.5,278C 90.4151,272.429 84.4151,265.262 80.5,256.5C 76.342,238.057 75.342,219.39 77.5,200.5C 77.7304,191.729 78.7304,183.063 80.5,174.5C 91.4139,185.784 104.747,190.117 120.5,187.5 Z"/></g>
<g><path style="opacity:1" fill="#e2d383" d="M 174.5,176.5 C 176.167,176.5 177.833,176.5 179.5,176.5C 180.167,176.5 180.5,176.833 180.5,177.5C 182.029,181.759 181.696,185.759 179.5,189.5C 180.135,186.507 180.301,183.507 180,180.5C 178.239,178.637 176.405,177.97 174.5,178.5C 174.5,177.833 174.5,177.167 174.5,176.5 Z"/></g>
<g><path style="opacity:1" fill="#efdee3" d="M 124.5,168.5 C 124.354,172.519 124.021,176.519 123.5,180.5C 118.448,182.554 113.114,183.054 107.5,182C 103.853,181.226 100.186,180.559 96.5,180C 94.1799,177.838 91.5133,176.338 88.5,175.5C 88.1667,174.833 87.8333,174.167 87.5,173.5C 92.5018,176.262 97.8351,178.429 103.5,180C 109.856,180.594 116.189,180.427 122.5,179.5C 122.116,175.511 122.783,171.845 124.5,168.5 Z"/></g>
<g><path style="opacity:1" fill="#f59090" d="M 168.5,183.5 C 168.5,184.167 168.167,184.5 167.5,184.5C 166.292,185.234 164.959,185.567 163.5,185.5C 163.551,181.462 164.551,177.795 166.5,174.5C 166.18,171.102 166.513,167.768 167.5,164.5C 167.833,164.833 168.167,165.167 168.5,165.5C 168.351,171.379 168.351,177.379 168.5,183.5 Z"/></g>
<g><path style="opacity:1" fill="#ebe6c6" d="M 180.5,177.5 C 181.117,177.611 181.617,177.944 182,178.5C 182.667,181.833 182.667,185.167 182,188.5C 181.583,189.756 180.75,190.423 179.5,190.5C 179.5,190.167 179.5,189.833 179.5,189.5C 181.696,185.759 182.029,181.759 180.5,177.5 Z"/></g>
<g><path style="opacity:1" fill="#f7b6cf" d="M 88.5,175.5 C 91.5133,176.338 94.1799,177.838 96.5,180C 100.186,180.559 103.853,181.226 107.5,182C 113.114,183.054 118.448,182.554 123.5,180.5C 123.5,181.5 123.5,182.5 123.5,183.5C 126.95,184.244 128.616,182.91 128.5,179.5C 129.434,178.432 129.768,177.099 129.5,175.5C 131.213,176.635 131.88,178.302 131.5,180.5C 141.15,179.999 141.817,181.665 133.5,185.5C 133.167,185.5 132.833,185.5 132.5,185.5C 131.005,185.415 130.005,186.081 129.5,187.5C 131.02,189.662 132.02,191.995 132.5,194.5C 131.041,194.567 129.708,194.234 128.5,193.5C 128.167,192.5 127.5,191.833 126.5,191.5C 126.833,188.5 125.5,187.167 122.5,187.5C 113.915,186.84 105.248,185.673 96.5,184C 92.5506,181.683 88.7172,179.183 85,176.5C 84.3123,175.668 84.479,175.002 85.5,174.5C 86.4168,175.127 87.4168,175.461 88.5,175.5 Z"/></g>
<g><path style="opacity:1" fill="#eddde3" d="M 133.5,155.5 C 132.836,160.473 132.503,165.473 132.5,170.5C 134.833,170.5 137.167,170.5 139.5,170.5C 139.756,172.792 139.423,174.959 138.5,177C 139.76,178.113 140.927,178.28 142,177.5C 143.373,179.695 143.706,182.029 143,184.5C 139.715,186.137 136.215,186.804 132.5,186.5C 132.5,186.167 132.5,185.833 132.5,185.5C 132.833,185.5 133.167,185.5 133.5,185.5C 138.56,186.332 141.227,184.332 141.5,179.5C 139.076,179.808 136.743,179.474 134.5,178.5C 136.086,176.827 136.753,174.827 136.5,172.5C 134.278,172.178 132.444,172.845 131,174.5C 130.503,171.854 130.336,169.187 130.5,166.5C 131.369,164.283 131.702,161.95 131.5,159.5C 132.167,158.167 132.833,156.833 133.5,155.5 Z"/></g>
<g><path style="opacity:1" fill="#f0e5ae" d="M 173.5,182.5 C 173.167,184.5 172.833,186.5 172.5,188.5C 172.167,188.5 171.833,188.5 171.5,188.5C 171.025,185.918 171.692,183.918 173.5,182.5 Z"/></g>
<g><path style="opacity:1" fill="#f5e271" d="M 174.5,178.5 C 176.405,177.97 178.239,178.637 180,180.5C 180.301,183.507 180.135,186.507 179.5,189.5C 177.097,189.552 174.764,189.219 172.5,188.5C 172.833,186.5 173.167,184.5 173.5,182.5C 173.232,180.901 173.566,179.568 174.5,178.5 Z"/></g>
<g><path style="opacity:1" fill="#f6dea0" d="M 172.5,188.5 C 174.764,189.219 177.097,189.552 179.5,189.5C 179.5,189.833 179.5,190.167 179.5,190.5C 178.167,190.5 176.833,190.5 175.5,190.5C 173.973,190.573 172.973,189.906 172.5,188.5 Z"/></g>
<g><path style="opacity:1" fill="#ef9b9a" d="M 122.5,187.5 C 125.5,187.167 126.833,188.5 126.5,191.5C 126.082,192.222 125.416,192.722 124.5,193C 125.791,194.292 125.791,195.458 124.5,196.5C 124.483,194.972 123.816,194.472 122.5,195C 121.891,196.948 121.224,198.782 120.5,200.5C 120.616,197.14 120.949,193.807 121.5,190.5C 122.404,189.791 122.737,188.791 122.5,187.5 Z"/></g>
<g><path style="opacity:1" fill="#f1dae1" d="M 194.5,182.5 C 193.798,185.44 192.798,188.273 191.5,191C 185.943,193.137 180.61,192.971 175.5,190.5C 176.833,190.5 178.167,190.5 179.5,190.5C 183.006,191.498 186.672,191.498 190.5,190.5C 190.819,187.194 192.153,184.527 194.5,182.5 Z"/></g>
<g><path style="opacity:1" fill="#f0c8d8" d="M 132.5,185.5 C 132.5,185.833 132.5,186.167 132.5,186.5C 131.903,186.735 131.57,187.235 131.5,188C 133.784,190.741 134.784,193.908 134.5,197.5C 131.122,198.109 129.122,196.776 128.5,193.5C 129.708,194.234 131.041,194.567 132.5,194.5C 132.02,191.995 131.02,189.662 129.5,187.5C 130.005,186.081 131.005,185.415 132.5,185.5 Z"/></g>
<g><path style="opacity:1" fill="#f6b9d0" d="M 159.5,172.5 C 161.099,172.232 162.432,172.566 163.5,173.5C 163.842,174.338 164.508,174.672 165.5,174.5C 165.833,174.5 166.167,174.5 166.5,174.5C 164.551,177.795 163.551,181.462 163.5,185.5C 164.959,185.567 166.292,185.234 167.5,184.5C 167.527,186.199 168.194,187.533 169.5,188.5C 168.167,188.5 166.833,188.5 165.5,188.5C 165.5,189.5 165.5,190.5 165.5,191.5C 163.405,192.412 161.405,193.579 159.5,195C 158.748,195.671 158.414,196.504 158.5,197.5C 156.283,198.369 153.95,198.702 151.5,198.5C 151.351,197.448 151.517,196.448 152,195.5C 154.813,193.85 157.313,191.85 159.5,189.5C 158.311,188.571 156.978,188.238 155.5,188.5C 155.44,184.515 157.44,182.848 161.5,183.5C 160.833,179.833 160.167,176.167 159.5,172.5 Z"/></g>
<g><path style="opacity:1" fill="#f6dadc" d="M 165.5,191.5 C 165.5,191.833 165.5,192.167 165.5,192.5C 165.5,197.5 165.5,202.5 165.5,207.5C 165.946,210.01 165.28,212.01 163.5,213.5C 160.833,213.5 158.167,213.5 155.5,213.5C 158.228,212.795 161.061,212.128 164,211.5C 164.667,205.5 164.667,199.5 164,193.5C 162.568,195.439 160.735,196.772 158.5,197.5C 158.414,196.504 158.748,195.671 159.5,195C 161.405,193.579 163.405,192.412 165.5,191.5 Z"/></g>
<g><path style="opacity:1" fill="#f0acaa" d="M 165.5,192.5 C 166.289,192.783 166.956,193.283 167.5,194C 166.167,197 166.167,200 167.5,203C 166.901,204.622 166.234,206.122 165.5,207.5C 165.5,202.5 165.5,197.5 165.5,192.5 Z"/></g>
<g><path style="opacity:1" fill="#f68b88" d="M 124.5,196.5 C 124.278,200.171 123.944,203.837 123.5,207.5C 123.556,209.64 124.223,211.306 125.5,212.5C 125.5,213.167 125.833,213.5 126.5,213.5C 124.591,215.873 122.758,215.873 121,213.5C 120.501,209.179 120.334,204.846 120.5,200.5C 121.224,198.782 121.891,196.948 122.5,195C 123.816,194.472 124.483,194.972 124.5,196.5 Z"/></g>
<g><path style="opacity:1" fill="#f2b9b7" d="M 126.5,191.5 C 127.5,191.833 128.167,192.5 128.5,193.5C 126.824,194.183 126.157,195.517 126.5,197.5C 125.513,202.305 125.179,207.305 125.5,212.5C 124.223,211.306 123.556,209.64 123.5,207.5C 123.944,203.837 124.278,200.171 124.5,196.5C 125.791,195.458 125.791,194.292 124.5,193C 125.416,192.722 126.082,192.222 126.5,191.5 Z"/></g>
<g><path style="opacity:1" fill="#f1c4d6" d="M 79.5,154.5 C 79.3345,158.514 79.5012,162.514 80,166.5C 80.8159,167.823 81.9826,168.489 83.5,168.5C 84.8333,170.167 86.1667,171.833 87.5,173.5C 87.8333,174.167 88.1667,174.833 88.5,175.5C 87.4168,175.461 86.4168,175.127 85.5,174.5C 84.479,175.002 84.3123,175.668 85,176.5C 88.7172,179.183 92.5506,181.683 96.5,184C 105.248,185.673 113.915,186.84 122.5,187.5C 122.737,188.791 122.404,189.791 121.5,190.5C 121.737,189.209 121.404,188.209 120.5,187.5C 104.747,190.117 91.4139,185.784 80.5,174.5C 78.7304,183.063 77.7304,191.729 77.5,200.5C 76.8333,204.5 76.1667,208.5 75.5,212.5C 76.2844,199.838 77.1178,187.171 78,174.5C 79.7863,172.901 81.953,172.067 84.5,172C 82.7585,170.38 80.9252,168.88 79,167.5C 78.1864,162.98 78.353,158.646 79.5,154.5 Z"/></g>
<g><path style="opacity:1" fill="#f1c8c6" d="M 171.5,194.5 C 171.5,194.833 171.5,195.167 171.5,195.5C 172.123,202.255 171.456,208.588 169.5,214.5C 170.165,208.523 170.498,202.523 170.5,196.5C 170.328,195.508 170.662,194.842 171.5,194.5 Z"/></g>
<g><path style="opacity:1" fill="#f3908d" d="M 169.5,188.5 C 171.081,190.142 171.747,192.142 171.5,194.5C 170.662,194.842 170.328,195.508 170.5,196.5C 169.711,196.783 169.044,197.283 168.5,198C 167.885,203.564 167.885,208.898 168.5,214C 167.5,215 166.5,216 165.5,217C 162.305,217.181 159.305,217.681 156.5,218.5C 151.156,218.666 145.823,218.499 140.5,218C 141.696,217.346 141.696,216.846 140.5,216.5C 138.883,217.642 137.05,218.309 135,218.5C 130.521,217.836 126.021,217.502 121.5,217.5C 119.927,214.639 119.261,211.472 119.5,208C 119.503,205.31 119.836,202.81 120.5,200.5C 120.334,204.846 120.501,209.179 121,213.5C 122.758,215.873 124.591,215.873 126.5,213.5C 138.988,214.714 151.321,214.714 163.5,213.5C 165.28,212.01 165.946,210.01 165.5,207.5C 166.234,206.122 166.901,204.622 167.5,203C 166.167,200 166.167,197 167.5,194C 166.956,193.283 166.289,192.783 165.5,192.5C 165.5,192.167 165.5,191.833 165.5,191.5C 165.5,190.5 165.5,189.5 165.5,188.5C 166.833,188.5 168.167,188.5 169.5,188.5 Z"/></g>
<g><path style="opacity:1" fill="#f0dfdf" d="M 120.5,187.5 C 121.404,188.209 121.737,189.209 121.5,190.5C 120.949,193.807 120.616,197.14 120.5,200.5C 119.836,202.81 119.503,205.31 119.5,208C 119.261,211.472 119.927,214.639 121.5,217.5C 129.947,219.02 138.613,219.687 147.5,219.5C 153.676,219.5 159.676,219.166 165.5,218.5C 167.167,217.5 168.5,216.167 169.5,214.5C 171.456,208.588 172.123,202.255 171.5,195.5C 177.441,196.413 183.441,196.746 189.5,196.5C 189.396,200.207 188.396,203.54 186.5,206.5C 186.5,204.167 186.5,201.833 186.5,199.5C 181.734,199.402 177.067,198.736 172.5,197.5C 172.829,203.537 172.496,209.537 171.5,215.5C 169.35,217.149 167.35,218.982 165.5,221C 153.153,221.833 140.82,221.666 128.5,220.5C 124.798,220.134 121.632,218.801 119,216.5C 118.19,206.742 118.69,197.075 120.5,187.5 Z"/></g>
<g><path style="opacity:1" fill="#ecb1af" d="M 156.5,218.5 C 159.5,218.5 162.5,218.5 165.5,218.5C 159.676,219.166 153.676,219.5 147.5,219.5C 138.613,219.687 129.947,219.02 121.5,217.5C 126.021,217.502 130.521,217.836 135,218.5C 137.05,218.309 138.883,217.642 140.5,216.5C 141.696,216.846 141.696,217.346 140.5,218C 145.823,218.499 151.156,218.666 156.5,218.5 Z"/></g>
<g><path style="opacity:1" fill="#ef9f9c" d="M 170.5,196.5 C 170.498,202.523 170.165,208.523 169.5,214.5C 168.5,216.167 167.167,217.5 165.5,218.5C 162.5,218.5 159.5,218.5 156.5,218.5C 159.305,217.681 162.305,217.181 165.5,217C 166.5,216 167.5,215 168.5,214C 167.885,208.898 167.885,203.564 168.5,198C 169.044,197.283 169.711,196.783 170.5,196.5 Z"/></g>
<g><path style="opacity:1" fill="#f4d5d4" d="M 126.5,197.5 C 126.5,202.167 126.5,206.833 126.5,211.5C 136.094,212.985 145.76,213.651 155.5,213.5C 158.167,213.5 160.833,213.5 163.5,213.5C 151.321,214.714 138.988,214.714 126.5,213.5C 125.833,213.5 125.5,213.167 125.5,212.5C 125.179,207.305 125.513,202.305 126.5,197.5 Z"/></g>
<g><path style="opacity:1" fill="#f4b6cf" d="M 113.5,220.5 C 114.833,220.5 116.167,220.5 117.5,220.5C 118.864,225.199 118.697,229.866 117,234.5C 115.989,235.337 114.822,235.67 113.5,235.5C 113.5,230.5 113.5,225.5 113.5,220.5 Z"/></g>
<g><path style="opacity:1" fill="#f3b8d0" d="M 100.5,218.5 C 101.5,218.5 102.5,218.5 103.5,218.5C 104.292,224.13 104.625,229.797 104.5,235.5C 102.61,235.703 101.11,235.037 100,233.5C 99.2223,228.416 99.3889,223.416 100.5,218.5 Z"/></g>
<g><path style="opacity:1" fill="#efdae3" d="M 77.5,200.5 C 75.342,219.39 76.342,238.057 80.5,256.5C 79.4415,255.4 78.6082,254.066 78,252.5C 75.7253,239.281 74.892,225.948 75.5,212.5C 76.1667,208.5 76.8333,204.5 77.5,200.5 Z"/></g>
<g><path style="opacity:1" fill="#f6b7d0" d="M 115.5,244.5 C 117.213,252.389 116.713,260.055 114,267.5C 111.383,270.985 107.883,272.652 103.5,272.5C 100.51,269.662 99.1771,266.162 99.5,262C 99.9425,255.17 101.609,248.67 104.5,242.5C 108.891,239.517 112.557,240.184 115.5,244.5 Z"/></g>
<g><path style="opacity:1" fill="#eddde3" d="M 197.5,186.5 C 192.663,204.976 189.33,223.643 187.5,242.5C 188.46,243.812 188.294,245.146 187,246.5C 186.776,253.315 185.776,259.982 184,266.5C 183.292,267.381 182.458,268.047 181.5,268.5C 184.178,246.435 187.511,224.435 191.5,202.5C 192.935,196.852 194.935,191.518 197.5,186.5 Z"/></g>
<g><path style="opacity:1" fill="#f0dbe3" d="M 108.5,247.5 C 109.209,246.596 110.209,246.263 111.5,246.5C 112.851,252.19 112.684,257.857 111,263.5C 107.455,269.087 105.288,268.753 104.5,262.5C 104.892,259.151 105.392,255.817 106,252.5C 106.374,250.509 107.207,248.842 108.5,247.5 Z"/></g>
<g><path style="opacity:1" fill="#e7e5e6" d="M 108.5,247.5 C 109.8,249.223 110.467,251.39 110.5,254C 110.887,258.243 109.887,262.076 107.5,265.5C 107.167,263.5 106.833,261.5 106.5,259.5C 106.577,255.368 107.244,251.368 108.5,247.5 Z"/></g>
<g><path style="opacity:1" fill="#efd0dd" d="M 115.5,244.5 C 117.983,251.623 118.15,258.956 116,266.5C 113.317,272.097 109.15,274.097 103.5,272.5C 107.883,272.652 111.383,270.985 114,267.5C 116.713,260.055 117.213,252.389 115.5,244.5 Z"/></g>
<g><path style="opacity:1" fill="#efd4df" d="M 124.5,290.5 C 133.795,291.662 143.128,292.328 152.5,292.5C 150.651,293.837 148.484,294.503 146,294.5C 139.155,293.765 132.321,292.932 125.5,292C 124.944,291.617 124.611,291.117 124.5,290.5 Z"/></g>
</svg>
