<?xml version="1.0" encoding="UTF-8"?>
<!DOCTYPE svg PUBLIC "-//W3C//DTD SVG 1.1//EN" "http://www.w3.org/Graphics/SVG/1.1/DTD/svg11.dtd">
<svg xmlns="http://www.w3.org/2000/svg" version="1.1" width="251px" height="251px" style="shape-rendering:geometricPrecision; text-rendering:geometricPrecision; image-rendering:optimizeQuality; fill-rule:evenodd; clip-rule:evenodd" xmlns:xlink="http://www.w3.org/1999/xlink">
<g><path style="opacity:1" fill="#e5e6e5" d="M -0.5,-0.5 C 83.1667,-0.5 166.833,-0.5 250.5,-0.5C 250.5,83.1667 250.5,166.833 250.5,250.5C 166.833,250.5 83.1667,250.5 -0.5,250.5C -0.5,166.833 -0.5,83.1667 -0.5,-0.5 Z"/></g>
<g><path style="opacity:1" fill="#d0efd9" d="M 169.5,14.5 C 167.938,14.2671 166.605,13.6005 165.5,12.5C 165.027,11.0937 164.027,10.427 162.5,10.5C 149.17,5.22912 135.503,4.22912 121.5,7.5C 123.372,5.93846 125.705,4.93846 128.5,4.5C 134.807,3.33608 141.141,3.16941 147.5,4C 152.1,5.31907 156.767,6.65241 161.5,8C 164.913,9.24591 167.579,11.4126 169.5,14.5 Z"/></g>
<g><path style="opacity:1" fill="#a2e0b4" d="M 162.5,10.5 C 164.027,10.427 165.027,11.0937 165.5,12.5C 163.973,12.573 162.973,11.9063 162.5,10.5 Z"/></g>
<g><path style="opacity:1" fill="#c5efd1" d="M 112.5,11.5 C 110.046,14.2813 107.046,16.2813 103.5,17.5C 105.525,15.9249 107.525,14.0916 109.5,12C 110.448,11.5172 111.448,11.3505 112.5,11.5 Z"/></g>
<g><path style="opacity:1" fill="#beeccc" d="M 169.5,14.5 C 171.027,14.427 172.027,15.0937 172.5,16.5C 170.973,16.573 169.973,15.9063 169.5,14.5 Z"/></g>
<g><path style="opacity:1" fill="#c2ecce" d="M 103.5,17.5 C 101.879,19.942 99.5458,21.2753 96.5,21.5C 98.454,19.7304 100.787,18.3971 103.5,17.5 Z"/></g>
<g><path style="opacity:1" fill="#c3edd0" d="M 177.5,21.5 C 179.531,22.5387 180.864,24.2054 181.5,26.5C 179.457,25.4206 178.124,23.754 177.5,21.5 Z"/></g>
<g><path style="opacity:1" fill="#d0f0d8" d="M 86.5,27.5 C 83.7089,29.7349 80.7089,31.7349 77.5,33.5C 79.431,29.9903 82.431,27.9903 86.5,27.5 Z"/></g>
<g><path style="opacity:1" fill="#bceccb" d="M 182.5,29.5 C 183.458,29.9528 184.292,30.6195 185,31.5C 186.544,37.9617 186.711,44.295 185.5,50.5C 185.98,43.1914 184.98,36.1914 182.5,29.5 Z"/></g>
<g><path style="opacity:1" fill="#a3e3b5" d="M 62.5,46.5 C 61.1667,48.5 59.5,50.1667 57.5,51.5C 58.1667,48.8333 59.8333,47.1667 62.5,46.5 Z"/></g>
<g><path style="opacity:1" fill="#d3ebda" d="M 136.5,50.5 C 136.145,53.3677 134.812,55.701 132.5,57.5C 127.678,61.3022 122.345,64.3022 116.5,66.5C 123.136,61.1751 129.803,55.8418 136.5,50.5 Z"/></g>
<g><path style="opacity:1" fill="#caefd4" d="M 121.5,57.5 C 119.704,59.9 117.37,61.5667 114.5,62.5C 116.15,59.9394 118.484,58.2727 121.5,57.5 Z"/></g>
<g><path style="opacity:1" fill="#cdedd6" d="M 177.5,59.5 C 176.921,62.3311 175.588,64.6644 173.5,66.5C 173.599,63.3607 174.932,61.0274 177.5,59.5 Z"/></g>
<g><path style="opacity:1" fill="#cdebd5" d="M 185.5,50.5 C 185.176,59.1216 181.51,65.7883 174.5,70.5C 179.198,64.4393 182.865,57.7726 185.5,50.5 Z"/></g>
<g><path style="opacity:1" fill="#b7e9c5" d="M 113.5,64.5 C 110.5,66.8333 107.833,69.5 105.5,72.5C 106.464,68.2029 109.13,65.5362 113.5,64.5 Z"/></g>
<g><path style="opacity:1" fill="#c7eed2" d="M 116.5,66.5 C 114.833,68.8333 112.833,70.8333 110.5,72.5C 111.5,69.5 113.5,67.5 116.5,66.5 Z"/></g>
<g><path style="opacity:1" fill="#cdecd6" d="M 58.5,56.5 C 54.0181,65.2053 50.3515,74.2053 47.5,83.5C 47.8408,75.3865 50.1741,68.0531 54.5,61.5C 55.0798,59.2512 56.4131,57.5846 58.5,56.5 Z"/></g>
<g><path style="opacity:1" fill="#c7ecd2" d="M 168.5,71.5 C 167.5,73.1667 166.167,74.5 164.5,75.5C 164.525,72.821 165.858,71.4877 168.5,71.5 Z"/></g>
<g><path style="opacity:1" fill="#c8ebd2" d="M 174.5,70.5 C 172.034,74.1351 169.368,77.6351 166.5,81C 164.846,81.6077 163.179,82.1077 161.5,82.5C 165.56,78.2859 169.894,74.2859 174.5,70.5 Z"/></g>
<g><path style="opacity:1" fill="#71cd8b" d="M 52.5,59.5 C 52.5,60.8333 53.1667,61.5 54.5,61.5C 50.1741,68.0531 47.8408,75.3865 47.5,83.5C 47.1667,83.5 46.8333,83.5 46.5,83.5C 46.6633,81.1432 46.4966,78.8098 46,76.5C 45.6174,77.056 45.1174,77.3893 44.5,77.5C 44.6287,75.7839 44.962,74.1172 45.5,72.5C 46.933,69.7177 48.0997,66.7177 49,63.5C 49.9487,61.9069 51.1154,60.5736 52.5,59.5 Z"/></g>
<g><path style="opacity:1" fill="#d2f1db" d="M 45.5,72.5 C 44.962,74.1172 44.6287,75.7839 44.5,77.5C 44.7373,78.791 44.404,79.791 43.5,80.5C 42.9644,77.3019 43.631,74.6353 45.5,72.5 Z"/></g>
<g><path style="opacity:1" fill="#d0f0d9" d="M 105.5,72.5 C 102.243,78.3385 99.576,84.3385 97.5,90.5C 97.4831,83.2085 100.15,77.2085 105.5,72.5 Z"/></g>
<g><path style="opacity:1" fill="#d0ebd8" d="M 110.5,72.5 C 108.774,78.3709 106.107,83.7042 102.5,88.5C 102.5,88.1667 102.5,87.8333 102.5,87.5C 103.509,84.9514 104.342,82.2848 105,79.5C 106.572,76.8926 108.406,74.5593 110.5,72.5 Z"/></g>
<g><path style="opacity:1" fill="#64cb82" d="M 136.5,50.5 C 129.803,55.8418 123.136,61.1751 116.5,66.5C 113.5,67.5 111.5,69.5 110.5,72.5C 108.406,74.5593 106.572,76.8926 105,79.5C 104.342,82.2848 103.509,84.9514 102.5,87.5C 101.883,87.6107 101.383,87.944 101,88.5C 100.5,95.1583 100.334,101.825 100.5,108.5C 100.975,111.082 100.308,113.082 98.5,114.5C 97.677,106.529 97.3437,98.5288 97.5,90.5C 99.576,84.3385 102.243,78.3385 105.5,72.5C 107.833,69.5 110.5,66.8333 113.5,64.5C 113.833,63.8333 114.167,63.1667 114.5,62.5C 117.37,61.5667 119.704,59.9 121.5,57.5C 127.855,55.1446 132.189,50.8113 134.5,44.5C 135.158,43.6016 135.824,42.6016 136.5,41.5C 137.086,41.7093 137.586,42.0426 138,42.5C 137.389,45.0329 136.889,47.6996 136.5,50.5 Z"/></g>
<g><path style="opacity:1" fill="#a8e6ba" d="M 159.5,79.5 C 158.833,80.8333 157.833,81.8333 156.5,82.5C 156.5,80.5 157.5,79.5 159.5,79.5 Z"/></g>
<g><path style="opacity:1" fill="#c3f3d1" d="M 43.5,80.5 C 43.5676,88.5136 43.901,96.5136 44.5,104.5C 42.5027,96.55 42.1694,88.55 43.5,80.5 Z"/></g>
<g><path style="opacity:1" fill="#c4edd0" d="M 161.5,82.5 C 157.528,86.8073 153.528,91.1407 149.5,95.5C 152.171,89.8336 156.171,85.5002 161.5,82.5 Z"/></g>
<g><path style="opacity:1" fill="#67cc84" d="M 46.5,83.5 C 46.239,90.0723 46.9057,96.4056 48.5,102.5C 48.2322,104.099 48.5655,105.432 49.5,106.5C 49.8389,111.246 51.1722,115.58 53.5,119.5C 53.5,119.833 53.5,120.167 53.5,120.5C 53.6596,122.153 54.3263,123.486 55.5,124.5C 56.9458,128.877 58.9458,132.877 61.5,136.5C 64.4747,142.441 67.9747,148.107 72,153.5C 72.4828,154.448 72.6495,155.448 72.5,156.5C 73.542,159.423 74.8754,162.09 76.5,164.5C 77.2097,168.025 78.2097,171.358 79.5,174.5C 80.3601,185.722 78.3601,196.389 73.5,206.5C 71.2774,209.144 69.6107,212.144 68.5,215.5C 68.573,217.027 67.9063,218.027 66.5,218.5C 64.1,220.296 62.4333,222.63 61.5,225.5C 58.4275,227.569 56.0941,230.236 54.5,233.5C 51.8021,233.845 49.8021,235.178 48.5,237.5C 46.8828,238.038 45.2161,238.371 43.5,238.5C 43.281,237.325 43.6143,236.325 44.5,235.5C 48.9235,232.624 52.9235,229.291 56.5,225.5C 57.9063,225.027 58.573,224.027 58.5,222.5C 63.4386,217.614 67.1053,211.948 69.5,205.5C 70.9313,204.22 71.5979,202.553 71.5,200.5C 73.4725,197.916 74.4725,194.916 74.5,191.5C 76.0392,188.135 76.7058,184.469 76.5,180.5C 76.4975,177.645 76.1641,174.978 75.5,172.5C 74.8333,171.167 74.1667,169.833 73.5,168.5C 73.477,166.073 72.977,163.74 72,161.5C 70.1282,158.404 68.2948,155.404 66.5,152.5C 61.3619,144.714 56.6952,136.714 52.5,128.5C 51.1314,124.336 49.4647,120.336 47.5,116.5C 46.962,114.883 46.6287,113.216 46.5,111.5C 46.5905,108.848 45.9238,106.515 44.5,104.5C 43.901,96.5136 43.5676,88.5136 43.5,80.5C 44.404,79.791 44.7373,78.791 44.5,77.5C 45.1174,77.3893 45.6174,77.056 46,76.5C 46.4966,78.8098 46.6633,81.1432 46.5,83.5 Z"/></g>
<g><path style="opacity:1" fill="#caefd5" d="M 149.5,88.5 C 148.649,90.8816 147.316,92.8816 145.5,94.5C 145.354,91.4461 146.687,89.4461 149.5,88.5 Z"/></g>
<g><path style="opacity:1" fill="#c8f0d5" d="M 46.5,83.5 C 46.8333,83.5 47.1667,83.5 47.5,83.5C 47.6527,89.845 47.986,96.1783 48.5,102.5C 46.9057,96.4056 46.239,90.0723 46.5,83.5 Z"/></g>
<g><path style="opacity:1" fill="#b5e7c4" d="M 102.5,87.5 C 102.5,87.8333 102.5,88.1667 102.5,88.5C 101.54,95.0779 101.207,101.745 101.5,108.5C 101.167,108.5 100.833,108.5 100.5,108.5C 100.334,101.825 100.5,95.1583 101,88.5C 101.383,87.944 101.883,87.6107 102.5,87.5 Z"/></g>
<g><path style="opacity:1" fill="#bde9c9" d="M 149.5,95.5 C 149.818,98.4815 148.818,100.815 146.5,102.5C 146.706,99.7616 147.706,97.4282 149.5,95.5 Z"/></g>
<g><path style="opacity:1" fill="#d3f0dc" d="M 97.5,90.5 C 97.3437,98.5288 97.677,106.529 98.5,114.5C 98.9926,116.806 99.3259,119.139 99.5,121.5C 98.0188,118.393 96.8521,115.059 96,111.5C 95.8333,108 95.6667,104.5 95.5,101C 95.5123,97.0982 96.179,93.5982 97.5,90.5 Z"/></g>
<g><path style="opacity:1" fill="#bbedc9" d="M 44.5,104.5 C 45.9238,106.515 46.5905,108.848 46.5,111.5C 45.0762,109.485 44.4095,107.152 44.5,104.5 Z"/></g>
<g><path style="opacity:1" fill="#a7e7ba" d="M 141.5,105.5 C 141.392,110.87 141.725,116.203 142.5,121.5C 142.167,121.5 141.833,121.5 141.5,121.5C 140.243,116.036 140.243,110.703 141.5,105.5 Z"/></g>
<g><path style="opacity:1" fill="#d4eddb" d="M 49.5,106.5 C 50.1174,106.611 50.6174,106.944 51,107.5C 52.1538,111.454 52.9871,115.454 53.5,119.5C 51.1722,115.58 49.8389,111.246 49.5,106.5 Z"/></g>
<g><path style="opacity:1" fill="#c0eacc" d="M 146.5,103.5 C 145.232,109.839 145.232,116.172 146.5,122.5C 145.883,122.389 145.383,122.056 145,121.5C 144.333,116.167 144.333,110.833 145,105.5C 145.278,104.584 145.778,103.918 146.5,103.5 Z"/></g>
<g><path style="opacity:1" fill="#c9edd4" d="M 74.5,116.5 C 75.8845,115.199 77.3845,115.199 79,116.5C 80.2573,122.769 80.7573,129.102 80.5,135.5C 78.901,135.768 77.5676,135.434 76.5,134.5C 77.5,134.5 78.5,134.5 79.5,134.5C 79.691,129.101 79.191,123.767 78,118.5C 77.2904,117.027 76.1238,116.36 74.5,116.5 Z"/></g>
<g><path style="opacity:1" fill="#73ce8d" d="M 100.5,108.5 C 100.833,108.5 101.167,108.5 101.5,108.5C 101.342,111.902 101.676,115.236 102.5,118.5C 101.883,118.389 101.383,118.056 101,117.5C 100.51,118.793 100.343,120.127 100.5,121.5C 100.167,121.5 99.8333,121.5 99.5,121.5C 99.3259,119.139 98.9926,116.806 98.5,114.5C 100.308,113.082 100.975,111.082 100.5,108.5 Z"/></g>
<g><path style="opacity:1" fill="#67c984" d="M 74.5,116.5 C 76.1238,116.36 77.2904,117.027 78,118.5C 79.191,123.767 79.691,129.101 79.5,134.5C 78.5,134.5 77.5,134.5 76.5,134.5C 76.5,134.167 76.5,133.833 76.5,133.5C 77.7647,132.486 78.4313,130.986 78.5,129C 78.3028,125.013 77.4695,121.179 76,117.5C 75.5026,120.146 75.3359,122.813 75.5,125.5C 74.5233,122.713 74.19,119.713 74.5,116.5 Z"/></g>
<g><path style="opacity:1" fill="#d5efdd" d="M 47.5,116.5 C 49.4647,120.336 51.1314,124.336 52.5,128.5C 51.5416,128.047 50.7083,127.381 50,126.5C 48.3923,123.379 47.5589,120.046 47.5,116.5 Z"/></g>
<g><path style="opacity:1" fill="#a9deba" d="M 162.5,123.5 C 160.576,125.485 158.576,127.485 156.5,129.5C 156.5,125.833 156.5,122.167 156.5,118.5C 157.833,118.5 159.167,118.5 160.5,118.5C 160.077,120.781 160.744,122.448 162.5,123.5 Z"/></g>
<g><path style="opacity:1" fill="#c1edcd" d="M 53.5,120.5 C 55.1042,121.287 55.7709,122.62 55.5,124.5C 54.3263,123.486 53.6596,122.153 53.5,120.5 Z"/></g>
<g><path style="opacity:1" fill="#b0e5c0" d="M 90.5,117.5 C 91.4959,117.414 92.3292,117.748 93,118.5C 93.4974,121.146 93.6641,123.813 93.5,126.5C 92.8333,124.167 92.1667,121.833 91.5,119.5C 91.1667,118.833 90.8333,118.167 90.5,117.5 Z"/></g>
<g><path style="opacity:1" fill="#ceead7" d="M 164.5,116.5 C 165.568,115.566 166.901,115.232 168.5,115.5C 168.893,118.93 168.227,122.096 166.5,125C 168.058,125.21 169.391,125.71 170.5,126.5C 168.396,126.799 166.396,126.466 164.5,125.5C 166.494,122.85 167.494,119.85 167.5,116.5C 166.5,116.5 165.5,116.5 164.5,116.5 Z"/></g>
<g><path style="opacity:1" fill="#ccefd5" d="M 74.5,116.5 C 74.19,119.713 74.5233,122.713 75.5,125.5C 75.2786,128.279 75.612,130.946 76.5,133.5C 76.5,133.833 76.5,134.167 76.5,134.5C 75.5416,134.047 74.7083,133.381 74,132.5C 73.1826,126.984 73.3493,121.65 74.5,116.5 Z"/></g>
<g><path style="opacity:1" fill="#c7ebd1" d="M 101.5,108.5 C 102.117,108.611 102.617,108.944 103,109.5C 103.591,116.616 104.757,123.616 106.5,130.5C 104.137,126.922 102.804,122.922 102.5,118.5C 101.676,115.236 101.342,111.902 101.5,108.5 Z"/></g>
<g><path style="opacity:1" fill="#5cc97c" d="M 90.5,117.5 C 90.8333,118.167 91.1667,118.833 91.5,119.5C 92.1667,121.833 92.8333,124.167 93.5,126.5C 93.5987,129.237 93.2653,131.904 92.5,134.5C 91.5,134.5 90.5,134.5 89.5,134.5C 88.9782,131.201 88.6449,127.867 88.5,124.5C 88.5286,121.731 89.1952,119.397 90.5,117.5 Z"/></g>
<g><path style="opacity:1" fill="#3fcf6a" d="M 91.5,119.5 C 91.6657,123.846 91.499,128.179 91,132.5C 89.964,130.13 89.464,127.63 89.5,125C 89.5465,122.705 90.2132,120.871 91.5,119.5 Z"/></g>
<g><path style="opacity:1" fill="#8bd7a2" d="M 164.5,116.5 C 165.5,116.5 166.5,116.5 167.5,116.5C 167.494,119.85 166.494,122.85 164.5,125.5C 166.396,126.466 168.396,126.799 170.5,126.5C 166.623,128.172 162.623,129.839 158.5,131.5C 156.152,131.592 154.486,132.592 153.5,134.5C 151.738,133.738 150.738,132.404 150.5,130.5C 152.621,130.675 154.621,130.341 156.5,129.5C 158.576,127.485 160.576,125.485 162.5,123.5C 164.168,121.521 164.834,119.188 164.5,116.5 Z"/></g>
<g><path style="opacity:1" fill="#d1edd9" d="M 55.5,124.5 C 59.0771,127.654 61.0771,131.654 61.5,136.5C 58.9458,132.877 56.9458,128.877 55.5,124.5 Z"/></g>
<g><path style="opacity:1" fill="#4dcb72" d="M 76.5,133.5 C 75.612,130.946 75.2786,128.279 75.5,125.5C 75.3359,122.813 75.5026,120.146 76,117.5C 77.4695,121.179 78.3028,125.013 78.5,129C 78.4313,130.986 77.7647,132.486 76.5,133.5 Z"/></g>
<g><path style="opacity:1" fill="#d1f1da" d="M 90.5,117.5 C 89.1952,119.397 88.5286,121.731 88.5,124.5C 88.6449,127.867 88.9782,131.201 89.5,134.5C 87.5467,128.926 86.88,122.926 87.5,116.5C 88.791,116.263 89.791,116.596 90.5,117.5 Z"/></g>
<g><path style="opacity:1" fill="#d5ecdb" d="M 141.5,121.5 C 141.833,121.5 142.167,121.5 142.5,121.5C 144.178,125.173 145.844,128.839 147.5,132.5C 147.027,133.906 146.027,134.573 144.5,134.5C 142.62,134.771 141.287,134.104 140.5,132.5C 142.239,133.434 143.905,133.434 145.5,132.5C 143.324,129.146 141.99,125.479 141.5,121.5 Z"/></g>
<g><path style="opacity:1" fill="#c5eed0" d="M 93.5,126.5 C 94.1558,127.622 94.4892,128.955 94.5,130.5C 94.4146,132.333 93.7479,133.666 92.5,134.5C 93.2653,131.904 93.5987,129.237 93.5,126.5 Z"/></g>
<g><path style="opacity:1" fill="#bee5c9" d="M 136.5,129.5 C 132.021,129.328 130.187,131.328 131,135.5C 132.011,136.337 133.178,136.67 134.5,136.5C 134.5,138.5 134.5,140.5 134.5,142.5C 134.5,142.833 134.5,143.167 134.5,143.5C 134.167,143.5 133.833,143.5 133.5,143.5C 133.649,142.448 133.483,141.448 133,140.5C 128.127,137.511 127.294,133.677 130.5,129C 132.712,128.211 134.712,128.378 136.5,129.5 Z"/></g>
<g><path style="opacity:1" fill="#c3eecf" d="M 101.5,129.5 C 103.28,130.99 103.946,132.99 103.5,135.5C 101.926,133.898 101.259,131.898 101.5,129.5 Z"/></g>
<g><path style="opacity:1" fill="#a6e4b8" d="M 136.5,129.5 C 138.632,129.554 139.965,130.554 140.5,132.5C 141.287,134.104 142.62,134.771 144.5,134.5C 144.083,135.124 143.416,135.457 142.5,135.5C 139.647,133.732 136.647,132.565 133.5,132C 133.043,132.414 132.709,132.914 132.5,133.5C 134.429,135.06 135.762,137.06 136.5,139.5C 136.058,140.739 135.391,141.739 134.5,142.5C 134.5,140.5 134.5,138.5 134.5,136.5C 133.178,136.67 132.011,136.337 131,135.5C 130.187,131.328 132.021,129.328 136.5,129.5 Z"/></g>
<g><path style="opacity:1" fill="#65cc83" d="M 162.5,10.5 C 162.973,11.9063 163.973,12.573 165.5,12.5C 166.605,13.6005 167.938,14.2671 169.5,14.5C 169.973,15.9063 170.973,16.573 172.5,16.5C 173.833,18.5 175.5,20.1667 177.5,21.5C 178.124,23.754 179.457,25.4206 181.5,26.5C 182.11,27.391 182.443,28.391 182.5,29.5C 184.98,36.1914 185.98,43.1914 185.5,50.5C 182.865,57.7726 179.198,64.4393 174.5,70.5C 169.894,74.2859 165.56,78.2859 161.5,82.5C 156.171,85.5002 152.171,89.8336 149.5,95.5C 147.706,97.4282 146.706,99.7616 146.5,102.5C 146.5,102.833 146.5,103.167 146.5,103.5C 145.778,103.918 145.278,104.584 145,105.5C 144.333,110.833 144.333,116.167 145,121.5C 145.383,122.056 145.883,122.389 146.5,122.5C 147.429,125.412 148.762,128.079 150.5,130.5C 150.738,132.404 151.738,133.738 153.5,134.5C 155.368,139.04 158.368,142.707 162.5,145.5C 164.482,148.81 166.815,151.81 169.5,154.5C 170.242,156.98 171.242,159.313 172.5,161.5C 173.468,164.1 174.801,166.434 176.5,168.5C 176.5,168.833 176.5,169.167 176.5,169.5C 180.263,180.966 181.096,192.633 179,204.5C 177.776,208.023 176.276,211.356 174.5,214.5C 173.5,214.5 172.5,214.5 171.5,214.5C 173.372,210.738 174.705,206.738 175.5,202.5C 176.579,199.383 177.246,196.05 177.5,192.5C 177.22,186.885 176.22,181.551 174.5,176.5C 174.5,176.167 174.5,175.833 174.5,175.5C 173.4,169.441 171.234,163.775 168,158.5C 161.922,151.267 156.089,143.934 150.5,136.5C 150.446,134.368 149.446,133.035 147.5,132.5C 145.844,128.839 144.178,125.173 142.5,121.5C 141.725,116.203 141.392,110.87 141.5,105.5C 142.833,101.833 144.167,98.1667 145.5,94.5C 147.316,92.8816 148.649,90.8816 149.5,88.5C 151.533,86.1321 153.867,84.1321 156.5,82.5C 157.833,81.8333 158.833,80.8333 159.5,79.5C 161.179,78.0837 162.846,76.7503 164.5,75.5C 166.167,74.5 167.5,73.1667 168.5,71.5C 169.833,69.5 171.5,67.8333 173.5,66.5C 175.588,64.6644 176.921,62.3311 177.5,59.5C 179.065,57.4907 180.065,55.1573 180.5,52.5C 181.222,52.0825 181.722,51.4158 182,50.5C 182.667,45.8333 182.667,41.1667 182,36.5C 181.528,32.8895 180.028,29.8895 177.5,27.5C 176.728,26.3065 175.728,25.3065 174.5,24.5C 173.581,21.9108 171.914,19.9108 169.5,18.5C 168.391,18.4431 167.391,18.1098 166.5,17.5C 164.103,15.47 161.437,13.8033 158.5,12.5C 156.401,11.3882 154.067,10.7215 151.5,10.5C 150.01,8.72017 148.01,8.05351 145.5,8.5C 132.262,7.14278 120.262,10.1428 109.5,17.5C 106.883,18.7859 104.55,20.4525 102.5,22.5C 92.606,27.4407 83.2726,33.1074 74.5,39.5C 72.8608,40.4725 71.5274,41.8058 70.5,43.5C 68.5,43.5 67.5,44.5 67.5,46.5C 65.2512,47.0798 63.5846,48.4131 62.5,50.5C 62.5,50.8333 62.5,51.1667 62.5,51.5C 60.4131,52.5846 59.0798,54.2512 58.5,56.5C 56.4131,57.5846 55.0798,59.2512 54.5,61.5C 53.1667,61.5 52.5,60.8333 52.5,59.5C 53.6551,56.5251 55.3218,53.8584 57.5,51.5C 59.5,50.1667 61.1667,48.5 62.5,46.5C 63.5903,44.5633 64.9236,42.73 66.5,41C 70.3447,38.637 74.0113,36.137 77.5,33.5C 80.7089,31.7349 83.7089,29.7349 86.5,27.5C 90.005,25.6777 93.3384,23.6777 96.5,21.5C 99.5458,21.2753 101.879,19.942 103.5,17.5C 107.046,16.2813 110.046,14.2813 112.5,11.5C 115.55,10.0738 118.55,8.7405 121.5,7.5C 135.503,4.22912 149.17,5.22912 162.5,10.5 Z"/></g>
<g><path style="opacity:1" fill="#c6ecd1" d="M 62.5,51.5 C 61.9202,53.7488 60.5869,55.4154 58.5,56.5C 59.0798,54.2512 60.4131,52.5846 62.5,51.5 Z"/></g>
<g><path style="opacity:1" fill="#b7eac6" d="M 67.5,46.5 C 66.4154,48.5869 64.7488,49.9202 62.5,50.5C 63.5846,48.4131 65.2512,47.0798 67.5,46.5 Z"/></g>
<g><path style="opacity:1" fill="#cfe6d5" d="M 128.5,23.5 C 122.063,25.5979 116.063,28.5979 110.5,32.5C 110.719,33.675 110.386,34.675 109.5,35.5C 105.651,38.3776 101.317,40.211 96.5,41C 93.0906,43.0339 90.0906,45.5339 87.5,48.5C 83.878,49.6586 80.2113,49.8253 76.5,49C 75.8803,46.5272 75.2136,44.0272 74.5,41.5C 73.3777,42.6302 72.0443,43.2969 70.5,43.5C 71.5274,41.8058 72.8608,40.4725 74.5,39.5C 75.7351,42.4891 77.9018,44.8224 81,46.5C 83.1956,45.9097 85.3622,45.2431 87.5,44.5C 88.2975,44.0431 88.6309,43.3764 88.5,42.5C 92.4113,40.7534 96.4113,39.2534 100.5,38C 101.532,36.3732 102.866,35.2066 104.5,34.5C 105.552,34.6495 106.552,34.4828 107.5,34C 111.747,30.056 116.414,26.8893 121.5,24.5C 122.167,24.5 122.833,24.5 123.5,24.5C 125.117,23.962 126.784,23.6287 128.5,23.5 Z"/></g>
<g><path style="opacity:1" fill="#c0edcd" d="M 70.5,43.5 C 69.8333,44.8333 68.8333,45.8333 67.5,46.5C 67.5,44.5 68.5,43.5 70.5,43.5 Z"/></g>
<g><path style="opacity:1" fill="#c8eed4" d="M 177.5,27.5 C 180.028,29.8895 181.528,32.8895 182,36.5C 182.667,41.1667 182.667,45.8333 182,50.5C 181.722,51.4158 181.222,52.0825 180.5,52.5C 180.982,49.6984 181.316,46.865 181.5,44C 180.423,38.4019 179.09,32.9019 177.5,27.5 Z"/></g>
<g><path style="opacity:1" fill="#beeacb" d="M 136.5,50.5 C 136.889,47.6996 137.389,45.0329 138,42.5C 137.586,42.0426 137.086,41.7093 136.5,41.5C 135.824,42.6016 135.158,43.6016 134.5,44.5C 134.5,43.1667 134.5,41.8333 134.5,40.5C 136.167,40.5 137.833,40.5 139.5,40.5C 139.975,44.4158 138.975,47.7491 136.5,50.5 Z"/></g>
<g><path style="opacity:1" fill="#91e2a9" d="M 88.5,42.5 C 86.283,43.3686 83.9496,43.702 81.5,43.5C 81.67,42.1779 81.3366,41.0113 80.5,40C 82.4386,39.0922 83.4386,37.5922 83.5,35.5C 89.6059,31.9447 95.9393,28.6114 102.5,25.5C 104.497,24.1913 106.497,22.8579 108.5,21.5C 113.14,22.581 113.473,24.2476 109.5,26.5C 108.522,26.0233 107.689,25.3567 107,24.5C 105.167,26 103.333,27.5 101.5,29C 100.236,30.975 99.2361,33.475 98.5,36.5C 96.6916,36.4914 95.0249,36.9914 93.5,38C 91.9571,39.7392 90.2904,41.2392 88.5,42.5 Z"/></g>
<g><path style="opacity:1" fill="#b5eac4" d="M 102.5,22.5 C 103.239,22.369 103.906,22.5357 104.5,23C 103.619,23.7083 102.953,24.5416 102.5,25.5C 95.9393,28.6114 89.6059,31.9447 83.5,35.5C 83.4386,37.5922 82.4386,39.0922 80.5,40C 81.3366,41.0113 81.67,42.1779 81.5,43.5C 83.9496,43.702 86.283,43.3686 88.5,42.5C 88.6309,43.3764 88.2975,44.0431 87.5,44.5C 85.3622,45.2431 83.1956,45.9097 81,46.5C 77.9018,44.8224 75.7351,42.4891 74.5,39.5C 83.2726,33.1074 92.606,27.4407 102.5,22.5 Z"/></g>
<g><path style="opacity:1" fill="#a1e5b5" d="M 109.5,17.5 C 109.047,18.4584 108.381,19.2917 107.5,20C 109.33,20.1816 110.997,19.6816 112.5,18.5C 111.34,20.2027 112.007,20.8693 114.5,20.5C 114.312,22.1033 114.812,23.4366 116,24.5C 120.83,20.7491 126.33,19.0824 132.5,19.5C 130.708,20.3091 128.708,20.8091 126.5,21C 124.937,21.7589 123.937,22.9256 123.5,24.5C 122.833,24.5 122.167,24.5 121.5,24.5C 116.69,25.5716 112.357,27.7382 108.5,31C 107.207,31.49 105.873,31.6567 104.5,31.5C 104.5,32.5 104.5,33.5 104.5,34.5C 102.866,35.2066 101.532,36.3732 100.5,38C 96.4113,39.2534 92.4113,40.7534 88.5,42.5C 90.2904,41.2392 91.9571,39.7392 93.5,38C 95.0249,36.9914 96.6916,36.4914 98.5,36.5C 99.2361,33.475 100.236,30.975 101.5,29C 103.333,27.5 105.167,26 107,24.5C 107.689,25.3567 108.522,26.0233 109.5,26.5C 113.473,24.2476 113.14,22.581 108.5,21.5C 106.497,22.8579 104.497,24.1913 102.5,25.5C 102.953,24.5416 103.619,23.7083 104.5,23C 103.906,22.5357 103.239,22.369 102.5,22.5C 104.55,20.4525 106.883,18.7859 109.5,17.5 Z"/></g>
<g><path style="opacity:1" fill="#bae5c5" d="M 121.5,24.5 C 116.414,26.8893 111.747,30.056 107.5,34C 106.552,34.4828 105.552,34.6495 104.5,34.5C 104.5,33.5 104.5,32.5 104.5,31.5C 105.873,31.6567 107.207,31.49 108.5,31C 112.357,27.7382 116.69,25.5716 121.5,24.5 Z"/></g>
<g><path style="opacity:1" fill="#dae7dd" d="M 158.5,12.5 C 161.437,13.8033 164.103,15.47 166.5,17.5C 163.74,16.4305 160.907,15.4305 158,14.5C 157.337,17.8158 155.837,20.6492 153.5,23C 145.173,23.4997 136.84,23.6664 128.5,23.5C 128.918,22.7784 129.584,22.2784 130.5,22C 137.553,21.8421 144.553,21.6754 151.5,21.5C 153.371,18.7659 154.371,15.7659 154.5,12.5C 155.833,12.5 157.167,12.5 158.5,12.5 Z"/></g>
<g><path style="opacity:1" fill="#c1e6cb" d="M 151.5,10.5 C 154.067,10.7215 156.401,11.3882 158.5,12.5C 157.167,12.5 155.833,12.5 154.5,12.5C 154.371,15.7659 153.371,18.7659 151.5,21.5C 144.553,21.6754 137.553,21.8421 130.5,22C 129.584,22.2784 128.918,22.7784 128.5,23.5C 126.784,23.6287 125.117,23.962 123.5,24.5C 123.937,22.9256 124.937,21.7589 126.5,21C 128.708,20.8091 130.708,20.3091 132.5,19.5C 137.858,19.7377 143.191,19.9043 148.5,20C 152.646,17.8997 153.313,15.0664 150.5,11.5C 150.624,10.8933 150.957,10.56 151.5,10.5 Z"/></g>
<g><path style="opacity:1" fill="#beebca" d="M 169.5,18.5 C 171.914,19.9108 173.581,21.9108 174.5,24.5C 172.086,23.0892 170.419,21.0892 169.5,18.5 Z"/></g>
<g><path style="opacity:1" fill="#a9e5ba" d="M 145.5,8.5 C 148.01,8.05351 150.01,8.72017 151.5,10.5C 150.957,10.56 150.624,10.8933 150.5,11.5C 153.313,15.0664 152.646,17.8997 148.5,20C 143.191,19.9043 137.858,19.7377 132.5,19.5C 132.369,18.6236 132.702,17.9569 133.5,17.5C 137.834,17.5002 142.167,17.5002 146.5,17.5C 147.986,15.6984 148.986,13.6984 149.5,11.5C 145.521,12.6251 141.521,12.6251 137.5,11.5C 141.312,10.6762 145.312,10.1762 149.5,10C 147.942,9.78997 146.609,9.28997 145.5,8.5 Z"/></g>
<g><path style="opacity:1" fill="#92e3aa" d="M 137.5,11.5 C 141.521,12.6251 145.521,12.6251 149.5,11.5C 148.986,13.6984 147.986,15.6984 146.5,17.5C 142.167,17.5002 137.834,17.5002 133.5,17.5C 132.702,17.9569 132.369,18.6236 132.5,19.5C 126.33,19.0824 120.83,20.7491 116,24.5C 114.812,23.4366 114.312,22.1033 114.5,20.5C 112.007,20.8693 111.34,20.2027 112.5,18.5C 119.881,13.3311 128.215,10.9978 137.5,11.5 Z"/></g>
<g><path style="opacity:1" fill="#bbecca" d="M 145.5,8.5 C 146.609,9.28997 147.942,9.78997 149.5,10C 145.312,10.1762 141.312,10.6762 137.5,11.5C 128.215,10.9978 119.881,13.3311 112.5,18.5C 110.997,19.6816 109.33,20.1816 107.5,20C 108.381,19.2917 109.047,18.4584 109.5,17.5C 120.262,10.1428 132.262,7.14278 145.5,8.5 Z"/></g>
<g><path style="opacity:1" fill="#cfecd8" d="M 158.5,131.5 C 157.77,132.712 156.77,133.712 155.5,134.5C 157.005,135.842 157.672,137.508 157.5,139.5C 161.009,139.808 162.676,141.808 162.5,145.5C 158.368,142.707 155.368,139.04 153.5,134.5C 154.486,132.592 156.152,131.592 158.5,131.5 Z"/></g>
<g><path style="opacity:1" fill="#d4efdb" d="M 103.5,135.5 C 106.925,143.513 109.592,151.846 111.5,160.5C 109.215,156.515 107.382,152.182 106,147.5C 104.488,143.629 103.655,139.629 103.5,135.5 Z"/></g>
<g><path style="opacity:1" fill="#c8ebd3" d="M 38.5,140.5 C 39.7079,141.234 41.0413,141.567 42.5,141.5C 39.2268,149.762 37.8935,149.429 38.5,140.5 Z"/></g>
<g><path style="opacity:1" fill="#d2edda" d="M 106.5,130.5 C 107.151,131.091 107.818,131.757 108.5,132.5C 110.796,139.045 112.462,145.712 113.5,152.5C 110.643,145.423 108.31,138.09 106.5,130.5 Z"/></g>
<g><path style="opacity:1" fill="#c3e5ce" d="M 42.5,141.5 C 43.209,140.596 44.209,140.263 45.5,140.5C 45.9465,143.01 45.2798,145.01 43.5,146.5C 43.6775,145.305 44.0109,144.138 44.5,143C 44.1639,141.97 43.4972,141.47 42.5,141.5 Z"/></g>
<g><path style="opacity:1" fill="#d2f1db" d="M 100.5,146.5 C 96.8212,146.724 93.1545,147.058 89.5,147.5C 89.6107,146.883 89.944,146.383 90.5,146C 94.0267,145.192 97.3601,145.359 100.5,146.5 Z"/></g>
<g><path style="opacity:1" fill="#cbeed6" d="M 162.5,145.5 C 165.886,147.567 168.219,150.567 169.5,154.5C 166.815,151.81 164.482,148.81 162.5,145.5 Z"/></g>
<g><path style="opacity:1" fill="#d2edda" d="M 35.5,140.5 C 36.6531,143.48 36.3197,146.48 34.5,149.5C 32.8888,148.68 32.2222,147.346 32.5,145.5C 33.1174,145.611 33.6174,145.944 34,146.5C 35.128,144.655 35.628,142.655 35.5,140.5 Z"/></g>
<g><path style="opacity:1" fill="#91d7a6" d="M 38.5,140.5 C 37.8935,149.429 39.2268,149.762 42.5,141.5C 43.4972,141.47 44.1639,141.97 44.5,143C 44.0109,144.138 43.6775,145.305 43.5,146.5C 39.5346,149.028 38.7012,152.362 41,156.5C 41.8159,157.823 42.9826,158.489 44.5,158.5C 53.8118,165.481 62.4785,173.148 70.5,181.5C 71.7804,182.931 73.4471,183.598 75.5,183.5C 75.5,179.833 75.5,176.167 75.5,172.5C 76.1641,174.978 76.4975,177.645 76.5,180.5C 76.7058,184.469 76.0392,188.135 74.5,191.5C 74.5,189.833 74.5,188.167 74.5,186.5C 71.6967,186.039 69.3634,184.705 67.5,182.5C 67.1667,182.5 66.8333,182.5 66.5,182.5C 63.1879,177.188 58.8546,172.855 53.5,169.5C 50.7224,165.611 47.0558,162.945 42.5,161.5C 38.8427,157.342 35.0094,153.342 31,149.5C 30.5464,147.464 29.7131,145.63 28.5,144C 28.8361,142.97 29.5028,142.47 30.5,142.5C 31.4013,143.29 32.0679,144.29 32.5,145.5C 32.2222,147.346 32.8888,148.68 34.5,149.5C 36.3197,146.48 36.6531,143.48 35.5,140.5C 34.1328,138.907 34.4661,137.574 36.5,136.5C 38.1112,137.32 38.7778,138.654 38.5,140.5 Z"/></g>
<g><path style="opacity:1" fill="#d1edd9" d="M 78.5,148.5 C 78.2155,150.415 78.5489,152.081 79.5,153.5C 80.2369,157.91 81.2369,162.243 82.5,166.5C 80.3436,163.887 78.8436,160.887 78,157.5C 77.1955,154.304 77.3622,151.304 78.5,148.5 Z"/></g>
<g><path style="opacity:1" fill="#8adaa2" d="M 78.5,148.5 C 80.8333,148.5 83.1667,148.5 85.5,148.5C 83.7354,149.461 81.7354,149.795 79.5,149.5C 79.5,150.833 79.5,152.167 79.5,153.5C 78.5489,152.081 78.2155,150.415 78.5,148.5 Z"/></g>
<g><path style="opacity:1" fill="#65cc83" d="M 102.5,118.5 C 102.804,122.922 104.137,126.922 106.5,130.5C 108.31,138.09 110.643,145.423 113.5,152.5C 113.802,155.373 114.469,158.039 115.5,160.5C 115.145,164.077 116.145,167.077 118.5,169.5C 118.5,170.167 118.833,170.5 119.5,170.5C 122.326,178.155 125.159,185.821 128,193.5C 129.278,202.903 128.112,211.903 124.5,220.5C 123.094,220.973 122.427,221.973 122.5,223.5C 120.413,224.585 119.08,226.251 118.5,228.5C 116.29,230.701 113.624,232.034 110.5,232.5C 111.075,230.589 112.075,228.922 113.5,227.5C 117.6,224.846 120.266,221.18 121.5,216.5C 122.793,215.158 123.626,213.491 124,211.5C 125.262,206.213 125.596,200.88 125,195.5C 122.431,187.188 119.265,179.188 115.5,171.5C 114.918,167.468 113.584,163.801 111.5,160.5C 109.592,151.846 106.925,143.513 103.5,135.5C 103.946,132.99 103.28,130.99 101.5,129.5C 101.167,126.833 100.833,124.167 100.5,121.5C 100.343,120.127 100.51,118.793 101,117.5C 101.383,118.056 101.883,118.389 102.5,118.5 Z"/></g>
<g><path style="opacity:1" fill="#d2e9d8" d="M 148.5,136.5 C 149.167,136.5 149.833,136.5 150.5,136.5C 156.089,143.934 161.922,151.267 168,158.5C 171.234,163.775 173.4,169.441 174.5,175.5C 171.881,171.924 170.048,167.924 169,163.5C 166.915,161.918 165.415,159.918 164.5,157.5C 164.167,158 163.833,158.5 163.5,159C 168.527,172.362 169.527,185.862 166.5,199.5C 166.5,196.5 166.5,193.5 166.5,190.5C 168.304,170.995 162.471,154.329 149,140.5C 147.666,139.122 147.499,137.789 148.5,136.5 Z"/></g>
<g><path style="opacity:1" fill="#d2edda" d="M 43.5,146.5 C 40.5531,150.806 40.8864,154.806 44.5,158.5C 42.9826,158.489 41.8159,157.823 41,156.5C 38.7012,152.362 39.5346,149.028 43.5,146.5 Z"/></g>
<g><path style="opacity:1" fill="#cfe6d5" d="M 140.5,148.5 C 142.062,148.733 143.395,149.4 144.5,150.5C 144.5,151.167 144.833,151.5 145.5,151.5C 146.942,152.82 147.608,154.486 147.5,156.5C 143.764,155.095 141.431,152.429 140.5,148.5 Z"/></g>
<g><path style="opacity:1" fill="#d5eddc" d="M 129.5,150.5 C 128.338,154.98 128.338,159.313 129.5,163.5C 130.209,164.404 131.209,164.737 132.5,164.5C 131.116,165.801 129.616,165.801 128,164.5C 127.333,160.167 127.333,155.833 128,151.5C 128.383,150.944 128.883,150.611 129.5,150.5 Z"/></g>
<g><path style="opacity:1" fill="#d4ebdb" d="M 30.5,142.5 C 29.5028,142.47 28.8361,142.97 28.5,144C 29.7131,145.63 30.5464,147.464 31,149.5C 35.0094,153.342 38.8427,157.342 42.5,161.5C 39.1967,159.209 35.8634,156.875 32.5,154.5C 29.4401,150.253 27.4401,145.587 26.5,140.5C 28.4832,140.157 29.8166,140.824 30.5,142.5 Z"/></g>
<g><path style="opacity:1" fill="#c8edd3" d="M 113.5,152.5 C 114.812,154.696 115.979,157.03 117,159.5C 117.494,161.134 117.66,162.801 117.5,164.5C 116.833,163.167 116.167,161.833 115.5,160.5C 114.469,158.039 113.802,155.373 113.5,152.5 Z"/></g>
<g><path style="opacity:1" fill="#c9edd2" d="M 66.5,152.5 C 68.2948,155.404 70.1282,158.404 72,161.5C 72.977,163.74 73.477,166.073 73.5,168.5C 70.0293,163.786 67.696,158.453 66.5,152.5 Z"/></g>
<g><path style="opacity:1" fill="#ade3bd" d="M 145.5,151.5 C 147.567,151.532 148.9,152.532 149.5,154.5C 156.54,168.688 159.04,183.688 157,199.5C 156.617,200.056 156.117,200.389 155.5,200.5C 156.333,192.512 156.499,184.512 156,176.5C 155.617,175.944 155.117,175.611 154.5,175.5C 153.84,168.512 151.507,162.179 147.5,156.5C 147.608,154.486 146.942,152.82 145.5,151.5 Z"/></g>
<g><path style="opacity:1" fill="#c7ecd2" d="M 72.5,156.5 C 73.4959,156.414 74.3292,156.748 75,157.5C 75.4396,159.866 75.9396,162.199 76.5,164.5C 74.8754,162.09 73.542,159.423 72.5,156.5 Z"/></g>
<g><path style="opacity:1" fill="#95d9a9" d="M 133.5,143.5 C 133.833,143.5 134.167,143.5 134.5,143.5C 136.276,143.794 138.276,143.96 140.5,144C 141.333,145.5 142.5,146.667 144,147.5C 144.483,148.448 144.649,149.448 144.5,150.5C 143.395,149.4 142.062,148.733 140.5,148.5C 139.594,146.086 137.928,145.253 135.5,146C 134.086,147.993 133.086,150.16 132.5,152.5C 130.997,156.024 129.997,159.69 129.5,163.5C 128.338,159.313 128.338,154.98 129.5,150.5C 131.083,148.337 132.416,146.004 133.5,143.5 Z"/></g>
<g><path style="opacity:1" fill="#afdebd" d="M 132.5,152.5 C 131.38,156.528 131.38,160.528 132.5,164.5C 131.209,164.737 130.209,164.404 129.5,163.5C 129.997,159.69 130.997,156.024 132.5,152.5 Z"/></g>
<g><path style="opacity:1" fill="#d1eed9" d="M 111.5,160.5 C 113.584,163.801 114.918,167.468 115.5,171.5C 112.344,168.617 111.01,164.951 111.5,160.5 Z"/></g>
<g><path style="opacity:1" fill="#b1e8c1" d="M 172.5,161.5 C 174.942,163.121 176.275,165.454 176.5,168.5C 174.801,166.434 173.468,164.1 172.5,161.5 Z"/></g>
<g><path style="opacity:1" fill="#96e0ac" d="M 115.5,160.5 C 116.167,161.833 116.833,163.167 117.5,164.5C 118.301,166.042 118.634,167.708 118.5,169.5C 116.145,167.077 115.145,164.077 115.5,160.5 Z"/></g>
<g><path style="opacity:1" fill="#b9eac7" d="M 83.5,168.5 C 85.8333,170.167 87.8333,172.167 89.5,174.5C 86.5,173.5 84.5,171.5 83.5,168.5 Z"/></g>
<g><path style="opacity:1" fill="#d6eddd" d="M 73.5,168.5 C 74.1667,169.833 74.8333,171.167 75.5,172.5C 75.5,176.167 75.5,179.833 75.5,183.5C 73.4471,183.598 71.7804,182.931 70.5,181.5C 71.8333,181.5 73.1667,181.5 74.5,181.5C 73.7051,177.215 73.3718,172.881 73.5,168.5 Z"/></g>
<g><path style="opacity:1" fill="#62cb80" d="M 100.5,146.5 C 101.464,153.746 101.797,161.08 101.5,168.5C 100.265,171.33 99.2655,174.33 98.5,177.5C 96.5,177.5 94.5,177.5 92.5,177.5C 91.8333,176.167 90.8333,175.167 89.5,174.5C 87.8333,172.167 85.8333,170.167 83.5,168.5C 83.6716,167.508 83.3382,166.842 82.5,166.5C 81.2369,162.243 80.2369,157.91 79.5,153.5C 79.5,152.167 79.5,150.833 79.5,149.5C 81.7354,149.795 83.7354,149.461 85.5,148.5C 87.099,148.768 88.4324,148.434 89.5,147.5C 93.1545,147.058 96.8212,146.724 100.5,146.5 Z"/></g>
<g><path style="opacity:1" fill="#ceeed7" d="M 85.5,164.5 C 86.5832,164.539 87.5832,164.873 88.5,165.5C 90.1315,168.462 92.1315,171.129 94.5,173.5C 90.5216,171.522 87.5216,168.522 85.5,164.5 Z"/></g>
<g><path style="opacity:1" fill="#c9eed4" d="M 94.5,173.5 C 97.0199,166.511 98.0199,159.177 97.5,151.5C 93.6404,152.644 89.6404,153.311 85.5,153.5C 85.5,156.5 85.5,159.5 85.5,162.5C 83.8993,159.45 82.8993,156.116 82.5,152.5C 87.6964,150.913 93.0297,150.246 98.5,150.5C 98.6857,157.881 98.1857,165.214 97,172.5C 96.3992,174.359 95.5659,174.692 94.5,173.5 Z"/></g>
<g><path style="opacity:1" fill="#e5e6e5" d="M 94.5,173.5 C 92.1315,171.129 90.1315,168.462 88.5,165.5C 87.5832,164.873 86.5832,164.539 85.5,164.5C 85.5,163.833 85.5,163.167 85.5,162.5C 85.5,159.5 85.5,156.5 85.5,153.5C 89.6404,153.311 93.6404,152.644 97.5,151.5C 98.0199,159.177 97.0199,166.511 94.5,173.5 Z"/></g>
<g><path style="opacity:1" fill="#c8ead2" d="M 101.5,168.5 C 102.559,176.216 99.559,179.216 92.5,177.5C 94.5,177.5 96.5,177.5 98.5,177.5C 99.2655,174.33 100.265,171.33 101.5,168.5 Z"/></g>
<g><path style="opacity:1" fill="#d6eddd" d="M 53.5,169.5 C 58.8546,172.855 63.1879,177.188 66.5,182.5C 63.0478,179.269 59.3811,176.269 55.5,173.5C 54.2949,172.423 53.6282,171.09 53.5,169.5 Z"/></g>
<g><path style="opacity:1" fill="#afe5be" d="M 148.5,136.5 C 147.499,137.789 147.666,139.122 149,140.5C 162.471,154.329 168.304,170.995 166.5,190.5C 165.833,191.833 165.167,193.167 164.5,194.5C 164.677,192.019 163.677,190.186 161.5,189C 162.833,188.667 164.167,188.333 165.5,188C 166.39,183.68 165.057,180.013 161.5,177C 162.422,173.541 162.255,170.041 161,166.5C 159.636,167.258 158.469,166.758 157.5,165C 158.448,164.517 159.448,164.351 160.5,164.5C 160.799,162.396 160.466,160.396 159.5,158.5C 157.233,155.755 155.4,152.755 154,149.5C 152.846,148.257 151.512,147.257 150,146.5C 149.517,145.552 149.351,144.552 149.5,143.5C 148.5,143.5 147.5,143.5 146.5,143.5C 145.99,140.612 146.656,138.279 148.5,136.5 Z"/></g>
<g><path style="opacity:1" fill="#93e2aa" d="M 144.5,134.5 C 146.027,134.573 147.027,133.906 147.5,132.5C 149.446,133.035 150.446,134.368 150.5,136.5C 149.833,136.5 149.167,136.5 148.5,136.5C 146.656,138.279 145.99,140.612 146.5,143.5C 147.5,143.5 148.5,143.5 149.5,143.5C 149.351,144.552 149.517,145.552 150,146.5C 151.512,147.257 152.846,148.257 154,149.5C 155.4,152.755 157.233,155.755 159.5,158.5C 160.466,160.396 160.799,162.396 160.5,164.5C 159.448,164.351 158.448,164.517 157.5,165C 158.469,166.758 159.636,167.258 161,166.5C 162.255,170.041 162.422,173.541 161.5,177C 165.057,180.013 166.39,183.68 165.5,188C 164.167,188.333 162.833,188.667 161.5,189C 163.677,190.186 164.677,192.019 164.5,194.5C 164.5,194.833 164.5,195.167 164.5,195.5C 163.475,198.974 162.808,202.64 162.5,206.5C 161.178,206.67 160.011,206.337 159,205.5C 158.28,207.112 158.446,208.612 159.5,210C 156.885,212.007 156.218,214.507 157.5,217.5C 149.528,221.034 148.028,219.367 153,212.5C 153.49,211.207 153.657,209.873 153.5,208.5C 153.5,207.833 153.5,207.167 153.5,206.5C 154.167,204.5 154.833,202.5 155.5,200.5C 156.117,200.389 156.617,200.056 157,199.5C 159.04,183.688 156.54,168.688 149.5,154.5C 148.9,152.532 147.567,151.532 145.5,151.5C 144.833,151.5 144.5,151.167 144.5,150.5C 144.649,149.448 144.483,148.448 144,147.5C 142.5,146.667 141.333,145.5 140.5,144C 138.276,143.96 136.276,143.794 134.5,143.5C 134.5,143.167 134.5,142.833 134.5,142.5C 135.391,141.739 136.058,140.739 136.5,139.5C 135.762,137.06 134.429,135.06 132.5,133.5C 132.709,132.914 133.043,132.414 133.5,132C 136.647,132.565 139.647,133.732 142.5,135.5C 143.416,135.457 144.083,135.124 144.5,134.5 Z"/></g>
<g><path style="opacity:1" fill="#d4eddb" d="M 67.5,182.5 C 69.3634,184.705 71.6967,186.039 74.5,186.5C 74.5,188.167 74.5,189.833 74.5,191.5C 74.4725,194.916 73.4725,197.916 71.5,200.5C 72.9102,196.296 73.5769,191.963 73.5,187.5C 70.2429,187.236 68.2429,185.57 67.5,182.5 Z"/></g>
<g><path style="opacity:1" fill="#d4e9da" d="M 154.5,175.5 C 155.117,175.611 155.617,175.944 156,176.5C 156.499,184.512 156.333,192.512 155.5,200.5C 154.833,202.5 154.167,204.5 153.5,206.5C 153.62,200.114 154.286,193.781 155.5,187.5C 154.836,183.524 154.503,179.524 154.5,175.5 Z"/></g>
<g><path style="opacity:1" fill="#cef0d8" d="M 174.5,176.5 C 176.22,181.551 177.22,186.885 177.5,192.5C 177.246,196.05 176.579,199.383 175.5,202.5C 175.711,193.8 175.377,185.133 174.5,176.5 Z"/></g>
<g><path style="opacity:1" fill="#cff0d8" d="M 115.5,171.5 C 119.265,179.188 122.431,187.188 125,195.5C 125.596,200.88 125.262,206.213 124,211.5C 123.626,213.491 122.793,215.158 121.5,216.5C 121.181,214.25 121.681,212.25 123,210.5C 123.667,204.833 123.667,199.167 123,193.5C 120.772,188.617 118.606,183.617 116.5,178.5C 115.526,176.257 115.192,173.924 115.5,171.5 Z"/></g>
<g><path style="opacity:1" fill="#d3eddb" d="M 79.5,174.5 C 80.1174,174.611 80.6174,174.944 81,175.5C 81.5549,184.816 80.2216,193.816 77,202.5C 76.2597,204.319 75.0931,205.652 73.5,206.5C 78.3601,196.389 80.3601,185.722 79.5,174.5 Z"/></g>
<g><path style="opacity:1" fill="#d2f1da" d="M 71.5,200.5 C 71.5979,202.553 70.9313,204.22 69.5,205.5C 69.0773,203.219 69.744,201.552 71.5,200.5 Z"/></g>
<g><path style="opacity:1" fill="#cbedd5" d="M 119.5,170.5 C 123.441,176.619 126.441,183.286 128.5,190.5C 130.104,199.987 129.604,209.321 127,218.5C 126.292,219.381 125.458,220.047 124.5,220.5C 128.112,211.903 129.278,202.903 128,193.5C 125.159,185.821 122.326,178.155 119.5,170.5 Z"/></g>
<g><path style="opacity:1" fill="#d0edd8" d="M 176.5,169.5 C 177.458,169.953 178.292,170.619 179,171.5C 182.238,184.524 182.238,197.524 179,210.5C 178.124,212.635 176.624,213.969 174.5,214.5C 176.276,211.356 177.776,208.023 179,204.5C 181.096,192.633 180.263,180.966 176.5,169.5 Z"/></g>
<g><path style="opacity:1" fill="#bfe5c9" d="M 166.5,190.5 C 166.5,193.5 166.5,196.5 166.5,199.5C 166.192,203.573 165.525,207.573 164.5,211.5C 162.866,212.955 161.532,214.622 160.5,216.5C 161.841,212.953 163.008,209.286 164,205.5C 164.498,202.183 164.665,198.85 164.5,195.5C 164.5,195.167 164.5,194.833 164.5,194.5C 165.167,193.167 165.833,191.833 166.5,190.5 Z"/></g>
<g><path style="opacity:1" fill="#ace5bc" d="M 164.5,195.5 C 164.665,198.85 164.498,202.183 164,205.5C 163.008,209.286 161.841,212.953 160.5,216.5C 158.948,218.035 157.615,219.869 156.5,222C 150.813,224.037 148.146,222.204 148.5,216.5C 148.833,215.833 149.167,215.167 149.5,214.5C 151.256,212.751 152.589,210.751 153.5,208.5C 153.657,209.873 153.49,211.207 153,212.5C 148.028,219.367 149.528,221.034 157.5,217.5C 156.218,214.507 156.885,212.007 159.5,210C 158.446,208.612 158.28,207.112 159,205.5C 160.011,206.337 161.178,206.67 162.5,206.5C 162.808,202.64 163.475,198.974 164.5,195.5 Z"/></g>
<g><path style="opacity:1" fill="#c6ead0" d="M 73.5,206.5 C 73.1389,210.222 71.4722,213.222 68.5,215.5C 69.6107,212.144 71.2774,209.144 73.5,206.5 Z"/></g>
<g><path style="opacity:1" fill="#b5e7c3" d="M 58.5,222.5 C 58.573,224.027 57.9063,225.027 56.5,225.5C 56.427,223.973 57.0937,222.973 58.5,222.5 Z"/></g>
<g><path style="opacity:1" fill="#bcebca" d="M 66.5,218.5 C 66.031,221.643 64.3644,223.977 61.5,225.5C 62.4333,222.63 64.1,220.296 66.5,218.5 Z"/></g>
<g><path style="opacity:1" fill="#dae6dd" d="M 164.5,211.5 C 163.013,215.145 161.513,218.811 160,222.5C 149.877,231.571 145.377,229.238 146.5,215.5C 147.417,214.873 148.417,214.539 149.5,214.5C 149.167,215.167 148.833,215.833 148.5,216.5C 145.879,218.689 145.879,221.022 148.5,223.5C 155.227,225.607 159.227,223.274 160.5,216.5C 161.532,214.622 162.866,212.955 164.5,211.5 Z"/></g>
<g><path style="opacity:1" fill="#c5e5cd" d="M 148.5,216.5 C 148.146,222.204 150.813,224.037 156.5,222C 157.615,219.869 158.948,218.035 160.5,216.5C 159.227,223.274 155.227,225.607 148.5,223.5C 145.879,221.022 145.879,218.689 148.5,216.5 Z"/></g>
<g><path style="opacity:1" fill="#c2ebce" d="M 122.5,223.5 C 121.92,225.749 120.587,227.415 118.5,228.5C 119.08,226.251 120.413,224.585 122.5,223.5 Z"/></g>
<g><path style="opacity:1" fill="#c2efcf" d="M 113.5,227.5 C 112.075,228.922 111.075,230.589 110.5,232.5C 109.179,229.765 110.179,228.098 113.5,227.5 Z"/></g>
<g><path style="opacity:1" fill="#c5ecd0" d="M 61.5,225.5 C 59.9059,228.764 57.5725,231.431 54.5,233.5C 56.0941,230.236 58.4275,227.569 61.5,225.5 Z"/></g>
<g><path style="opacity:1" fill="#c8ecd4" d="M 54.5,233.5 C 52.9663,235.369 50.9663,236.702 48.5,237.5C 49.8021,235.178 51.8021,233.845 54.5,233.5 Z"/></g>
</svg>
