<svg width="24" height="24" viewBox="0 0 24 24" fill="none" xmlns="http://www.w3.org/2000/svg">
<path d="M18.8318 8.53409L12.036 15.2718L5.29868 8.47601C5.1122 8.28761 4.80812 8.28665 4.61996 8.47313C4.4318 8.65961 4.4306 8.96369 4.61708 9.15161L11.6236 16.2191C11.7112 16.3074 11.824 16.3542 11.9385 16.3605C11.9719 16.3624 12.0052 16.3602 12.0381 16.3554C12.0511 16.3574 12.0636 16.3605 12.0765 16.3607C12.2071 16.3677 12.3403 16.3218 12.4401 16.2225L19.5074 9.21545C19.6958 9.02897 19.697 8.72513 19.5103 8.53673C19.3236 8.34833 19.0197 8.34737 18.8318 8.53409Z" fill="black"/>
</svg>
