<svg width="24" height="24" viewBox="0 0 24 24" fill="none" xmlns="http://www.w3.org/2000/svg">
<path d="M18.8318 15.4659L12.036 8.7282L5.29868 15.524C5.1122 15.7124 4.80812 15.7134 4.61996 15.5269C4.4318 15.3404 4.4306 15.0363 4.61708 14.8484L11.6236 7.7809C11.7112 7.6926 11.824 7.6458 11.9385 7.6395C11.9719 7.6376 12.0052 7.6398 12.0381 7.6446C12.0511 7.6426 12.0636 7.6395 12.0765 7.6393C12.2071 7.6323 12.3403 7.6782 12.4401 7.7775L19.5074 14.7846C19.6958 14.971 19.697 15.2749 19.5103 15.4633C19.3236 15.6517 19.0197 15.6526 18.8318 15.4659Z" fill="black"/>
</svg>
