<svg width="26" height="26" viewBox="0 0 26 26" fill="none" xmlns="http://www.w3.org/2000/svg">
<g clip-path="url(#clip0_3_10)">
<path d="M13 26C20.1797 26 26 20.1797 26 13C26 5.8203 20.1797 0 13 0C5.8203 0 0 5.8203 0 13C0 20.1797 5.8203 26 13 26Z" fill="#D9D9D9"/>
<path d="M15.653 14.4148C15.653 15.881 14.4661 17.0678 13 17.0678C11.5339 17.0678 10.347 15.881 10.347 14.4148C10.347 12.9487 11.5339 11.7619 13 11.7619C14.4661 11.7619 15.653 12.9487 15.653 14.4148ZM21.0821 7.76596C22.1417 7.76596 23 8.62428 23 9.68383V14.7105V18.9734C23 20.1027 22.0842 21.0185 20.9548 21.0185H5.04517C3.91581 21.0185 3 20.1027 3 18.9734V14.7064V9.68383C3 8.62428 3.85832 7.76596 4.91786 7.76596H8.75359L8.93429 7.0021C9.20945 5.81935 10.2649 4.98157 11.4805 4.98157H14.5236C15.7392 4.98157 16.7947 5.81935 17.0698 7.0021L17.2464 7.76596H21.0821ZM7 10.5339C7 10.0042 6.56879 9.57294 6.03901 9.57294C5.50513 9.57294 5.07392 10.0042 5.07392 10.5339C5.07392 11.0637 5.50513 11.4949 6.03491 11.4949C6.56879 11.499 7 11.0678 7 10.5339ZM17.731 14.4148C17.731 11.8029 15.6119 9.68383 13 9.68383C10.3881 9.68383 8.26899 11.8029 8.26899 14.4148C8.26899 17.0267 10.3881 19.1458 13 19.1458C15.6119 19.1458 17.731 17.0267 17.731 14.4148Z" fill="black"/>
</g>
<defs>
<clipPath id="clip0_3_10">
<rect width="26" height="26" fill="white"/>
</clipPath>
</defs>
</svg>
