<svg width="9" height="16" viewBox="0 0 9 16" fill="none" xmlns="http://www.w3.org/2000/svg">
<path d="M8.46591 1.1682L1.7282 7.964L8.52399 14.7013C8.71239 14.8878 8.71335 15.1919 8.52687 15.38C8.34039 15.5682 8.03631 15.5694 7.84839 15.3829L0.7809 8.3764C0.6926 8.2888 0.6458 8.176 0.6395 8.0615C0.6376 8.0281 0.6398 7.9948 0.6446 7.9619C0.6426 7.9489 0.639499 7.9364 0.639299 7.9235C0.632299 7.7929 0.678201 7.6597 0.777501 7.5599L7.78455 0.492599C7.97103 0.304199 8.27487 0.303 8.46327 0.4897C8.65167 0.6764 8.65263 0.9803 8.46591 1.1682Z" fill="black"/>
</svg>
