<svg xmlns="http://www.w3.org/2000/svg" width="24" height="25" viewBox="0 0 24 25" fill="none">
  <mask id="mask0_90_674" style="mask-type:luminance" maskUnits="userSpaceOnUse" x="2" y="3" width="21" height="21">
    <path fill-rule="evenodd" clip-rule="evenodd" d="M2 3.4999H22.4725V23.0009H2V3.4999Z" fill="white"/>
  </mask>
  <g mask="url(#mask0_90_674)">
    <path fill-rule="evenodd" clip-rule="evenodd" d="M3.82347 12.623C5.22547 16.985 10.7645 20.512 12.2365 21.385C13.7135 20.503 19.2925 16.937 20.6495 12.627C21.5405 9.841 20.7135 6.312 17.4275 5.253C15.8355 4.742 13.9785 5.053 12.6965 6.045C12.4285 6.251 12.0565 6.255 11.7865 6.051C10.4285 5.03 8.65447 4.731 7.03747 5.253C3.75647 6.311 2.93247 9.84 3.82347 12.623M12.2375 23.001C12.1135 23.001 11.9905 22.971 11.8785 22.91C11.5655 22.739 4.19247 18.675 2.39547 13.081C2.39447 13.081 2.39447 13.08 2.39447 13.08C1.26647 9.558 2.52247 5.132 6.57747 3.825C8.48147 3.209 10.5565 3.48 12.2345 4.539C13.8605 3.511 16.0205 3.227 17.8865 3.825C21.9455 5.134 23.2055 9.559 22.0785 13.08C20.3395 18.61 12.9125 22.735 12.5975 22.908C12.4855 22.97 12.3615 23.001 12.2375 23.001" fill="black"/>
  </g>
  <path fill-rule="evenodd" clip-rule="evenodd" d="M18.1537 11.1249C17.7667 11.1249 17.4387 10.8279 17.4067 10.4359C17.3407 9.6139 16.7907 8.9199 16.0077 8.6669C15.6127 8.5389 15.3967 8.1159 15.5237 7.7229C15.6527 7.3289 16.0717 7.1149 16.4677 7.2389C17.8307 7.6799 18.7857 8.8869 18.9027 10.3139C18.9357 10.7269 18.6287 11.0889 18.2157 11.1219C18.1947 11.1239 18.1747 11.1249 18.1537 11.1249" fill="black"/>
</svg>