<svg width="21" height="20" viewBox="0 0 21 20" fill="none" xmlns="http://www.w3.org/2000/svg">
<mask id="mask0_112_727" style="mask-type:luminance" maskUnits="userSpaceOnUse" x="0" y="-1" width="21" height="21">
<path fill-rule="evenodd" clip-rule="evenodd" d="M0 -0.000106812H20.4725V19.5009H0V-0.000106812Z" fill="white"/>
</mask>
<g mask="url(#mask0_112_727)">
<path fill-rule="evenodd" clip-rule="evenodd" d="M1.82347 9.123C3.22547 13.485 8.76447 17.012 10.2365 17.885C11.7135 17.003 17.2925 13.437 18.6495 9.127C19.5405 6.341 18.7135 2.812 15.4275 1.753C13.8355 1.242 11.9785 1.553 10.6965 2.545C10.4285 2.751 10.0565 2.755 9.78647 2.551C8.42847 1.53 6.65447 1.231 5.03747 1.753C1.75647 2.811 0.932468 6.34 1.82347 9.123M10.2375 19.501C10.1135 19.501 9.99047 19.471 9.87847 19.41C9.56547 19.239 2.19247 15.175 0.395468 9.581C0.394468 9.581 0.394468 9.58 0.394468 9.58C-0.733532 6.058 0.522469 1.632 4.57747 0.324996C6.48147 -0.291004 8.55647 -0.020004 10.2345 1.039C11.8605 0.010996 14.0205 -0.273004 15.8865 0.324996C19.9455 1.634 21.2055 6.059 20.0785 9.58C18.3395 15.11 10.9125 19.235 10.5975 19.408C10.4855 19.47 10.3615 19.501 10.2375 19.501" fill="#FF617C"/>
</g>
<path fill-rule="evenodd" clip-rule="evenodd" d="M16.1537 7.6249C15.7667 7.6249 15.4387 7.3279 15.4067 6.9359C15.3407 6.1139 14.7907 5.4199 14.0077 5.1669C13.6127 5.0389 13.3967 4.6159 13.5237 4.2229C13.6527 3.8289 14.0717 3.6149 14.4677 3.7389C15.8307 4.1799 16.7857 5.3869 16.9027 6.8139C16.9357 7.2269 16.6287 7.5889 16.2157 7.6219C16.1947 7.6239 16.1747 7.6249 16.1537 7.6249" fill="#FF617C"/>
</svg>
